<svg width="356" height="278" viewBox="0 0 356 278" fill="none" xmlns="http://www.w3.org/2000/svg">
<path d="M355.89 233.037H-6.10352e-05V233.215H355.89V233.037Z" fill="#EBEBEB"/>
<path d="M168.692 201.291H31.2542C30.1776 201.289 29.1456 200.86 28.385 200.098C27.6243 199.336 27.1971 198.304 27.1971 197.227V4.02867C27.2065 2.95817 27.6378 1.9346 28.3975 1.18029C29.1571 0.42597 30.1837 0.00183382 31.2542 0H168.692C169.77 0 170.803 0.428198 171.566 1.19039C172.328 1.95259 172.756 2.98635 172.756 4.06426V197.227C172.756 198.305 172.328 199.339 171.566 200.101C170.803 200.863 169.77 201.291 168.692 201.291ZM31.2542 0.142356C30.2247 0.144242 29.2381 0.554523 28.5108 1.28314C27.7835 2.01177 27.375 2.99919 27.375 4.02867V197.227C27.375 198.257 27.7835 199.244 28.5108 199.973C29.2381 200.701 30.2247 201.111 31.2542 201.113H168.692C169.722 201.111 170.709 200.701 171.438 199.973C172.166 199.245 172.576 198.257 172.578 197.227V4.02867C172.576 2.99854 172.166 2.01113 171.438 1.28271C170.709 0.554291 169.722 0.144238 168.692 0.142356H31.2542Z" fill="#EBEBEB"/>
<path d="M322.657 201.291H185.212C184.135 201.289 183.102 200.861 182.34 200.099C181.579 199.337 181.15 198.304 181.148 197.227V4.02867C181.159 2.95753 181.592 1.93396 182.353 1.17984C183.114 0.425722 184.141 0.00181382 185.212 0H322.657C323.726 0.00370445 324.751 0.428669 325.509 1.18278C326.267 1.9369 326.698 2.9594 326.707 4.02867V197.227C326.707 198.302 326.281 199.334 325.522 200.096C324.762 200.858 323.732 201.288 322.657 201.291ZM185.212 0.142356C184.182 0.144238 183.195 0.554291 182.466 1.28271C181.738 2.01113 181.328 2.99854 181.326 4.02867V197.227C181.328 198.257 181.738 199.245 182.466 199.973C183.195 200.701 184.182 201.111 185.212 201.113H322.657C323.687 201.111 324.674 200.701 325.403 199.973C326.131 199.245 326.541 198.257 326.543 197.227V4.02867C326.541 2.99854 326.131 2.01113 325.403 1.28271C324.674 0.554291 323.687 0.144238 322.657 0.142356H185.212Z" fill="#EBEBEB"/>
<path d="M320.23 244.489H301.723V244.667H320.23V244.489Z" fill="#EBEBEB"/>
<path d="M253.415 246.425H221.363V246.603H253.415V246.425Z" fill="#EBEBEB"/>
<path d="M301.012 237.884H257.742V238.062H301.012V237.884Z" fill="#EBEBEB"/>
<path d="M51.0274 239.08H37.3399V239.258H51.0274V239.08Z" fill="#EBEBEB"/>
<path d="M96.7237 239.08H57.3694V239.258H96.7237V239.08Z" fill="#EBEBEB"/>
<path d="M173.774 242.083H120.768V242.261H173.774V242.083Z" fill="#EBEBEB"/>
<path d="M48.0024 180.806H32.9127V233.037H48.0024V180.806Z" fill="#FAFAFA"/>
<path d="M61.213 192.266H46.1233V233.037H61.213V192.266Z" fill="#FAFAFA"/>
<path d="M70.8647 158.67H55.775V233.037H70.8647V158.67Z" fill="#FAFAFA"/>
<path d="M80.8937 98.3682H65.804V233.037H80.8937V98.3682Z" fill="#FAFAFA"/>
<path d="M118.219 108.853H77.7263V233.037H118.219V108.853Z" fill="#FAFAFA"/>
<path d="M275.658 233.037H292.897V197.291H275.658V233.037Z" fill="#FAFAFA"/>
<path d="M260.554 233.037H277.793V205.135H260.554V233.037Z" fill="#FAFAFA"/>
<path d="M249.536 233.037H266.775V182.137H249.536V233.037Z" fill="#FAFAFA"/>
<path d="M238.076 233.037H255.315V140.868H238.076V233.037Z" fill="#FAFAFA"/>
<path d="M247.343 120.44H194.437V233.037H247.343V120.44Z" fill="#F0F0F0"/>
<path d="M242.304 125.159H239.784V138.861H242.304V125.159Z" fill="#F5F5F5"/>
<path d="M242.304 146.591H239.784V160.293H242.304V146.591Z" fill="#F5F5F5"/>
<path d="M242.304 168.016H239.784V181.717H242.304V168.016Z" fill="#F5F5F5"/>
<path d="M242.304 189.44H239.784V203.142H242.304V189.44Z" fill="#F5F5F5"/>
<path d="M242.304 210.872H239.784V224.574H242.304V210.872Z" fill="#F5F5F5"/>
<path d="M233.378 125.159H230.859V138.861H233.378V125.159Z" fill="#F5F5F5"/>
<path d="M233.378 146.591H230.859V160.293H233.378V146.591Z" fill="#F5F5F5"/>
<path d="M233.378 168.016H230.859V181.717H233.378V168.016Z" fill="#F5F5F5"/>
<path d="M233.378 189.44H230.859V203.142H233.378V189.44Z" fill="#F5F5F5"/>
<path d="M233.378 210.872H230.859V224.574H233.378V210.872Z" fill="#F5F5F5"/>
<path d="M224.453 125.159H221.933V138.861H224.453V125.159Z" fill="#F5F5F5"/>
<path d="M224.453 146.591H221.933V160.293H224.453V146.591Z" fill="#F5F5F5"/>
<path d="M224.453 168.016H221.933V181.717H224.453V168.016Z" fill="#F5F5F5"/>
<path d="M224.453 189.44H221.933V203.142H224.453V189.44Z" fill="#F5F5F5"/>
<path d="M224.453 210.872H221.933V224.574H224.453V210.872Z" fill="#F5F5F5"/>
<path d="M215.527 125.159H213.007V138.861H215.527V125.159Z" fill="#F5F5F5"/>
<path d="M215.527 146.591H213.007V160.293H215.527V146.591Z" fill="#F5F5F5"/>
<path d="M215.527 168.016H213.007V181.717H215.527V168.016Z" fill="#F5F5F5"/>
<path d="M215.527 189.44H213.007V203.142H215.527V189.44Z" fill="#F5F5F5"/>
<path d="M215.527 210.872H213.007V224.574H215.527V210.872Z" fill="#F5F5F5"/>
<path d="M206.594 125.159H204.074V138.861H206.594V125.159Z" fill="#F5F5F5"/>
<path d="M206.594 146.591H204.074V160.293H206.594V146.591Z" fill="#F5F5F5"/>
<path d="M206.594 168.016H204.074V181.717H206.594V168.016Z" fill="#F5F5F5"/>
<path d="M206.594 189.44H204.074V203.142H206.594V189.44Z" fill="#F5F5F5"/>
<path d="M206.594 210.872H204.074V224.574H206.594V210.872Z" fill="#F5F5F5"/>
<path opacity="0.5" d="M194.437 120.44H205.334L210.075 233.037H194.437V120.44Z" fill="#E0E0E0"/>
<path d="M168.428 76.936L199.804 82.8723V233.036H168.428V76.936Z" fill="#F0F0F0"/>
<path d="M168.428 76.936H143.324V233.036H168.428V76.936Z" fill="#E6E6E6"/>
<path d="M143.324 90.6738H199.804V89.8766H143.324V90.6738Z" fill="#E0E0E0"/>
<path d="M143.324 99.1724H199.804V98.3752H143.324V99.1724Z" fill="#E0E0E0"/>
<path d="M143.324 107.671H199.804V106.874H143.324V107.671Z" fill="#E0E0E0"/>
<path d="M143.324 116.163H199.804V115.365H143.324V116.163Z" fill="#E0E0E0"/>
<path d="M143.324 124.668H199.804V123.871H143.324V124.668Z" fill="#E0E0E0"/>
<path d="M143.324 133.167H199.804V132.37H143.324V133.167Z" fill="#E0E0E0"/>
<path d="M143.324 141.666H199.804V140.868H143.324V141.666Z" fill="#E0E0E0"/>
<path d="M143.324 150.164H199.804V149.367H143.324V150.164Z" fill="#E0E0E0"/>
<path d="M143.324 158.67H199.804V157.873H143.324V158.67Z" fill="#E0E0E0"/>
<path d="M143.324 167.168H199.804V166.371H143.324V167.168Z" fill="#E0E0E0"/>
<path d="M143.324 175.667H199.804V174.87H143.324V175.667Z" fill="#E0E0E0"/>
<path d="M143.324 184.159H199.804V183.362H143.324V184.159Z" fill="#E0E0E0"/>
<path d="M143.324 192.665H199.804V191.867H143.324V192.665Z" fill="#E0E0E0"/>
<path d="M143.324 201.163H199.804V200.366H143.324V201.163Z" fill="#E0E0E0"/>
<path d="M143.324 209.662H199.804V208.864H143.324V209.662Z" fill="#E0E0E0"/>
<path d="M143.324 218.161H199.804V217.363H143.324V218.161Z" fill="#E0E0E0"/>
<path d="M143.324 226.666H199.804V225.869H143.324V226.666Z" fill="#E0E0E0"/>
<path d="M129.594 43.7603H103.35V233.037H129.594V43.7603Z" fill="#F0F0F0"/>
<path d="M129.594 43.7604H103.35L113.009 27.0479H150.591L129.594 43.7604Z" fill="#FAFAFA"/>
<path d="M129.594 43.7604L150.591 27.0479V233.037H129.594V43.7604Z" fill="#EBEBEB"/>
<path d="M150.591 52.5791H103.35V53.5898H150.591V52.5791Z" fill="#E0E0E0"/>
<path d="M150.591 63.2915H103.35V64.3022H150.591V63.2915Z" fill="#E0E0E0"/>
<path d="M150.591 74.0039H103.35V75.0146H150.591V74.0039Z" fill="#E0E0E0"/>
<path d="M150.591 84.7231H103.35V85.7339H150.591V84.7231Z" fill="#E0E0E0"/>
<path d="M150.591 95.4355H103.35V96.4463H150.591V95.4355Z" fill="#E0E0E0"/>
<path d="M150.591 106.147H103.35V107.158H150.591V106.147Z" fill="#E0E0E0"/>
<path d="M150.591 116.86H103.35V117.871H150.591V116.86Z" fill="#E0E0E0"/>
<path d="M150.591 127.572H103.35V128.583H150.591V127.572Z" fill="#E0E0E0"/>
<path d="M150.591 138.285H103.35V139.295H150.591V138.285Z" fill="#E0E0E0"/>
<path d="M150.591 149.004H103.35V150.015H150.591V149.004Z" fill="#E0E0E0"/>
<path d="M150.591 159.716H103.35V160.727H150.591V159.716Z" fill="#E0E0E0"/>
<path d="M150.591 170.429H103.35V171.439H150.591V170.429Z" fill="#E0E0E0"/>
<path d="M150.591 181.141H103.35V182.151H150.591V181.141Z" fill="#E0E0E0"/>
<path d="M150.591 191.853H103.35V192.864H150.591V191.853Z" fill="#E0E0E0"/>
<path d="M150.591 202.565H103.35V203.576H150.591V202.565Z" fill="#E0E0E0"/>
<path d="M150.591 213.285H103.35V214.295H150.591V213.285Z" fill="#E0E0E0"/>
<path d="M150.591 223.997H103.35V225.008H150.591V223.997Z" fill="#E0E0E0"/>
<path d="M98.795 135.352H70.1459V233.037H98.795V135.352Z" fill="#F0F0F0"/>
<path d="M80.3812 140.398H75.7831V156.079H80.3812V140.398Z" fill="#E6E6E6"/>
<path d="M91.6629 140.398H87.0648V156.079H91.6629V140.398Z" fill="#E6E6E6"/>
<path d="M80.3812 160.706H75.7831V176.386H80.3812V160.706Z" fill="#E6E6E6"/>
<path d="M91.6629 160.706H87.0648V176.386H91.6629V160.706Z" fill="#E6E6E6"/>
<path d="M80.3812 181.005H75.7831V196.686H80.3812V181.005Z" fill="#E6E6E6"/>
<path d="M91.6629 181.005H87.0648V196.686H91.6629V181.005Z" fill="#E6E6E6"/>
<path d="M80.3812 201.312H75.7831V216.993H80.3812V201.312Z" fill="#E6E6E6"/>
<path d="M91.6629 201.312H87.0648V216.993H91.6629V201.312Z" fill="#E6E6E6"/>
<path d="M98.7879 135.352H70.1459L76.8651 128.583H105.514L98.7879 135.352Z" fill="white"/>
<path d="M98.788 135.352L105.514 128.583L112.233 135.352V233.037H98.788V135.352Z" fill="#E6E6E6"/>
<path d="M177.945 265.181C254.164 265.181 315.952 261.573 315.952 257.123C315.952 252.673 254.164 249.066 177.945 249.066C101.726 249.066 39.9379 252.673 39.9379 257.123C39.9379 261.573 101.726 265.181 177.945 265.181Z" fill="#F5F5F5"/>
<path d="M296.777 42.4077H206.003C202.351 42.4077 199.391 45.3682 199.391 49.0201V250.504C199.391 254.156 202.351 257.116 206.003 257.116H296.777C300.429 257.116 303.389 254.156 303.389 250.504V49.0201C303.389 45.3682 300.429 42.4077 296.777 42.4077Z" fill="url(#paint0_linear_1_1829)"/>
<path d="M292.663 42.4077H201.889C198.237 42.4077 195.277 45.3682 195.277 49.0201V250.504C195.277 254.156 198.237 257.116 201.889 257.116H292.663C296.314 257.116 299.275 254.156 299.275 250.504V49.0201C299.275 45.3682 296.314 42.4077 292.663 42.4077Z" fill="url(#paint1_linear_1_1829)"/>
<path opacity="0.7" d="M292.663 42.4077H201.889C198.237 42.4077 195.277 45.3682 195.277 49.0201V250.504C195.277 254.156 198.237 257.116 201.889 257.116H292.663C296.314 257.116 299.275 254.156 299.275 250.504V49.0201C299.275 45.3682 296.314 42.4077 292.663 42.4077Z" fill="white"/>
<g opacity="0.9">
<path d="M216.153 42.4077H210.523V257.116H216.153V42.4077Z" fill="white"/>
<path d="M275.722 42.4077H272.27V257.116H275.722V42.4077Z" fill="white"/>
<path d="M195.277 89.0437V94.6738L299.275 88.2322V82.6021L195.277 89.0437Z" fill="white"/>
<path d="M195.284 222.054V227.684H299.282V222.054H195.284Z" fill="white"/>
<path d="M195.277 117.151V120.219H299.275V117.151H195.277Z" fill="white"/>
<path d="M195.277 189.732V196.181L299.275 160.99V154.542L195.277 189.732Z" fill="white"/>
<path d="M231.727 42.4077H226.097L241.229 257.123H246.86L231.727 42.4077Z" fill="white"/>
</g>
<path d="M261.85 83.6201H261.138C261.138 81.8078 260.877 80.0051 260.362 78.2675L261.074 78.0682C261.599 79.8717 261.86 81.7417 261.85 83.6201ZM258.782 74.5164C257.151 71.5907 254.77 69.1527 251.884 67.4536C248.998 65.7546 245.71 64.856 242.361 64.8505V64.1387C245.838 64.1421 249.251 65.0743 252.246 66.8387C255.242 68.6031 257.712 71.1358 259.401 74.1748L258.782 74.5164Z" fill="url(#paint2_linear_1_1829)"/>
<path d="M242.361 66.6299C237.856 66.6318 233.537 68.4226 230.352 71.6087C227.167 74.7948 225.378 79.1152 225.378 83.6201C225.378 99.991 242.361 111.209 242.361 111.209C242.361 111.209 259.358 99.9839 259.358 83.6201C259.357 79.1133 257.565 74.7918 254.377 71.6058C251.19 68.4197 246.868 66.6299 242.361 66.6299ZM242.361 91.6205C240.793 91.6191 239.261 91.1528 237.958 90.2807C236.655 89.4086 235.64 88.1697 235.041 86.7207C234.441 85.2717 234.285 83.6776 234.592 82.14C234.899 80.6023 235.655 79.1901 236.764 78.0819C237.873 76.9737 239.286 76.2192 240.824 75.9139C242.362 75.6085 243.956 75.7659 245.404 76.3663C246.853 76.9666 248.091 77.9829 248.962 79.2867C249.833 80.5905 250.297 82.1233 250.297 83.6912C250.297 84.7331 250.092 85.7648 249.693 86.7273C249.294 87.6897 248.71 88.5642 247.973 89.3006C247.235 90.037 246.361 90.6209 245.398 91.0189C244.435 91.417 243.403 91.6214 242.361 91.6205Z" fill="url(#paint3_linear_1_1829)"/>
<path d="M256.764 169.789C256.225 187.522 256.225 186.058 256.225 186.058C256.225 186.058 250.477 184.853 248.411 190.104C246.346 195.355 246.705 212.485 246.346 216.875C245.987 221.265 247.334 228.754 238.173 230.39C233.29 231.262 230.576 231.595 229.106 231.717C228.516 231.757 227.951 231.966 227.477 232.32C227.004 232.673 226.642 233.156 226.437 233.71C225.902 235.237 225.487 237.585 225.959 240.547C225.959 240.547 216.259 244.679 202.967 244.421L206.919 127.179L217.966 128.642C217.966 128.642 243.831 137.25 249.759 142.329C255.686 147.408 257.303 152.056 256.764 169.789Z" fill="#4B413F"/>
<g opacity="0.35">
<path d="M209.423 170.994C209.21 169.786 209.066 168.567 208.992 167.342C208.95 166.724 208.963 166.103 209.032 165.487C209.053 165.328 209.086 165.171 209.13 165.017C209.142 164.978 209.152 164.939 209.167 164.9L209.215 164.783C209.252 164.706 209.295 164.632 209.344 164.562C209.525 164.307 209.71 164.065 209.896 163.82C211.399 161.882 212.943 159.978 214.528 158.11C215.317 157.172 216.114 156.241 216.929 155.324C217.743 154.407 218.566 153.496 219.418 152.607C219.845 152.163 220.28 151.727 220.737 151.304C220.965 151.093 221.199 150.885 221.448 150.686C221.572 150.586 221.702 150.489 221.842 150.395L221.95 150.327L222.069 150.261C222.11 150.239 222.158 150.219 222.202 150.199C222.243 150.182 222.277 150.17 222.314 150.156C223.483 149.716 224.664 149.375 225.854 149.057C228.237 148.436 230.647 147.947 233.069 147.545C233.674 147.439 234.282 147.353 234.889 147.264C235.496 147.175 236.102 147.08 236.711 147.009L238.537 146.778C239.147 146.71 239.757 146.651 240.367 146.588C245.245 146.096 250.144 145.853 255.047 145.858L253.214 145.98L251.382 146.093L247.723 146.374L245.896 146.54L244.983 146.622L244.526 146.664L244.07 146.714C242.855 146.852 241.638 146.958 240.427 147.122C238.001 147.412 235.585 147.767 233.179 148.188C230.775 148.606 228.383 149.097 226.031 149.722C224.855 150.03 223.68 150.366 222.555 150.783C222.521 150.797 222.482 150.81 222.453 150.822C222.428 150.834 222.405 150.842 222.378 150.857L222.296 150.902L222.21 150.956C222.095 151.033 221.979 151.117 221.864 151.209C221.635 151.391 221.409 151.589 221.188 151.792C220.744 152.199 220.313 152.629 219.885 153.061C218.178 154.797 216.557 156.63 214.934 158.459C214.125 159.375 213.328 160.302 212.529 161.228C211.73 162.154 210.938 163.087 210.161 164.029C209.967 164.264 209.771 164.5 209.588 164.738C209.547 164.792 209.511 164.849 209.479 164.908L209.437 165.002C209.423 165.034 209.413 165.069 209.401 165.102C209.355 165.241 209.32 165.383 209.295 165.527C209.207 166.126 209.169 166.731 209.183 167.336C209.186 167.945 209.216 168.555 209.259 169.165C209.302 169.775 209.353 170.386 209.423 170.994Z" fill="#291D21"/>
<path d="M244.544 139.144C244.007 139.176 243.472 139.24 242.937 139.299C242.403 139.358 241.867 139.419 241.334 139.485C240.265 139.615 239.198 139.749 238.132 139.896C237.066 140.039 236.001 140.189 234.937 140.348C233.874 140.509 232.811 140.67 231.751 140.848C229.633 141.209 227.518 141.587 225.428 142.066C224.384 142.305 223.343 142.557 222.318 142.854C221.295 143.139 220.293 143.491 219.316 143.908C218.84 144.111 218.382 144.355 217.947 144.636C217.741 144.771 217.549 144.927 217.374 145.101C217.332 145.139 217.288 145.192 217.244 145.24L217.113 145.386C217.024 145.482 216.94 145.583 216.857 145.685C216.187 146.506 215.577 147.375 215.031 148.285C213.931 150.117 212.971 152.031 212.16 154.009C211.748 154.998 211.374 156.002 211.027 157.015C210.679 158.029 210.368 159.055 210.095 160.092C209.529 162.166 209.16 164.288 208.993 166.432C208.993 164.275 209.303 162.122 209.766 160.012C210.002 158.957 210.283 157.912 210.597 156.876C210.912 155.841 211.272 154.82 211.661 153.809C211.76 153.557 211.857 153.304 211.961 153.054C212.065 152.805 212.165 152.553 212.274 152.305C212.38 152.055 212.49 151.808 212.603 151.561L212.771 151.192L212.946 150.825C213.415 149.847 213.917 148.883 214.473 147.948C214.615 147.715 214.751 147.48 214.902 147.252L215.123 146.909L215.353 146.57C215.429 146.457 215.508 146.345 215.589 146.235C215.669 146.124 215.747 146.012 215.829 145.902C215.997 145.685 216.161 145.465 216.339 145.255C216.426 145.148 216.513 145.042 216.607 144.94L216.745 144.785C216.791 144.733 216.833 144.682 216.89 144.628C217.096 144.421 217.322 144.235 217.565 144.073C218.032 143.765 218.525 143.5 219.039 143.278C220.046 142.854 221.079 142.496 222.133 142.208C223.178 141.914 224.23 141.656 225.288 141.432C226.346 141.207 227.408 141.006 228.472 140.821C229.536 140.636 230.602 140.47 231.67 140.32C233.806 140.014 235.948 139.769 238.094 139.563C239.167 139.465 240.241 139.371 241.316 139.297C242.391 139.225 243.467 139.15 244.544 139.144Z" fill="#291D21"/>
<path d="M236.438 135.903C234.625 136.107 232.815 136.315 231.009 136.548C230.105 136.661 229.202 136.779 228.301 136.906C227.399 137.034 226.499 137.16 225.601 137.302C223.805 137.588 222.012 137.887 220.243 138.279C219.359 138.476 218.478 138.682 217.615 138.937C217.184 139.064 216.757 139.2 216.338 139.354C215.924 139.504 215.519 139.68 215.128 139.882C214.938 139.979 214.756 140.088 214.581 140.209L214.456 140.3L214.341 140.396C214.301 140.429 214.264 140.464 214.228 140.5C214.191 140.536 214.154 140.572 214.119 140.612C213.827 140.934 213.567 141.282 213.34 141.653C212.872 142.417 212.453 143.211 212.085 144.028C211.322 145.666 210.681 147.367 210.055 149.073C209.744 149.927 209.45 150.787 209.156 151.649C208.862 152.51 208.578 153.375 208.299 154.241C207.736 155.973 207.199 157.714 206.669 159.459C207.051 157.676 207.501 155.907 207.975 154.145C208.216 153.265 208.466 152.387 208.726 151.512C208.985 150.636 209.262 149.766 209.547 148.898C209.691 148.464 209.836 148.03 209.986 147.598C210.137 147.166 210.295 146.737 210.455 146.308C210.778 145.452 211.117 144.599 211.491 143.759C211.862 142.91 212.289 142.087 212.771 141.295C213.018 140.886 213.303 140.502 213.622 140.147C213.662 140.101 213.707 140.058 213.751 140.014C213.796 139.97 213.838 139.926 213.889 139.885C213.939 139.844 213.986 139.801 214.035 139.762L214.185 139.65C214.384 139.51 214.593 139.384 214.809 139.273C215.228 139.059 215.661 138.873 216.105 138.716C216.543 138.558 216.985 138.419 217.429 138.292C218.316 138.038 219.21 137.826 220.109 137.643C221.007 137.461 221.909 137.302 222.812 137.158C223.715 137.01 224.62 136.886 225.526 136.772C227.338 136.539 229.156 136.362 230.974 136.213C232.793 136.073 234.614 135.955 236.438 135.903Z" fill="#291D21"/>
<path d="M232.149 133.376C230.741 133.667 229.327 133.912 227.918 134.182C226.508 134.443 225.1 134.713 223.695 134.991C222.292 135.277 220.888 135.557 219.498 135.887C218.802 136.049 218.109 136.216 217.421 136.4C216.733 136.583 216.05 136.783 215.384 137.012C215.215 137.066 215.052 137.128 214.887 137.188C214.72 137.246 214.561 137.315 214.4 137.38C214.236 137.443 214.087 137.523 213.93 137.594C213.851 137.629 213.782 137.673 213.707 137.713C213.633 137.751 213.561 137.793 213.492 137.84C212.927 138.234 212.413 138.695 211.96 139.213C211.01 140.252 210.182 141.418 209.368 142.588C208.963 143.176 208.576 143.777 208.189 144.378C207.801 144.979 207.424 145.588 207.051 146.2C206.302 147.421 205.578 148.659 204.861 149.903C205.442 148.589 206.088 147.304 206.758 146.032C207.437 144.764 208.146 143.511 208.919 142.293C209.113 141.989 209.306 141.684 209.508 141.384C209.607 141.234 209.709 141.084 209.814 140.937C209.918 140.789 210.019 140.639 210.127 140.493C210.55 139.906 210.992 139.329 211.474 138.778C211.598 138.642 211.719 138.504 211.847 138.372C211.979 138.242 212.104 138.108 212.243 137.982C212.382 137.857 212.515 137.729 212.667 137.613C212.741 137.555 212.812 137.494 212.89 137.437L213.128 137.274C213.207 137.22 213.289 137.171 213.374 137.126C213.458 137.08 213.54 137.028 213.625 136.989C213.794 136.91 213.962 136.821 214.133 136.754C214.303 136.683 214.473 136.608 214.645 136.547C214.817 136.483 214.988 136.416 215.161 136.36C215.853 136.128 216.55 135.929 217.25 135.749C217.95 135.57 218.651 135.399 219.356 135.252C220.061 135.103 220.767 134.963 221.475 134.832C221.828 134.765 222.182 134.701 222.536 134.64L223.6 134.464C224.31 134.35 225.02 134.238 225.731 134.137C226.443 134.037 227.154 133.941 227.867 133.849C229.292 133.672 230.719 133.515 232.149 133.376Z" fill="#291D21"/>
<path d="M206.152 141.898C206.218 141.666 206.306 141.441 206.394 141.216C206.486 140.993 206.585 140.772 206.689 140.553C206.895 140.115 207.134 139.692 207.383 139.276C207.89 138.445 208.465 137.659 209.101 136.923C210.383 135.451 211.866 134.167 213.507 133.109C214.328 132.585 215.178 132.108 216.054 131.683C216.273 131.578 216.497 131.482 216.718 131.381C216.939 131.28 217.161 131.181 217.388 131.095L218.065 130.827C218.291 130.739 218.524 130.668 218.752 130.588C220.582 129.958 222.477 129.537 224.401 129.331C222.545 129.8 220.721 130.388 218.94 131.091C218.055 131.442 217.193 131.845 216.344 132.269C215.927 132.494 215.501 132.704 215.096 132.95L214.788 133.127L214.634 133.216L214.483 133.31L213.881 133.687C212.287 134.714 210.816 135.921 209.497 137.283C209.334 137.455 209.174 137.631 209.013 137.805L208.545 138.342C208.24 138.706 207.94 139.076 207.662 139.463C207.377 139.844 207.108 140.238 206.855 140.644C206.597 141.049 206.363 141.468 206.152 141.898Z" fill="#291D21"/>
</g>
<path d="M239.281 156.575H260.276V172.242H227.866V167.99C227.866 164.963 229.069 162.059 231.21 159.919C233.35 157.778 236.254 156.575 239.281 156.575Z" fill="#291D21"/>
<path d="M239.992 157.737H257.872V171.08H230.27V167.459C230.27 164.881 231.294 162.408 233.118 160.585C234.941 158.762 237.414 157.737 239.992 157.737Z" fill="#BAE3E9" stroke="#1B2115" stroke-width="4" stroke-miterlimit="10"/>
<path d="M202.881 189.501L204.603 190.19V170.65L256.854 169.961V205.426H199.266V189.587L202.881 189.501Z" fill="#1B2115"/>
<path d="M208.821 189.501H257.543L246.888 202.986L192.465 202.758L199.524 188.124L208.821 189.501Z" fill="#080F0F"/>
<path d="M248.335 198.368H198.746C197.274 198.368 196.081 199.561 196.081 201.033V203.019C196.081 204.491 197.274 205.685 198.746 205.685H248.335C249.807 205.685 251 204.491 251 203.019V201.033C251 199.561 249.807 198.368 248.335 198.368Z" fill="#182223"/>
<path d="M204 192.858H229.794C230.396 192.858 230.973 193.097 231.398 193.523C231.824 193.948 232.063 194.525 232.063 195.127V205.538H250.054V226.602C250.054 226.602 247.901 229.959 241.015 231.423C234.129 232.886 227.845 232.542 227.414 236.157C226.984 239.773 227.672 242.527 225.004 242.871C222.335 243.216 201.934 247.348 201.934 247.348L204 192.858Z" fill="#0547AC" stroke="#1B2115" stroke-width="5" stroke-miterlimit="10"/>
<path d="M231.116 221.437L250.57 221.266C250.57 221.266 244.028 233.403 232.321 233.403C227.442 233.403 231.116 221.437 231.116 221.437Z" fill="#1B2115"/>
<path opacity="0.72" d="M226.984 236.846C226.984 236.846 219.494 244.288 203.742 238.334C203.742 238.334 202.881 212.124 220.872 207.492L215.277 203.705L200.815 202.93L201.934 247.348L227.673 241.973L226.984 236.846Z" fill="#283037"/>
<path opacity="0.72" d="M209.12 216.753C209.798 216.707 210.476 216.673 211.154 216.64C211.832 216.612 212.51 216.579 213.188 216.56C213.866 216.537 214.544 216.513 215.222 216.499C215.9 216.485 216.578 216.462 217.256 216.455L217.551 216.452L217.555 216.753L217.587 219.061C217.593 219.83 217.599 220.599 217.599 221.368C217.602 222.906 217.593 224.444 217.574 225.982C217.554 227.52 217.519 229.058 217.47 230.596L217.431 231.75L217.382 232.903C217.348 233.672 217.308 234.441 217.256 235.21C217.205 234.441 217.165 233.672 217.131 232.903L217.082 231.75L217.043 230.596C216.995 229.058 216.96 227.52 216.939 225.982C216.918 224.444 216.909 222.906 216.913 221.368C216.913 220.599 216.919 219.83 216.926 219.061L216.958 216.753L217.256 217.052C216.578 217.045 215.9 217.022 215.222 217.008C214.544 216.994 213.866 216.97 213.188 216.947C212.51 216.928 211.832 216.895 211.154 216.867C210.476 216.833 209.797 216.8 209.12 216.753Z" fill="#283037"/>
<path d="M231.718 173.189H205.55V173.792H231.718V173.189Z" fill="#0A1111"/>
<path d="M231.718 178.698H203.139V179.301H231.718V178.698Z" fill="#0A1111"/>
<path d="M231.718 185.671H205.119V186.274H231.718V185.671Z" fill="#0A1111"/>
<path d="M231.718 154.294H205.55V154.897H231.718V154.294Z" fill="#0A1111"/>
<path d="M231.718 159.804H203.139V160.406H231.718V159.804Z" fill="#0A1111"/>
<path d="M231.718 166.776H205.119V167.379H231.718V166.776Z" fill="#0A1111"/>
<path d="M231.718 137.078H205.55V137.681H231.718V137.078Z" fill="#0A1111"/>
<path d="M231.718 142.587H203.139V143.19H231.718V142.587Z" fill="#0A1111"/>
<path d="M231.718 149.56H205.119V150.163H231.718V149.56Z" fill="#0A1111"/>
<path d="M231.718 130.622H205.119V131.225H231.718V130.622Z" fill="#0A1111"/>
<path d="M271.23 161.438C270.283 142.673 256.682 132.945 237.916 126.748C219.15 120.55 202.537 117.709 181.361 118.742C160.185 119.775 146.412 129.33 146.412 129.33C146.412 129.33 139.267 145.772 132.725 161.61C126.183 177.449 127.302 195.182 125.15 201.552C122.998 207.922 127.307 226.561 127.307 226.561L162.767 246.486C168.793 247.003 175.246 252.492 177.831 252.34C182.222 252.082 226.725 243.56 228.189 242.613C229.652 241.666 228.189 236.243 228.189 236.243L271.402 225.569C271.402 225.569 272.177 180.205 271.23 161.438ZM200.901 153.777C200.385 160.922 198.491 160.836 198.491 160.836C156.742 161.094 132.168 164.887 132.168 164.887L145.658 131.163C152.564 126.971 189.969 121.497 195.048 121.152C200.127 120.808 201.59 124.079 202.193 126.748C202.795 129.416 201.418 146.633 200.901 153.778V153.777ZM255.735 170.132C255.218 187.865 255.218 186.402 255.218 186.402C255.218 186.402 249.709 185.197 247.729 190.447C245.748 195.698 246.093 212.829 245.749 217.219C245.405 221.609 246.696 229.098 237.916 230.733C233.236 231.605 230.634 231.939 229.225 232.061C228.651 232.108 228.103 232.322 227.649 232.675C227.194 233.029 226.853 233.508 226.667 234.054C226.155 235.581 225.757 237.928 226.209 240.891C226.209 240.891 216.912 245.023 204.172 244.765L207.96 127.522L218.548 128.986C218.548 128.986 243.339 137.594 249.021 142.673C254.702 147.751 256.251 152.4 255.735 170.133V170.132Z" fill="#0065FF"/>
<path d="M200.964 153.839C200.447 160.997 198.55 160.911 198.55 160.911C187.442 161.136 178.166 161.419 170.424 161.73C170.413 161.731 170.401 161.731 170.39 161.731C166.724 161.879 163.402 162.032 160.394 162.189C156.236 162.405 152.675 162.628 149.629 162.848C148.956 162.897 148.307 162.946 147.684 162.994C142.58 163.391 139.098 163.774 136.746 164.096C135.056 164.328 133.948 164.526 133.241 164.676H133.239C132.854 164.747 132.474 164.845 132.103 164.969L145.617 131.183C146.322 130.755 147.344 130.314 148.617 129.866C149.163 129.674 149.757 129.48 150.393 129.286C150.413 129.28 150.434 129.272 150.455 129.267C153.547 128.323 157.599 127.365 162.01 126.452C162.686 126.312 163.369 126.173 164.061 126.036C167.765 125.298 171.649 124.599 175.377 123.971C180.259 123.15 184.873 122.452 188.465 121.953C189.058 121.872 189.622 121.795 190.157 121.723C192.508 121.411 194.253 121.211 195.099 121.154C200.187 120.808 201.654 124.086 202.257 126.759C202.861 129.433 201.482 146.681 200.964 153.839Z" fill="#BAE3E9" stroke="black" stroke-width="14" stroke-miterlimit="10"/>
<path d="M189.384 164.452H173.51C172.711 164.452 172.064 165.099 172.064 165.897V169.806C172.064 170.605 172.711 171.252 173.51 171.252H189.384C190.183 171.252 190.83 170.605 190.83 169.806V165.897C190.83 165.099 190.183 164.452 189.384 164.452Z" fill="#B42E21"/>
<path d="M183.083 165.897V169.806C183.083 170.605 183.35 171.252 183.679 171.252H190.233C190.563 171.252 190.83 170.605 190.83 169.806V165.897C190.83 165.099 190.563 164.452 190.233 164.452H183.679C183.35 164.452 183.083 165.099 183.083 165.897Z" fill="#AB917B"/>
<path d="M129.008 174.792L135.652 174.954L135.814 180.503L134.619 180.377L134.705 177.02H128.249L129.008 174.792Z" fill="#0A1111"/>
<path d="M144.604 180.549L145.809 173.921C145.809 173.921 167.846 174.007 169.568 174.265C171.289 174.524 171.375 174.696 176.368 174.696C181.361 174.696 206.324 174.782 206.324 174.782L146.24 176.589L145.981 180.549H144.604Z" fill="#0A1111"/>
<path d="M134.016 212.313L144.346 211.969" stroke="black" stroke-width="4" stroke-miterlimit="10"/>
<path d="M191.716 196.447C191.634 196.925 191.511 197.395 191.346 197.851C190.659 199.569 164.448 206.01 160.781 208.667C160.755 208.709 160.736 208.755 160.725 208.803C160.067 211.209 162.92 237.054 163.804 244.865C163.963 246.268 164.058 247.09 164.058 247.09L158.377 244.335L143.14 232.112L132.168 225.59C133.935 210.632 129.437 201.596 129.109 201.553C127.129 201.295 124.977 203.878 124.116 203.705C123.255 203.532 121.017 201.381 119.64 196.388C118.262 191.395 120.603 180.635 121.706 180.635C121.914 180.635 122.622 180.633 123.724 180.627C126.447 181.886 137.803 183.652 145.378 183.476C155.393 183.243 173.291 180.173 173.957 180.119C177.142 179.86 185.922 177.364 189.538 181.582C192.624 185.181 192.387 192.918 191.716 196.447Z" fill="#0A1111"/>
<path d="M152.179 254.407C152.179 254.407 156.742 253.46 159.496 256.214C159.496 256.214 158.377 245.971 156.225 242.355C154.073 238.74 141.763 237.535 139.611 240.031L152.179 254.407Z" fill="black"/>
<path d="M136.082 274.403C145.781 274.403 153.643 265.783 153.643 255.151C153.643 244.518 145.781 235.899 136.082 235.899C126.384 235.899 118.522 244.518 118.522 255.151C118.522 265.783 126.384 274.403 136.082 274.403Z" fill="#2F2F2F"/>
<path d="M139.181 271.536C147.168 271.536 153.643 264.098 153.643 254.923C153.643 245.747 147.168 238.309 139.181 238.309C131.194 238.309 124.719 245.747 124.719 254.923C124.719 264.098 131.194 271.536 139.181 271.536Z" fill="#111C1A"/>
<path d="M139.181 260.863C142.271 260.863 144.776 257.914 144.776 254.278C144.776 250.641 142.271 247.692 139.181 247.692C136.091 247.692 133.586 250.641 133.586 254.278C133.586 257.914 136.091 260.863 139.181 260.863Z" fill="#696C78"/>
<path d="M164.145 247.004L156.57 246.746C156.57 246.746 156.139 223.418 140.472 224.537C124.806 225.655 124.634 227.98 124.634 227.98L127.388 224.537C127.388 224.537 137.89 219.802 147.961 223.762C158.033 227.722 163.284 243.819 164.145 247.004Z" fill="#2B2B2B"/>
<path d="M158.205 246.573C154.053 241.54 148.822 239.859 148.822 239.859L133.216 239.743L119.194 239.638C118.618 239.633 118.054 239.474 117.561 239.177C117.068 238.879 116.665 238.455 116.393 237.947C116.121 237.44 115.99 236.868 116.015 236.293C116.04 235.718 116.22 235.16 116.535 234.678C121.266 227.459 131.442 221.3 143.399 223.762C158.033 226.774 158.205 246.573 158.205 246.573Z" fill="#0065FF"/>
<path d="M139.526 146.977C143.044 146.977 145.895 144.202 145.895 140.779C145.895 137.356 143.044 134.582 139.526 134.582C136.007 134.582 133.156 137.356 133.156 140.779C133.156 144.202 136.007 146.977 139.526 146.977Z" fill="#696C78" stroke="black" stroke-width="11" stroke-miterlimit="10"/>
<path d="M265.634 218.683C265.634 218.683 276.739 214.809 274.501 227.033C272.432 238.333 265.204 240.548 265.204 240.548L265.634 218.683Z" fill="black"/>
<path d="M274.501 231.896C274.501 239.195 270.981 245.236 266.398 246.251C265.95 246.35 265.491 246.4 265.032 246.4C259.802 246.4 255.563 239.907 255.563 231.896C255.563 223.885 259.802 217.391 265.032 217.391C266.414 217.391 267.727 217.845 268.911 218.66C272.206 220.93 274.501 226.003 274.501 231.896Z" fill="#2F2F2F"/>
<path d="M274.501 231.896C274.501 239.196 271.093 245.236 266.656 246.251C263.466 243.981 261.244 238.908 261.244 233.015C261.244 225.716 264.652 219.676 269.089 218.661C272.279 220.931 274.501 226.003 274.501 231.896Z" fill="#111C1A"/>
<path d="M268.346 238.568C270.461 238.568 272.176 235.793 272.176 232.37C272.176 228.947 270.461 226.172 268.346 226.172C266.23 226.172 264.515 228.947 264.515 232.37C264.515 235.793 266.23 238.568 268.346 238.568Z" fill="#696C78"/>
<path d="M253.451 230.207L260.631 229.842C261.387 229.803 262.11 229.523 262.695 229.042C263.279 228.56 263.694 227.904 263.877 227.17C264.656 224.046 266.579 219.093 270.971 218.683C272.779 218.683 275.093 220.45 274.84 224.86C274.84 224.86 277.427 224.02 277.427 222.212C277.427 220.404 276.394 211.882 271.316 207.75C266.237 203.618 255.558 210.226 253.451 230.207Z" fill="#0547AC"/>
<path opacity="0.26" d="M260.642 225.311C260.632 224.95 260.639 224.588 260.656 224.227C260.674 223.866 260.697 223.505 260.734 223.144C260.771 222.784 260.809 222.423 260.862 222.065C260.915 221.706 260.975 221.348 261.042 220.991C261.174 220.276 261.35 219.57 261.553 218.869C261.76 218.168 262.007 217.479 262.293 216.806C262.857 215.438 263.645 214.175 264.625 213.067C265.124 212.512 265.686 212.019 266.3 211.595C266.609 211.385 266.93 211.194 267.262 211.023C267.595 210.856 267.938 210.709 268.289 210.585L268.305 210.579L268.309 210.578C268.874 210.429 269.468 210.425 270.036 210.564C270.582 210.706 271.1 210.943 271.564 211.265C272.017 211.578 272.43 211.945 272.796 212.357C272.977 212.56 273.147 212.774 273.305 212.995C273.462 213.217 273.602 213.449 273.726 213.69C273.411 213.257 273.05 212.859 272.65 212.502C272.26 212.145 271.832 211.833 271.374 211.57C270.929 211.31 270.443 211.128 269.937 211.032C269.448 210.938 268.944 210.969 268.47 211.121L268.489 211.114C268.168 211.247 267.854 211.397 267.549 211.563C267.247 211.734 266.954 211.921 266.671 212.122C266.392 212.328 266.122 212.547 265.865 212.781C265.608 213.015 265.364 213.263 265.132 213.523C264.211 214.587 263.452 215.781 262.879 217.066C262.582 217.707 262.324 218.369 262.091 219.041C261.853 219.712 261.655 220.397 261.47 221.088C261.105 222.477 260.829 223.887 260.642 225.311Z" fill="#283037"/>
<path d="M167.803 201.036C173.247 201.036 177.659 196.739 177.659 191.438C177.659 186.138 173.247 181.84 167.803 181.84C162.36 181.84 157.947 186.138 157.947 191.438C157.947 196.739 162.36 201.036 167.803 201.036Z" fill="#0E1919"/>
<path d="M169.74 200.348C174.114 200.348 177.659 196.417 177.659 191.567C177.659 186.718 174.114 182.787 169.74 182.787C165.366 182.787 161.82 186.718 161.82 191.567C161.82 196.417 165.366 200.348 169.74 200.348Z" fill="#71646D"/>
<path d="M169.157 198.11C172.094 198.11 174.474 195.181 174.474 191.567C174.474 187.954 172.094 185.025 169.157 185.025C166.22 185.025 163.839 187.954 163.839 191.567C163.839 195.181 166.22 198.11 169.157 198.11Z" fill="#FFFBFF"/>
<path d="M171.141 196.474C172.913 196.474 174.35 194.836 174.35 192.816C174.35 190.795 172.913 189.157 171.141 189.157C169.369 189.157 167.932 190.795 167.932 192.816C167.932 194.836 169.369 196.474 171.141 196.474Z" fill="#DCDAD9"/>
<path d="M125.968 202.242C129.652 202.242 132.639 197.809 132.639 192.342C132.639 186.875 129.652 182.443 125.968 182.443C122.283 182.443 119.297 186.875 119.297 192.342C119.297 197.809 122.283 202.242 125.968 202.242Z" fill="#0E1919"/>
<path d="M123.557 201.036C125.768 201.036 127.56 197.105 127.56 192.256C127.56 187.407 125.768 183.476 123.557 183.476C121.347 183.476 119.555 187.407 119.555 192.256C119.555 197.105 121.347 201.036 123.557 201.036Z" fill="#71646D"/>
<path d="M123.557 197.826C124.96 197.826 126.097 195.332 126.097 192.256C126.097 189.179 124.96 186.686 123.557 186.686C122.155 186.686 121.018 189.179 121.018 192.256C121.018 195.332 122.155 197.826 123.557 197.826Z" fill="#FFFBFF"/>
<path d="M124.504 195.749C125.384 195.749 126.097 194.185 126.097 192.256C126.097 190.327 125.384 188.763 124.504 188.763C123.625 188.763 122.912 190.327 122.912 192.256C122.912 194.185 123.625 195.749 124.504 195.749Z" fill="#DCDAD9"/>
<path d="M129.11 183.475C129.11 183.475 134.361 189.071 132.345 196.279C131.072 200.835 135.362 199.596 141.795 199.661L141.8 199.683C141.8 199.683 143.678 199.697 146.266 199.627C148.854 199.568 164.468 199.561 160.443 197.077C153.547 192.82 162.337 183.39 162.337 183.39C141.85 188.038 134.791 185.542 129.11 183.475Z" fill="#283037"/>
<path d="M145.981 171.855H134.361V180.549H145.981V171.855Z" fill="#0A1111"/>
<path d="M201.184 150.861C201.101 151.971 201.026 152.978 200.964 153.839C200.447 160.996 198.55 160.91 198.55 160.91C187.442 161.136 178.166 161.418 170.424 161.729C170.413 161.73 170.401 161.73 170.39 161.731C144.798 162.759 135.995 164.093 133.241 164.676H133.239C132.854 164.747 132.474 164.844 132.103 164.968L143.01 137.701C158.005 137.98 181.679 140.324 201.184 150.861Z" fill="#DAF2F6"/>
<path d="M201.184 150.861C181.679 140.324 158.005 137.98 143.01 137.702L144.913 132.948C145.161 132.328 145.534 131.766 146.008 131.296C146.482 130.826 147.048 130.459 147.67 130.217C147.968 130.1 148.284 129.983 148.618 129.865C149.183 129.667 149.798 129.467 150.456 129.266C159.892 126.387 178.288 123.365 188.466 121.953C189.059 121.871 189.623 121.794 190.159 121.722C192.51 121.411 194.254 121.211 195.1 121.153C200.189 120.808 201.656 124.086 202.259 126.759C202.789 129.11 201.784 142.742 201.184 150.861Z" fill="#B0DFE5"/>
<path opacity="0.19" d="M190.115 121.721L170.418 161.653L169.992 162.517L170.384 161.655L188.426 121.951C189.018 121.869 189.581 121.793 190.115 121.721Z" fill="black"/>
<path opacity="0.19" d="M150.486 129.25L133.304 164.595L133.29 164.624L133.303 164.595L148.652 129.849C149.216 129.651 149.829 129.451 150.486 129.25Z" fill="black"/>
<path d="M136.513 204.307L146.842 204.221" stroke="#555661" stroke-width="8" stroke-miterlimit="10"/>
<path d="M136.512 206.545L146.498 206.287" stroke="#555661" stroke-width="8" stroke-miterlimit="10"/>
<path d="M136.943 208.697L146.153 208.611" stroke="#555661" stroke-width="8" stroke-miterlimit="10"/>
<path opacity="0.38" d="M191.716 196.447C191.716 197.078 191.52 197.692 191.156 198.207C190.792 198.722 190.278 199.111 189.683 199.321C184.143 201.278 168.927 206.806 165.005 209.817C160.217 213.494 164.093 246.564 164.144 246.999C164.134 246.936 164.007 246.158 163.805 244.865C162.921 237.053 160.068 211.209 160.726 208.803C160.744 208.756 160.763 208.711 160.781 208.667C164.449 206.01 190.659 199.569 191.346 197.851C191.511 197.395 191.635 196.925 191.716 196.447Z" fill="#283037"/>
<path d="M226.381 207.836C225.456 207.979 224.531 208.053 223.605 208.106C222.68 208.157 221.754 208.182 220.829 208.181C219.904 208.181 218.978 208.157 218.053 208.107C217.127 208.054 216.202 207.98 215.277 207.836C216.202 207.693 217.127 207.619 218.053 207.566C218.978 207.515 219.904 207.491 220.829 207.492C221.754 207.494 222.68 207.519 223.605 207.567C224.531 207.62 225.456 207.694 226.381 207.836Z" fill="#1B2115"/>
<path d="M205.568 203.229C206.804 203.188 229.389 204.307 229.389 204.307L230.599 206.632L226.959 208.82L205.262 208.784L205.568 203.229Z" fill="#283037"/>
<path opacity="0.53" d="M229.05 195.097C229.114 195.864 229.16 196.632 229.2 197.399C229.222 197.782 229.237 198.167 229.252 198.551C229.268 198.934 229.286 199.318 229.297 199.702C229.324 200.47 229.342 201.237 229.358 202.005C229.374 202.772 229.383 203.54 229.388 204.307L229.391 204.644L229.049 204.646C228.052 204.653 227.055 204.652 226.058 204.645C225.061 204.638 224.064 204.62 223.067 204.597C222.07 204.574 221.072 204.536 220.075 204.491C219.078 204.444 218.081 204.392 217.084 204.307C218.081 204.221 219.079 204.17 220.075 204.122C221.073 204.077 222.07 204.04 223.067 204.016C224.064 203.992 225.061 203.975 226.058 203.968C227.055 203.961 228.053 203.96 229.049 203.967L228.71 204.306C228.716 203.538 228.726 202.771 228.741 202.003C228.756 201.235 228.775 200.468 228.801 199.7C228.813 199.317 228.831 198.933 228.846 198.549C228.862 198.165 228.877 197.781 228.899 197.398C228.94 196.632 228.985 195.864 229.05 195.097Z" fill="#00A87A"/>
<path opacity="0.72" d="M225.52 215.364C225.682 216.769 225.776 218.18 225.851 219.591C225.885 220.297 225.908 221.005 225.926 221.712C225.945 222.418 225.945 223.126 225.943 223.835C225.94 225.251 225.879 226.667 225.774 228.084C225.721 228.792 225.643 229.499 225.55 230.205C225.456 230.911 225.342 231.616 225.191 232.317C225.117 232.668 225.027 233.016 224.933 233.364C224.834 233.711 224.725 234.056 224.6 234.397C224.472 234.742 224.323 235.078 224.155 235.405C223.983 235.742 223.772 236.058 223.526 236.345C223.458 236.416 223.396 236.489 223.324 236.556L223.214 236.656L223.159 236.705L223.099 236.751C222.947 236.864 222.788 236.969 222.624 237.065C222.546 237.116 222.463 237.156 222.382 237.2L222.137 237.329C221.97 237.406 221.803 237.482 221.634 237.553C221.296 237.689 220.95 237.804 220.598 237.9C220.422 237.945 220.247 237.992 220.07 238.026L219.804 238.082L219.538 238.128C218.123 238.347 216.687 238.391 215.261 238.257C214.553 238.194 213.848 238.108 213.15 237.986C212.452 237.869 211.76 237.717 211.078 237.529C211.426 237.588 211.775 237.638 212.125 237.682C212.475 237.727 212.825 237.765 213.175 237.797C213.876 237.862 214.578 237.907 215.279 237.919C215.979 237.936 216.68 237.927 217.376 237.874C218.069 237.828 218.758 237.736 219.439 237.599L219.692 237.547L219.943 237.484C220.111 237.445 220.275 237.394 220.439 237.345C220.766 237.247 221.087 237.131 221.401 236.997C221.556 236.928 221.709 236.854 221.861 236.78L222.081 236.657C222.155 236.616 222.23 236.578 222.298 236.529C222.437 236.444 222.571 236.351 222.7 236.252L222.745 236.216L222.787 236.176L222.872 236.096C222.928 236.042 222.977 235.979 223.032 235.921C223.442 235.429 223.732 234.804 223.968 234.167C224.083 233.845 224.184 233.516 224.276 233.184C224.365 232.85 224.448 232.513 224.519 232.173C224.804 230.805 225.007 229.421 225.126 228.028C225.267 226.633 225.342 225.228 225.408 223.823C225.439 223.12 225.457 222.416 225.477 221.712C225.497 221.008 225.508 220.304 225.515 219.599C225.534 218.188 225.53 216.777 225.52 215.364Z" fill="#283037"/>
<path opacity="0.55" d="M271.316 207.751C270.752 207.351 270.117 207.063 269.445 206.901C268.784 206.75 268.101 206.72 267.428 206.811C267.094 206.855 266.764 206.922 266.439 207.012C266.115 207.106 265.798 207.219 265.488 207.351C264.868 207.618 264.276 207.947 263.721 208.333L263.514 208.478L263.311 208.631C263.174 208.73 263.044 208.839 262.912 208.945C262.78 209.051 262.653 209.164 262.524 209.273C262.398 209.387 262.271 209.499 262.148 209.616C261.655 210.085 261.19 210.582 260.756 211.105C260.321 211.628 259.909 212.173 259.527 212.739C259.142 213.303 258.781 213.884 258.444 214.481C257.094 216.867 256.086 219.446 255.286 222.089C254.492 224.738 253.927 227.459 253.452 230.208C253.565 227.409 253.962 224.629 254.638 221.911C255.318 219.19 256.302 216.522 257.696 214.056C258.048 213.442 258.423 212.84 258.828 212.258C259.234 211.674 259.671 211.113 260.136 210.576C261.063 209.487 262.148 208.542 263.355 207.773C263.505 207.675 263.663 207.591 263.817 207.499C263.976 207.415 264.131 207.325 264.294 207.249C264.615 207.088 264.946 206.947 265.285 206.827C265.624 206.709 265.971 206.611 266.323 206.535C266.675 206.46 267.032 206.413 267.392 206.393C267.751 206.374 268.111 206.388 268.467 206.435C268.822 206.479 269.172 206.559 269.511 206.673C270.181 206.902 270.796 207.269 271.316 207.751L271.316 207.751Z" fill="#283037"/>
<path d="M229.394 194.05V205.081L226.54 207.728C226.156 208.303 225.954 208.98 225.959 209.671L226.209 240.891C226.209 240.891 226.518 234.334 228.903 233.61C231.288 232.886 242.478 233.832 245.405 228.754C248.332 223.675 250.097 205.555 250.097 205.555L247.859 228.022L231.331 233.358L232.02 205.554L232.11 194.013C232.104 193.805 232.051 193.602 231.955 193.418C231.858 193.234 231.721 193.075 231.553 192.952C231.386 192.83 231.192 192.747 230.987 192.711C230.783 192.675 230.573 192.687 230.374 192.745C230.091 192.827 229.842 192.999 229.666 193.234C229.489 193.469 229.394 193.756 229.394 194.05Z" fill="#0065FF"/>
<path opacity="0.38" d="M229.48 208.611C229.624 210.34 229.695 212.069 229.75 213.798C229.801 215.526 229.825 217.255 229.825 218.984C229.825 220.713 229.801 222.442 229.751 224.171C229.697 225.899 229.625 227.628 229.48 229.357C229.336 227.628 229.264 225.899 229.209 224.171C229.159 222.442 229.135 220.713 229.136 218.984C229.138 217.255 229.162 215.526 229.21 213.798C229.265 212.069 229.337 210.34 229.48 208.611Z" fill="#0065FF"/>
<path d="M157.324 244.639C153.172 239.606 148.822 239.859 148.822 239.859L133.216 239.742C133.176 239.705 133.156 239.686 133.156 239.686C133.156 239.686 148.954 219.377 157.324 244.639Z" fill="#0547AC"/>
<path opacity="0.38" d="M127.818 201.38L131.074 223.402L132.35 222.947C132.35 222.947 133.758 211.28 129.11 201.553L127.818 201.38Z" fill="#283037"/>
<path d="M231.718 131.052H230.083V193.117H231.718V131.052Z" fill="#0A1111"/>
<path d="M255.218 186.403C255.218 186.403 254.874 189.588 255.132 191.051C255.391 192.515 271.184 191.537 271.68 190.347C272.176 189.157 273.635 160.983 269.979 152.431C266.323 143.879 258.647 133.811 241.056 127.64C222.077 120.981 207.514 119.72 207.514 119.72L207.96 127.523C207.96 127.523 226.553 129.761 241.187 138.542C255.821 147.322 257.026 148.699 255.218 186.403Z" fill="#0547AC" stroke="#1A2314" stroke-width="0.75" stroke-miterlimit="10"/>
<path d="M211.747 139.66C215.265 139.66 218.117 136.886 218.117 133.463C218.117 130.04 215.265 127.265 211.747 127.265C208.229 127.265 205.377 130.04 205.377 133.463C205.377 136.886 208.229 139.66 211.747 139.66Z" fill="#696C78" stroke="black" stroke-width="11" stroke-miterlimit="10"/>
<g opacity="0.5">
<path d="M162.011 126.452L147.684 162.994C142.58 163.391 139.098 163.774 136.746 164.096L150.393 129.285C150.414 129.279 150.435 129.272 150.455 129.267C153.547 128.323 157.6 127.364 162.011 126.452Z" fill="white"/>
<path d="M175.377 123.971L160.395 162.188C156.236 162.405 152.676 162.628 149.629 162.848L164.061 126.036C167.766 125.298 171.65 124.599 175.377 123.971Z" fill="white"/>
</g>
<path d="M146.842 162.644L182.824 154.122" stroke="black" stroke-width="11" stroke-miterlimit="10"/>
<path d="M258.643 169.175C258.084 187.568 258.084 186.051 258.084 186.051C258.084 186.051 252.122 184.8 249.979 190.247C247.836 195.693 248.209 213.461 247.836 218.015C247.464 222.569 248.861 230.337 239.359 232.033C234.294 232.937 231.479 233.283 229.954 233.41C229.343 233.451 228.756 233.668 228.265 234.035C227.774 234.401 227.399 234.902 227.186 235.477C226.632 237.061 226.201 239.496 226.69 242.569C226.69 242.569 216.629 246.855 202.843 246.587L206.941 124.979L218.4 126.496C218.4 126.496 245.228 135.425 251.376 140.693C257.525 145.961 259.201 150.782 258.643 169.175Z" fill="#4B413F"/>
<g opacity="0.35">
<path d="M209.539 170.426C209.317 169.173 209.168 167.908 209.092 166.638C209.047 165.996 209.061 165.352 209.133 164.713C209.155 164.549 209.189 164.386 209.234 164.227C209.247 164.185 209.258 164.145 209.273 164.105L209.323 163.983C209.361 163.903 209.406 163.826 209.457 163.754C209.644 163.489 209.836 163.238 210.03 162.985C211.588 160.974 213.19 159 214.833 157.061C215.652 156.089 216.479 155.123 217.324 154.172C218.169 153.221 219.022 152.276 219.906 151.354C220.348 150.893 220.8 150.441 221.274 150.003C221.511 149.783 221.753 149.568 222.011 149.361C222.14 149.258 222.275 149.157 222.42 149.06L222.532 148.989L222.656 148.92C222.698 148.898 222.748 148.877 222.794 148.856C222.836 148.838 222.871 148.826 222.91 148.812C224.122 148.356 225.347 148.001 226.582 147.671C229.053 147.027 231.553 146.52 234.065 146.104C234.692 145.993 235.323 145.905 235.952 145.812C236.582 145.719 237.211 145.621 237.843 145.547L239.737 145.308C240.369 145.238 241.002 145.176 241.635 145.11C246.694 144.601 251.776 144.348 256.861 144.354L254.96 144.48L253.06 144.598L249.265 144.888L247.37 145.061L246.423 145.146L245.949 145.19L245.476 145.241C244.216 145.384 242.953 145.495 241.697 145.664C239.18 145.965 236.674 146.334 234.18 146.771C231.686 147.204 229.205 147.713 226.765 148.362C225.545 148.681 224.327 149.029 223.16 149.462C223.125 149.476 223.084 149.49 223.053 149.502C223.028 149.515 223.004 149.524 222.976 149.538L222.89 149.586L222.802 149.642C222.683 149.721 222.562 149.809 222.443 149.904C222.205 150.093 221.971 150.298 221.741 150.509C221.281 150.931 220.835 151.376 220.39 151.824C218.62 153.626 216.938 155.527 215.255 157.423C214.416 158.374 213.589 159.336 212.76 160.296C211.931 161.256 211.11 162.224 210.304 163.201C210.103 163.444 209.899 163.69 209.71 163.937C209.668 163.992 209.63 164.051 209.597 164.113L209.553 164.211C209.539 164.244 209.528 164.28 209.516 164.314C209.468 164.458 209.432 164.606 209.406 164.755C209.314 165.376 209.275 166.004 209.289 166.631C209.292 167.263 209.324 167.896 209.368 168.529C209.413 169.161 209.466 169.795 209.539 170.426Z" fill="#291D21"/>
<path d="M245.968 137.39C245.41 137.423 244.856 137.489 244.301 137.55C243.746 137.611 243.191 137.675 242.638 137.743C241.529 137.879 240.422 138.017 239.317 138.17C238.211 138.317 237.106 138.474 236.003 138.639C234.9 138.806 233.798 138.972 232.698 139.157C230.501 139.531 228.307 139.924 226.14 140.42C225.056 140.669 223.977 140.93 222.913 141.238C221.853 141.533 220.813 141.898 219.8 142.331C219.306 142.541 218.831 142.794 218.38 143.086C218.166 143.226 217.967 143.388 217.786 143.568C217.742 143.608 217.696 143.663 217.651 143.712L217.515 143.864C217.423 143.963 217.336 144.068 217.249 144.174C216.554 145.026 215.921 145.927 215.356 146.87C214.214 148.772 213.219 150.757 212.378 152.809C211.95 153.834 211.563 154.875 211.202 155.926C210.841 156.977 210.518 158.042 210.235 159.118C209.648 161.269 209.266 163.47 209.092 165.693C209.092 163.456 209.414 161.223 209.894 159.035C210.14 157.94 210.43 156.856 210.757 155.782C211.083 154.708 211.457 153.649 211.86 152.601C211.963 152.34 212.063 152.077 212.171 151.818C212.279 151.559 212.383 151.297 212.495 151.04C212.606 150.782 212.719 150.525 212.837 150.269L213.012 149.886L213.193 149.505C213.679 148.491 214.2 147.492 214.777 146.521C214.923 146.28 215.065 146.036 215.221 145.8L215.451 145.444L215.69 145.092C215.768 144.975 215.85 144.859 215.934 144.744C216.017 144.63 216.098 144.513 216.184 144.399C216.357 144.174 216.527 143.946 216.712 143.728C216.803 143.618 216.893 143.507 216.99 143.401L217.133 143.24C217.181 143.187 217.225 143.134 217.284 143.078C217.497 142.863 217.732 142.67 217.984 142.502C218.468 142.183 218.98 141.907 219.513 141.678C220.557 141.238 221.629 140.867 222.722 140.568C223.806 140.263 224.897 139.995 225.995 139.763C227.092 139.53 228.193 139.321 229.297 139.129C230.4 138.937 231.506 138.765 232.614 138.609C234.829 138.292 237.052 138.038 239.277 137.824C240.39 137.722 241.504 137.625 242.619 137.548C243.734 137.474 244.851 137.396 245.968 137.39Z" fill="#291D21"/>
<path d="M237.559 134.028C235.679 134.239 233.802 134.455 231.928 134.697C230.991 134.814 230.055 134.936 229.119 135.069C228.184 135.201 227.25 135.332 226.318 135.479C224.456 135.776 222.596 136.086 220.761 136.492C219.845 136.697 218.931 136.911 218.036 137.175C217.588 137.306 217.145 137.448 216.711 137.608C216.281 137.763 215.862 137.946 215.456 138.155C215.259 138.256 215.07 138.369 214.888 138.494L214.759 138.588L214.639 138.688C214.599 138.723 214.56 138.759 214.523 138.797C214.484 138.834 214.446 138.871 214.409 138.912C214.107 139.246 213.836 139.608 213.601 139.992C213.116 140.785 212.681 141.608 212.299 142.456C211.508 144.155 210.844 145.919 210.194 147.688C209.872 148.574 209.566 149.467 209.262 150.36C208.957 151.253 208.662 152.15 208.373 153.049C207.788 154.845 207.232 156.652 206.682 158.462C207.079 156.611 207.545 154.777 208.036 152.949C208.287 152.036 208.546 151.126 208.815 150.218C209.084 149.31 209.372 148.407 209.667 147.506C209.816 147.056 209.967 146.607 210.123 146.159C210.279 145.711 210.443 145.266 210.609 144.821C210.944 143.932 211.296 143.048 211.684 142.176C212.068 141.296 212.512 140.442 213.011 139.621C213.267 139.197 213.563 138.799 213.894 138.43C213.935 138.383 213.982 138.337 214.028 138.292C214.074 138.247 214.118 138.201 214.171 138.158C214.223 138.116 214.271 138.071 214.322 138.03L214.478 137.915C214.685 137.77 214.901 137.639 215.125 137.523C215.56 137.302 216.009 137.109 216.47 136.946C216.924 136.782 217.382 136.638 217.842 136.506C218.763 136.243 219.69 136.023 220.622 135.833C221.554 135.644 222.489 135.479 223.426 135.329C224.362 135.176 225.302 135.048 226.242 134.929C228.121 134.688 230.006 134.504 231.892 134.35C233.779 134.205 235.668 134.082 237.559 134.028Z" fill="#291D21"/>
<path d="M233.111 131.407C231.651 131.709 230.184 131.963 228.723 132.243C227.26 132.514 225.8 132.793 224.342 133.082C222.887 133.379 221.431 133.669 219.989 134.011C219.267 134.179 218.548 134.353 217.834 134.543C217.12 134.733 216.413 134.94 215.721 135.178C215.547 135.234 215.377 135.298 215.206 135.361C215.033 135.421 214.868 135.492 214.701 135.56C214.531 135.625 214.376 135.708 214.213 135.782C214.132 135.818 214.06 135.864 213.983 135.905C213.906 135.945 213.831 135.989 213.759 136.037C213.173 136.445 212.639 136.923 212.17 137.461C211.184 138.538 210.325 139.748 209.482 140.962C209.062 141.572 208.66 142.195 208.259 142.819C207.857 143.442 207.465 144.073 207.079 144.708C206.301 145.974 205.55 147.259 204.806 148.549C205.409 147.186 206.079 145.854 206.774 144.534C207.479 143.219 208.214 141.919 209.016 140.656C209.217 140.341 209.418 140.024 209.626 139.713C209.73 139.557 209.836 139.402 209.944 139.249C210.052 139.096 210.157 138.94 210.269 138.789C210.707 138.18 211.166 137.581 211.666 137.009C211.795 136.869 211.92 136.726 212.053 136.589C212.19 136.454 212.319 136.315 212.464 136.185C212.608 136.054 212.746 135.921 212.903 135.802C212.98 135.741 213.054 135.678 213.134 135.619L213.382 135.45C213.464 135.394 213.549 135.343 213.637 135.296C213.724 135.249 213.809 135.195 213.897 135.154C214.073 135.072 214.246 134.98 214.424 134.91C214.6 134.836 214.777 134.76 214.955 134.696C215.133 134.629 215.311 134.56 215.49 134.502C216.208 134.261 216.931 134.055 217.657 133.868C218.383 133.682 219.11 133.505 219.842 133.353C220.573 133.198 221.305 133.053 222.039 132.917C222.406 132.848 222.773 132.781 223.14 132.717L224.244 132.535C224.98 132.417 225.716 132.3 226.454 132.196C227.192 132.092 227.93 131.993 228.669 131.898C230.148 131.714 231.628 131.551 233.111 131.407Z" fill="#291D21"/>
<path d="M206.146 140.247C206.215 140.006 206.306 139.772 206.397 139.539C206.493 139.307 206.595 139.078 206.703 138.851C206.917 138.397 207.164 137.959 207.423 137.526C207.948 136.665 208.545 135.849 209.205 135.086C210.534 133.559 212.073 132.227 213.775 131.13C214.626 130.586 215.508 130.092 216.417 129.651C216.644 129.542 216.876 129.443 217.105 129.338C217.335 129.233 217.564 129.13 217.8 129.041L218.503 128.764C218.737 128.672 218.978 128.598 219.215 128.515C221.113 127.862 223.079 127.425 225.075 127.211C223.149 127.698 221.257 128.308 219.41 129.037C218.492 129.401 217.598 129.819 216.717 130.258C216.285 130.492 215.843 130.71 215.423 130.965L215.103 131.149L214.943 131.241L214.787 131.338L214.163 131.73C212.509 132.795 210.984 134.047 209.616 135.46C209.446 135.638 209.281 135.82 209.113 136L208.628 136.558C208.312 136.936 208.001 137.32 207.712 137.72C207.417 138.116 207.138 138.525 206.875 138.946C206.608 139.366 206.365 139.8 206.146 140.247Z" fill="#291D21"/>
</g>
<path d="M240.509 155.47H262.285V171.72H228.669V167.31C228.669 164.17 229.916 161.158 232.137 158.938C234.357 156.717 237.369 155.47 240.509 155.47Z" fill="#291D21"/>
<path d="M241.246 156.675H259.792V170.515H231.162V166.759C231.162 164.085 232.225 161.52 234.116 159.629C236.007 157.738 238.572 156.675 241.246 156.675Z" fill="#BAE3E9" stroke="#1B2115" stroke-width="4" stroke-miterlimit="10"/>
<path d="M202.753 189.622L204.539 190.336V170.068L258.736 169.354V206.14H199.003V189.711L202.753 189.622Z" fill="#1B2115"/>
<path d="M208.914 189.622H259.45L248.399 203.608L191.949 203.372L199.271 188.193L208.914 189.622Z" fill="#080F0F"/>
<path d="M249.9 198.818H198.464C196.937 198.818 195.7 200.056 195.7 201.583V203.643C195.7 205.17 196.937 206.408 198.464 206.408H249.9C251.427 206.408 252.664 205.17 252.664 203.643V201.583C252.664 200.056 251.427 198.818 249.9 198.818Z" fill="#182223"/>
<path d="M203.914 193.104H230.668C231.292 193.104 231.891 193.352 232.332 193.793C232.773 194.235 233.021 194.833 233.021 195.457V206.255H251.682V228.104C251.682 228.104 249.45 231.587 242.307 233.104C235.164 234.622 228.646 234.265 228.2 238.015C227.753 241.765 228.468 244.622 225.7 244.979C222.932 245.337 201.771 249.622 201.771 249.622L203.914 193.104Z" fill="#69C81D" stroke="#1B2115" stroke-width="5" stroke-miterlimit="10"/>
<path d="M232.039 222.747L252.218 222.569C252.218 222.569 245.432 235.159 233.289 235.159C228.229 235.158 232.039 222.747 232.039 222.747Z" fill="#1B2115"/>
<path opacity="0.72" d="M227.753 238.729C227.753 238.729 219.985 246.449 203.646 240.273C203.646 240.273 202.753 213.086 221.414 208.283L215.611 204.354L200.61 203.551L201.771 249.623L228.468 244.047L227.753 238.729Z" fill="#283037"/>
<path opacity="0.72" d="M209.224 217.889C209.927 217.841 210.631 217.806 211.334 217.772C212.037 217.743 212.741 217.709 213.444 217.688C214.147 217.664 214.851 217.639 215.554 217.625C216.257 217.611 216.96 217.587 217.664 217.58L217.969 217.577L217.973 217.889L218.007 220.282C218.013 221.08 218.019 221.878 218.019 222.675C218.022 224.271 218.013 225.866 217.993 227.461C217.973 229.057 217.937 230.652 217.885 232.247L217.845 233.444L217.794 234.64C217.759 235.438 217.717 236.236 217.664 237.033C217.611 236.236 217.569 235.438 217.534 234.64L217.483 233.444L217.443 232.247C217.392 230.652 217.356 229.057 217.334 227.461C217.313 225.866 217.304 224.271 217.308 222.675C217.308 221.878 217.314 221.08 217.321 220.282L217.354 217.889L217.664 218.199C216.96 218.192 216.257 218.168 215.554 218.153C214.85 218.138 214.147 218.114 213.444 218.09C212.741 218.07 212.037 218.035 211.334 218.007C210.631 217.972 209.927 217.937 209.224 217.889Z" fill="#283037"/>
<path d="M232.665 172.702H205.521V173.327H232.665V172.702Z" fill="#0A1111"/>
<path d="M232.665 178.416H203.021V179.041H232.665V178.416Z" fill="#0A1111"/>
<path d="M232.665 185.648H205.075V186.273H232.665V185.648Z" fill="#0A1111"/>
<path d="M232.665 153.104H205.521V153.729H232.665V153.104Z" fill="#0A1111"/>
<path d="M232.665 158.818H203.021V159.443H232.665V158.818Z" fill="#0A1111"/>
<path d="M232.665 166.05H205.075V166.675H232.665V166.05Z" fill="#0A1111"/>
<path d="M232.665 135.246H205.521V135.871H232.665V135.246Z" fill="#0A1111"/>
<path d="M232.665 140.96H203.021V141.585H232.665V140.96Z" fill="#0A1111"/>
<path d="M232.665 148.193H205.075V148.818H232.665V148.193Z" fill="#0A1111"/>
<path d="M232.664 128.55H205.075V129.175H232.664V128.55Z" fill="#0A1111"/>
<path d="M273.647 160.514C272.664 141.05 258.557 130.96 239.093 124.531C219.628 118.103 202.396 115.156 180.431 116.228C158.467 117.299 144.181 127.21 144.181 127.21C144.181 127.21 136.77 144.264 129.984 160.692C123.199 177.121 124.359 195.514 122.127 202.121C119.895 208.729 124.365 228.062 124.365 228.062L161.145 248.729C167.396 249.265 174.089 254.958 176.771 254.801C181.324 254.533 227.485 245.693 229.003 244.711C230.521 243.729 229.003 238.104 229.003 238.104L273.825 227.032C273.825 227.032 274.629 179.979 273.647 160.514ZM200.699 152.567C200.164 159.978 198.199 159.889 198.199 159.889C154.896 160.157 129.406 164.091 129.406 164.091L143.399 129.111C150.562 124.763 189.36 119.085 194.628 118.728C199.896 118.371 201.414 121.764 202.039 124.532C202.664 127.299 201.235 145.157 200.699 152.568V152.567ZM257.575 169.532C257.039 187.925 257.039 186.407 257.039 186.407C257.039 186.407 251.325 185.157 249.271 190.603C247.217 196.05 247.574 213.818 247.217 218.372C246.86 222.925 248.199 230.693 239.093 232.39C234.238 233.294 231.54 233.639 230.078 233.766C229.483 233.815 228.914 234.037 228.443 234.404C227.972 234.771 227.618 235.268 227.425 235.833C226.893 237.417 226.481 239.852 226.95 242.925C226.95 242.925 217.307 247.211 204.092 246.943L208.021 125.335L219.003 126.853C219.003 126.853 244.718 135.782 250.611 141.049C256.504 146.317 258.111 151.14 257.575 169.533V169.532Z" fill="url(#paint4_linear_1_1829)"/>
<path d="M200.765 152.631C200.228 160.055 198.26 159.966 198.26 159.966C186.739 160.2 177.117 160.493 169.088 160.816C169.076 160.817 169.064 160.817 169.052 160.818C165.249 160.97 161.804 161.129 158.684 161.292C154.371 161.517 150.678 161.748 147.518 161.976C146.82 162.027 146.147 162.077 145.501 162.127C140.207 162.539 136.595 162.936 134.155 163.27C132.402 163.51 131.253 163.717 130.519 163.872H130.518C130.118 163.946 129.725 164.047 129.339 164.176L143.357 129.132C144.088 128.688 145.148 128.231 146.468 127.766C147.035 127.566 147.651 127.365 148.31 127.164C148.331 127.157 148.353 127.15 148.374 127.144C151.581 126.166 155.785 125.171 160.36 124.224C161.061 124.079 161.77 123.935 162.487 123.793C166.33 123.028 170.359 122.303 174.225 121.651C179.289 120.799 184.075 120.076 187.8 119.558C188.415 119.473 189 119.394 189.555 119.319C191.994 118.996 193.803 118.789 194.681 118.729C199.959 118.371 201.48 121.77 202.106 124.543C202.732 127.316 201.301 145.206 200.765 152.631Z" fill="#BAE3E9" stroke="black" stroke-width="14" stroke-miterlimit="10"/>
<path d="M188.754 163.64H172.288C171.46 163.64 170.789 164.311 170.789 165.139V169.194C170.789 170.022 171.46 170.693 172.288 170.693H188.754C189.582 170.693 190.253 170.022 190.253 169.194V165.139C190.253 164.311 189.582 163.64 188.754 163.64Z" fill="#B42E21"/>
<path d="M182.217 165.139V169.194C182.217 170.022 182.494 170.693 182.836 170.693H189.634C189.977 170.693 190.253 170.022 190.253 169.194V165.139C190.253 164.311 189.976 163.64 189.634 163.64H182.836C182.494 163.64 182.217 164.311 182.217 165.139Z" fill="#AB917B"/>
<path d="M126.13 174.365L133.02 174.533L133.189 180.289L131.949 180.158L132.038 176.676H125.342L126.13 174.365Z" fill="#0A1111"/>
<path d="M142.306 180.336L143.556 173.461C143.556 173.461 166.414 173.55 168.199 173.818C169.985 174.086 170.074 174.265 175.253 174.265C180.432 174.265 206.325 174.354 206.325 174.354L144.003 176.229L143.735 180.336H142.306Z" fill="#0A1111"/>
<path d="M131.324 213.283L142.038 212.926" stroke="black" stroke-width="4" stroke-miterlimit="10"/>
<path d="M191.172 196.826C191.088 197.322 190.959 197.81 190.788 198.283C190.076 200.064 162.889 206.745 159.085 209.501C159.058 209.545 159.039 209.593 159.027 209.642C158.345 212.138 161.304 238.945 162.221 247.047C162.385 248.503 162.484 249.354 162.484 249.354L156.591 246.497L140.788 233.819L129.406 227.054C131.239 211.539 126.574 202.167 126.234 202.122C124.18 201.854 121.948 204.533 121.055 204.354C120.162 204.175 117.841 201.943 116.412 196.765C114.983 191.586 117.411 180.425 118.555 180.425C118.771 180.425 119.505 180.423 120.649 180.417C123.473 181.723 135.252 183.555 143.109 183.372C153.496 183.13 172.061 179.946 172.752 179.89C176.055 179.622 185.163 177.032 188.913 181.407C192.114 185.14 191.868 193.166 191.172 196.826Z" fill="#0A1111"/>
<path d="M150.163 256.944C150.163 256.944 154.896 255.962 157.753 258.819C157.753 258.819 156.592 248.194 154.36 244.444C152.128 240.694 139.36 239.444 137.128 242.033L150.163 256.944Z" fill="black"/>
<path d="M133.467 277.685C143.527 277.685 151.681 268.745 151.681 257.716C151.681 246.688 143.527 237.748 133.467 237.748C123.407 237.748 115.253 246.688 115.253 257.716C115.253 268.745 123.407 277.685 133.467 277.685Z" fill="#2F2F2F"/>
<path d="M136.681 274.712C144.966 274.712 151.681 266.997 151.681 257.48C151.681 247.963 144.966 240.248 136.681 240.248C128.397 240.248 121.681 247.963 121.681 257.48C121.681 266.997 128.397 274.712 136.681 274.712Z" fill="#111C1A"/>
<path d="M136.681 263.64C139.887 263.64 142.485 260.582 142.485 256.81C142.485 253.038 139.887 249.979 136.681 249.979C133.476 249.979 130.878 253.038 130.878 256.81C130.878 260.582 133.476 263.64 136.681 263.64Z" fill="#696C78"/>
<path d="M162.574 249.265L154.717 248.998C154.717 248.998 154.271 224.802 138.021 225.962C121.77 227.122 121.592 229.533 121.592 229.533L124.449 225.962C124.449 225.962 135.342 221.051 145.789 225.158C156.235 229.265 161.682 245.962 162.574 249.265Z" fill="#2B2B2B"/>
<path d="M156.414 248.819C152.107 243.599 146.681 241.855 146.681 241.855L130.494 241.734L115.95 241.625C115.353 241.621 114.768 241.456 114.256 241.147C113.745 240.839 113.326 240.398 113.044 239.872C112.762 239.345 112.627 238.753 112.653 238.156C112.679 237.559 112.865 236.981 113.192 236.481C118.099 228.993 128.654 222.605 141.056 225.158C156.235 228.283 156.414 248.819 156.414 248.819Z" fill="url(#paint5_linear_1_1829)"/>
<path d="M137.038 145.515C140.688 145.515 143.646 142.636 143.646 139.086C143.646 135.535 140.688 132.657 137.038 132.657C133.389 132.657 130.431 135.535 130.431 139.086C130.431 142.636 133.389 145.515 137.038 145.515Z" fill="#696C78" stroke="black" stroke-width="11" stroke-miterlimit="10"/>
<path d="M267.843 219.89C267.843 219.89 279.361 215.872 277.04 228.551C274.894 240.272 267.397 242.569 267.397 242.569L267.843 219.89Z" fill="black"/>
<path d="M277.04 233.595C277.04 241.167 273.389 247.432 268.636 248.484C268.17 248.588 267.695 248.64 267.218 248.64C261.794 248.64 257.397 241.904 257.397 233.595C257.397 225.286 261.794 218.55 267.218 218.55C268.652 218.55 270.014 219.021 271.242 219.866C274.659 222.221 277.04 227.483 277.04 233.595Z" fill="#2F2F2F"/>
<path d="M277.04 233.595C277.04 241.167 273.505 247.432 268.903 248.484C265.594 246.13 263.289 240.868 263.289 234.756C263.289 227.185 266.824 220.919 271.426 219.867C274.735 222.221 277.04 227.483 277.04 233.595Z" fill="#111C1A"/>
<path d="M270.656 240.516C272.85 240.516 274.629 237.637 274.629 234.087C274.629 230.536 272.85 227.658 270.656 227.658C268.461 227.658 266.682 230.536 266.682 234.087C266.682 237.637 268.461 240.516 270.656 240.516Z" fill="#696C78"/>
<path d="M255.207 231.844L262.653 231.465C263.437 231.425 264.188 231.134 264.794 230.635C265.401 230.136 265.83 229.455 266.02 228.693C266.829 225.453 268.823 220.316 273.379 219.89C275.254 219.89 277.654 221.723 277.392 226.298C277.392 226.298 280.075 225.426 280.075 223.551C280.075 221.676 279.004 212.837 273.736 208.551C268.468 204.265 257.391 211.119 255.207 231.844Z" fill="#69C81D"/>
<path opacity="0.26" d="M262.665 226.765C262.654 226.391 262.661 226.016 262.68 225.641C262.698 225.267 262.722 224.892 262.76 224.518C262.799 224.144 262.839 223.77 262.893 223.398C262.948 223.026 263.01 222.655 263.08 222.284C263.217 221.543 263.4 220.81 263.61 220.084C263.825 219.356 264.081 218.642 264.377 217.943C264.962 216.525 265.78 215.214 266.796 214.065C267.314 213.49 267.897 212.978 268.534 212.538C268.854 212.321 269.187 212.123 269.531 211.945C269.877 211.772 270.233 211.62 270.597 211.49L270.613 211.485L270.617 211.484C271.204 211.33 271.819 211.325 272.408 211.469C272.975 211.616 273.512 211.863 273.993 212.196C274.463 212.521 274.892 212.901 275.272 213.328C275.459 213.54 275.635 213.761 275.8 213.991C275.962 214.221 276.108 214.461 276.236 214.712C275.909 214.262 275.535 213.849 275.12 213.479C274.716 213.109 274.272 212.785 273.796 212.513C273.335 212.242 272.831 212.054 272.306 211.954C271.799 211.858 271.276 211.889 270.784 212.046L270.804 212.04C270.471 212.178 270.146 212.334 269.829 212.506C269.515 212.683 269.212 212.876 268.919 213.085C268.629 213.299 268.349 213.526 268.082 213.768C267.816 214.012 267.562 214.269 267.322 214.538C266.367 215.642 265.58 216.88 264.985 218.213C264.677 218.879 264.41 219.565 264.168 220.262C263.921 220.958 263.716 221.669 263.524 222.385C263.146 223.825 262.859 225.289 262.665 226.765Z" fill="url(#paint6_linear_1_1829)"/>
<path d="M166.369 201.587C172.015 201.587 176.592 197.129 176.592 191.631C176.592 186.133 172.015 181.676 166.369 181.676C160.723 181.676 156.146 186.133 156.146 191.631C156.146 197.129 160.723 201.587 166.369 201.587Z" fill="#0E1919"/>
<path d="M168.378 200.872C172.914 200.872 176.592 196.795 176.592 191.765C176.592 186.735 172.914 182.658 168.378 182.658C163.841 182.658 160.163 186.735 160.163 191.765C160.163 196.795 163.841 200.872 168.378 200.872Z" fill="#71646D"/>
<path d="M167.773 198.55C170.819 198.55 173.289 195.512 173.289 191.765C173.289 188.017 170.819 184.979 167.773 184.979C164.727 184.979 162.257 188.017 162.257 191.765C162.257 195.512 164.727 198.55 167.773 198.55Z" fill="#FFFBFF"/>
<path d="M169.831 196.854C171.67 196.854 173.16 195.155 173.16 193.059C173.16 190.964 171.67 189.265 169.831 189.265C167.993 189.265 166.503 190.964 166.503 193.059C166.503 195.155 167.993 196.854 169.831 196.854Z" fill="#DCDAD9"/>
<path d="M122.976 202.837C126.797 202.837 129.895 198.24 129.895 192.569C129.895 186.898 126.797 182.301 122.976 182.301C119.154 182.301 116.056 186.898 116.056 192.569C116.056 198.24 119.154 202.837 122.976 202.837Z" fill="#0E1919"/>
<path d="M120.476 201.587C122.769 201.587 124.628 197.509 124.628 192.479C124.628 187.45 122.769 183.372 120.476 183.372C118.183 183.372 116.324 187.45 116.324 192.479C116.324 197.509 118.183 201.587 120.476 201.587Z" fill="#71646D"/>
<path d="M120.476 198.257C121.93 198.257 123.109 195.67 123.109 192.479C123.109 189.288 121.93 186.702 120.476 186.702C119.021 186.702 117.842 189.288 117.842 192.479C117.842 195.67 119.021 198.257 120.476 198.257Z" fill="#FFFBFF"/>
<path d="M121.458 196.102C122.37 196.102 123.11 194.48 123.11 192.479C123.11 190.478 122.37 188.856 121.458 188.856C120.546 188.856 119.806 190.478 119.806 192.479C119.806 194.48 120.546 196.102 121.458 196.102Z" fill="#DCDAD9"/>
<path d="M126.235 183.372C126.235 183.372 131.681 189.175 129.591 196.652C128.27 201.377 132.72 200.092 139.392 200.16L139.398 200.183C139.398 200.183 141.346 200.197 144.03 200.125C146.714 200.064 162.91 200.057 158.735 197.48C151.582 193.064 160.699 183.283 160.699 183.283C139.449 188.104 132.127 185.515 126.235 183.372Z" fill="#283037"/>
<path d="M143.735 171.318H131.681V180.336H143.735V171.318Z" fill="#0A1111"/>
<path d="M200.993 149.543C200.907 150.694 200.829 151.739 200.765 152.632C200.228 160.056 198.26 159.966 198.26 159.966C186.739 160.2 177.117 160.493 169.088 160.816C169.076 160.817 169.064 160.817 169.052 160.818C142.507 161.884 133.377 163.268 130.52 163.872H130.518C130.119 163.946 129.725 164.047 129.34 164.176L140.653 135.893C156.207 136.182 180.761 138.613 200.993 149.543Z" fill="#DAF2F6"/>
<path d="M200.993 149.543C180.761 138.613 156.206 136.182 140.653 135.894L142.626 130.962C142.883 130.319 143.27 129.736 143.762 129.249C144.254 128.762 144.841 128.381 145.486 128.129C145.795 128.008 146.123 127.887 146.47 127.765C147.056 127.56 147.693 127.352 148.376 127.144C158.163 124.157 177.244 121.022 187.802 119.558C188.417 119.473 189.002 119.393 189.557 119.318C191.996 118.995 193.805 118.788 194.683 118.728C199.961 118.37 201.482 121.77 202.108 124.543C202.658 126.982 201.616 141.121 200.993 149.543Z" fill="#B0DFE5"/>
<path opacity="0.19" d="M189.511 119.318L169.081 160.737L168.639 161.633L169.046 160.739L187.759 119.556C188.373 119.472 188.957 119.392 189.511 119.318Z" fill="black"/>
<path opacity="0.19" d="M148.407 127.128L130.586 163.789L130.57 163.819L130.584 163.789L146.505 127.749C147.089 127.543 147.726 127.336 148.407 127.128Z" fill="black"/>
<path d="M133.913 204.979L144.628 204.89" stroke="#555661" stroke-width="8" stroke-miterlimit="10"/>
<path d="M133.913 207.301L144.271 207.033" stroke="#555661" stroke-width="8" stroke-miterlimit="10"/>
<path d="M134.36 209.533L143.913 209.444" stroke="#555661" stroke-width="8" stroke-miterlimit="10"/>
<path opacity="0.38" d="M191.172 196.827C191.172 197.48 190.969 198.118 190.592 198.652C190.214 199.186 189.68 199.589 189.064 199.807C183.317 201.837 167.535 207.571 163.467 210.694C158.5 214.508 162.521 248.81 162.574 249.261C162.563 249.195 162.432 248.389 162.222 247.048C161.305 238.945 158.346 212.139 159.028 209.643C159.047 209.594 159.066 209.547 159.086 209.502C162.89 206.746 190.076 200.064 190.789 198.283C190.96 197.81 191.088 197.323 191.172 196.827Z" fill="#283037"/>
<path d="M227.129 208.64C226.169 208.788 225.209 208.865 224.249 208.92C223.289 208.973 222.329 208.998 221.369 208.997C220.41 208.998 219.45 208.973 218.49 208.921C217.53 208.866 216.57 208.789 215.61 208.64C216.57 208.491 217.53 208.415 218.49 208.359C219.45 208.307 220.41 208.282 221.369 208.283C222.329 208.285 223.289 208.311 224.249 208.36C225.209 208.416 226.169 208.492 227.129 208.64Z" fill="#1B2115"/>
<path d="M205.54 203.86C206.822 203.818 230.248 204.979 230.248 204.979L231.504 207.391L227.727 209.66L205.223 209.623L205.54 203.86Z" fill="#283037"/>
<path opacity="0.53" d="M229.896 195.426C229.963 196.222 230.011 197.018 230.052 197.814C230.075 198.211 230.09 198.61 230.106 199.008C230.123 199.406 230.141 199.804 230.153 200.203C230.181 200.999 230.2 201.795 230.216 202.591C230.233 203.387 230.242 204.183 230.248 204.979L230.25 205.329L229.896 205.331C228.862 205.337 227.828 205.337 226.793 205.329C225.759 205.322 224.724 205.304 223.691 205.28C222.657 205.256 221.622 205.217 220.588 205.17C219.554 205.121 218.519 205.068 217.485 204.979C218.519 204.89 219.554 204.836 220.588 204.787C221.622 204.741 222.657 204.702 223.691 204.677C224.724 204.652 225.759 204.635 226.793 204.628C227.827 204.621 228.862 204.619 229.896 204.626L229.544 204.978C229.55 204.181 229.561 203.385 229.576 202.589C229.592 201.793 229.611 200.997 229.639 200.201C229.651 199.803 229.669 199.405 229.685 199.007C229.702 198.608 229.717 198.21 229.74 197.812C229.782 197.018 229.83 196.222 229.896 195.426Z" fill="#00A87A"/>
<path opacity="0.72" d="M226.235 216.448C226.403 217.904 226.501 219.368 226.578 220.832C226.614 221.565 226.637 222.298 226.656 223.031C226.675 223.765 226.676 224.499 226.674 225.233C226.671 226.702 226.608 228.172 226.499 229.641C226.444 230.376 226.363 231.109 226.266 231.841C226.169 232.574 226.05 233.305 225.894 234.032C225.818 234.396 225.724 234.757 225.626 235.117C225.524 235.477 225.41 235.835 225.28 236.19C225.148 236.547 224.994 236.896 224.819 237.234C224.641 237.584 224.422 237.912 224.167 238.21C224.097 238.283 224.032 238.359 223.957 238.429L223.843 238.532L223.786 238.583L223.724 238.631C223.566 238.749 223.401 238.857 223.231 238.956C223.15 239.009 223.064 239.051 222.98 239.097L222.726 239.23C222.553 239.31 222.38 239.389 222.205 239.463C221.854 239.604 221.495 239.724 221.13 239.822C220.948 239.87 220.766 239.918 220.582 239.954L220.307 240.011L220.03 240.059C218.563 240.286 217.073 240.331 215.594 240.193C214.86 240.128 214.128 240.039 213.405 239.912C212.681 239.791 211.963 239.633 211.255 239.438C211.617 239.499 211.979 239.551 212.342 239.596C212.704 239.643 213.067 239.683 213.431 239.716C214.158 239.784 214.886 239.83 215.613 239.843C216.339 239.86 217.066 239.85 217.788 239.796C218.506 239.748 219.221 239.653 219.927 239.511L220.19 239.456L220.451 239.391C220.625 239.351 220.795 239.298 220.965 239.247C221.304 239.145 221.637 239.025 221.963 238.886C222.124 238.815 222.282 238.738 222.44 238.661L222.668 238.533C222.744 238.49 222.822 238.451 222.894 238.401C223.038 238.312 223.177 238.216 223.31 238.113L223.357 238.076L223.401 238.034L223.488 237.951C223.547 237.896 223.598 237.83 223.654 237.77C224.08 237.259 224.38 236.612 224.625 235.95C224.745 235.616 224.85 235.275 224.945 234.931C225.037 234.584 225.123 234.236 225.197 233.883C225.492 232.463 225.703 231.028 225.827 229.583C225.973 228.136 226.051 226.679 226.119 225.221C226.151 224.492 226.17 223.762 226.19 223.032C226.211 222.302 226.223 221.571 226.23 220.84C226.25 219.377 226.246 217.913 226.235 216.448Z" fill="#283037"/>
<path opacity="0.55" d="M273.736 208.551C273.151 208.137 272.493 207.838 271.796 207.67C271.11 207.513 270.401 207.482 269.704 207.577C269.357 207.622 269.015 207.691 268.678 207.785C268.342 207.882 268.013 207.999 267.691 208.136C267.048 208.414 266.434 208.755 265.859 209.155L265.644 209.306L265.433 209.464C265.291 209.567 265.156 209.68 265.019 209.79C264.883 209.9 264.751 210.017 264.617 210.13C264.487 210.249 264.355 210.365 264.227 210.486C263.716 210.972 263.234 211.488 262.783 212.03C262.332 212.573 261.905 213.139 261.509 213.725C261.11 214.31 260.735 214.913 260.385 215.532C258.985 218.007 257.939 220.682 257.11 223.424C256.286 226.171 255.7 228.993 255.208 231.844C255.324 228.941 255.737 226.058 256.438 223.239C257.143 220.416 258.163 217.649 259.609 215.091C259.974 214.454 260.363 213.83 260.784 213.226C261.205 212.621 261.657 212.039 262.14 211.482C263.102 210.352 264.227 209.372 265.479 208.575C265.634 208.473 265.799 208.385 265.958 208.29C266.123 208.203 266.284 208.11 266.453 208.031C266.786 207.864 267.129 207.718 267.48 207.593C267.833 207.47 268.192 207.369 268.557 207.29C268.923 207.213 269.293 207.163 269.666 207.143C270.039 207.123 270.412 207.138 270.782 207.186C271.15 207.232 271.513 207.315 271.864 207.434C272.559 207.671 273.197 208.052 273.736 208.551L273.736 208.551Z" fill="#283037"/>
<path d="M230.253 194.341V205.782L227.293 208.528C226.895 209.124 226.685 209.826 226.691 210.543L226.95 242.926C226.95 242.926 227.27 236.124 229.744 235.373C232.218 234.622 243.825 235.604 246.861 230.336C249.897 225.068 251.727 206.273 251.727 206.273L249.405 229.577L232.262 235.112L232.977 206.273L233.07 194.302C233.065 194.087 233.01 193.875 232.909 193.685C232.809 193.494 232.667 193.329 232.493 193.202C232.319 193.075 232.118 192.989 231.906 192.952C231.694 192.915 231.476 192.926 231.269 192.987C230.976 193.072 230.719 193.25 230.535 193.494C230.352 193.738 230.253 194.035 230.253 194.341Z" fill="#69C81D"/>
<path opacity="0.38" d="M230.343 209.444C230.491 211.237 230.566 213.03 230.623 214.823C230.675 216.616 230.701 218.41 230.7 220.203C230.7 221.996 230.675 223.789 230.624 225.582C230.567 227.376 230.492 229.169 230.343 230.962C230.193 229.169 230.118 227.376 230.062 225.582C230.009 223.789 229.984 221.996 229.986 220.203C229.987 218.41 230.013 216.616 230.063 214.823C230.12 213.03 230.194 211.237 230.343 209.444Z" fill="#69C81D"/>
<path d="M155.499 246.813C151.193 241.593 146.681 241.855 146.681 241.855L130.494 241.734C130.453 241.696 130.431 241.676 130.431 241.676C130.431 241.676 146.818 220.61 155.499 246.813Z" fill="#69C81D"/>
<path opacity="0.38" d="M124.895 201.944L128.272 224.786L129.596 224.313C129.596 224.313 131.056 212.212 126.235 202.123L124.895 201.944Z" fill="#283037"/>
<path d="M232.664 128.997H230.968V193.372H232.664V128.997Z" fill="#0A1111"/>
<path d="M257.039 186.408C257.039 186.408 256.682 189.711 256.95 191.229C257.218 192.747 273.599 191.733 274.114 190.499C274.629 189.265 276.142 160.042 272.35 151.171C268.557 142.3 260.595 131.858 242.349 125.457C222.664 118.55 207.559 117.242 207.559 117.242L208.021 125.336C208.021 125.336 227.307 127.657 242.486 136.764C257.664 145.872 258.914 147.3 257.039 186.408Z" fill="#69C81D" stroke="#1A2314" stroke-width="0.75" stroke-miterlimit="10"/>
<path d="M211.95 137.925C215.599 137.925 218.557 135.047 218.557 131.497C218.557 127.946 215.599 125.068 211.95 125.068C208.301 125.068 205.342 127.946 205.342 131.497C205.342 135.047 208.301 137.925 211.95 137.925Z" fill="#696C78" stroke="black" stroke-width="11" stroke-miterlimit="10"/>
<g opacity="0.5">
<path d="M160.361 124.224L145.501 162.127C140.207 162.539 136.595 162.936 134.155 163.27L148.311 127.163C148.332 127.157 148.354 127.15 148.375 127.144C151.582 126.165 155.786 125.171 160.361 124.224Z" fill="white"/>
<path d="M174.225 121.651L158.685 161.291C154.371 161.516 150.678 161.748 147.518 161.975L162.488 123.793C166.331 123.028 170.359 122.303 174.225 121.651Z" fill="white"/>
</g>
<path d="M144.628 161.765L181.949 152.925" stroke="black" stroke-width="11" stroke-miterlimit="10"/>
<path d="M224.403 259.767L228.702 259.696L229.94 249.731L225.648 249.802L224.403 259.767Z" fill="#B55B52"/>
<path d="M244.924 259.446L249.095 258.172L246.504 248.727L242.333 250.008L244.924 259.446Z" fill="#B55B52"/>
<path d="M248.966 256.92L244.311 259.318C244.236 259.359 244.176 259.424 244.143 259.503C244.109 259.582 244.103 259.67 244.126 259.753L245.123 263.532C245.147 263.624 245.192 263.709 245.253 263.781C245.315 263.853 245.393 263.91 245.48 263.948C245.567 263.985 245.661 264.003 245.756 263.999C245.851 263.994 245.943 263.969 246.027 263.924C247.514 263.126 248.561 262.5 250.447 261.496C251.607 260.899 255.166 259.219 256.767 258.386C258.369 257.553 257.764 255.866 257.038 256.066C253.764 256.941 251.087 257.197 249.707 256.834C249.458 256.769 249.194 256.799 248.966 256.92Z" fill="#263238"/>
<path d="M228.788 259.197L224.097 259.276C224.012 259.277 223.931 259.308 223.866 259.362C223.801 259.417 223.757 259.492 223.741 259.575L222.951 263.404C222.93 263.496 222.931 263.592 222.953 263.684C222.975 263.776 223.018 263.862 223.079 263.935C223.139 264.008 223.216 264.066 223.302 264.105C223.389 264.143 223.483 264.162 223.577 264.158C225.271 264.101 227.713 263.966 229.841 263.931C232.325 263.895 233.051 263.995 235.969 263.931C237.728 263.931 238.19 262.108 237.45 261.959C234.076 261.247 232.759 261.247 229.834 259.496C229.517 259.308 229.156 259.205 228.788 259.197Z" fill="#263238"/>
<path d="M235.315 129.034C236.29 130.992 237.393 133.063 238.496 135.034C239.599 137.006 240.767 138.971 242.012 140.814C242.333 141.27 242.632 141.747 242.959 142.181L243.763 143.277C243.927 143.49 244.02 143.59 244.048 143.64C244.077 143.69 244.091 143.761 244.297 143.775C245.053 143.638 245.756 143.293 246.326 142.779C246.717 142.48 247.116 142.138 247.507 141.775C247.899 141.412 248.29 140.992 248.632 140.658L251.472 142.238C251.235 142.866 250.954 143.478 250.632 144.067C250.314 144.67 249.948 145.246 249.536 145.789C249.098 146.383 248.597 146.927 248.041 147.412C247.381 148 246.615 148.456 245.785 148.758C244.744 149.137 243.615 149.199 242.539 148.936C241.531 148.688 240.598 148.2 239.82 147.512C239.648 147.367 239.484 147.212 239.329 147.049L239.101 146.814L238.938 146.629L238.311 145.918C237.891 145.441 237.507 144.95 237.108 144.494C235.588 142.539 234.186 140.495 232.909 138.373C232.282 137.319 231.663 136.237 231.094 135.177C230.524 134.116 229.969 133.042 229.442 131.839L235.315 129.034Z" fill="#B55B52"/>
<path d="M227.613 129.063C226.453 133.006 234.603 143.747 234.603 143.747L242.824 138.458C241.277 135.042 239.368 131.802 237.13 128.792C233.763 124.5 228.88 124.728 227.613 129.063Z" fill="url(#paint7_linear_1_1829)"/>
<g opacity="0.2">
<path d="M227.613 129.063C226.453 133.006 234.603 143.747 234.603 143.747L242.824 138.458C241.277 135.042 239.368 131.802 237.13 128.792C233.763 124.5 228.88 124.728 227.613 129.063Z" fill="url(#paint8_linear_1_1829)"/>
</g>
<path opacity="0.2" d="M232.624 133.689C234.311 134.401 236.802 138.487 238.098 141.519L234.61 143.761C232.658 141.156 230.904 138.408 229.364 135.54C230.467 134.316 231.727 133.312 232.624 133.689Z" fill="black"/>
<path d="M248.141 141.426L251.116 136.615L253.714 140.764C253.089 141.872 252.074 142.706 250.867 143.106L248.141 141.426Z" fill="#B55B52"/>
<path d="M255.266 136.664V138.152C255.266 138.617 255.105 139.067 254.81 139.426L253.728 140.764L251.13 136.615L253.814 135.639C253.978 135.581 254.153 135.564 254.326 135.587C254.498 135.611 254.662 135.676 254.805 135.776C254.947 135.877 255.063 136.01 255.143 136.164C255.223 136.319 255.265 136.49 255.266 136.664Z" fill="#B55B52"/>
<path d="M252.362 142.814L247.678 142.743L250.269 133.042L254.952 133.113L252.362 142.814Z" fill="url(#paint9_linear_1_1829)"/>
<path d="M252.839 142.814L248.155 142.743L250.746 133.042L255.429 133.113L252.839 142.814Z" fill="#263238"/>
<path opacity="0.2" d="M229.941 249.738L229.3 254.87L225.001 254.941L225.641 249.802L229.941 249.738Z" fill="black"/>
<path opacity="0.2" d="M242.333 250.008L246.511 248.727L247.842 253.596L243.664 254.877L242.333 250.008Z" fill="black"/>
<path d="M209.477 131.134C212.986 146.238 212.224 161.221 212.609 164.452L235.521 162.744C237.72 138.195 232.51 125.731 232.51 125.731C232.51 125.731 231.037 125.447 229.037 125.24C228.41 125.176 227.727 125.119 227.022 125.084C226.631 125.084 226.239 125.048 225.834 125.041C222.577 125.092 219.326 125.329 216.096 125.753C215.484 125.831 214.865 125.917 214.26 126.016L212.637 126.315H212.573C212.049 126.419 211.551 126.628 211.109 126.929C210.667 127.23 210.29 127.617 210.001 128.067C209.712 128.517 209.517 129.02 209.427 129.547C209.337 130.074 209.354 130.614 209.477 131.134Z" fill="url(#paint10_linear_1_1829)"/>
<g opacity="0.2">
<path d="M209.477 131.134C212.986 146.238 212.224 161.221 212.609 164.452L235.521 162.744C237.72 138.195 232.51 125.731 232.51 125.731C232.51 125.731 231.037 125.447 229.037 125.24C228.41 125.176 227.727 125.119 227.022 125.084C226.631 125.084 226.239 125.048 225.834 125.041C222.577 125.092 219.326 125.329 216.096 125.753C215.484 125.831 214.865 125.917 214.26 126.016L212.637 126.315H212.573C212.049 126.419 211.551 126.628 211.109 126.929C210.667 127.23 210.29 127.617 210.001 128.067C209.712 128.517 209.517 129.02 209.427 129.547C209.337 130.074 209.354 130.614 209.477 131.134Z" fill="url(#paint11_linear_1_1829)"/>
</g>
<path opacity="0.2" d="M213.356 134.323L210.723 137.704C210.726 137.746 210.726 137.789 210.723 137.832C211.093 140.124 211.377 142.366 211.591 144.53C214.118 141.419 213.748 135.803 213.356 134.323Z" fill="black"/>
<path d="M217.2 119.076C217.748 121.382 217.712 123.945 216.061 125.781C217.89 127.347 220.26 129.134 223.99 128.991C227.72 128.849 226.887 126.329 225.798 125.055C222.616 124.543 222.609 122.472 222.581 120.194C222.579 119.963 222.505 119.739 222.368 119.554C222.231 119.368 222.039 119.231 221.819 119.162L218.317 118.037C218.169 117.99 218.011 117.983 217.86 118.017C217.708 118.051 217.568 118.124 217.455 118.23C217.341 118.336 217.257 118.47 217.212 118.619C217.168 118.767 217.163 118.925 217.2 119.076Z" fill="#B55B52"/>
<path d="M227.271 143.711C225.35 143.711 223.577 141.405 223.228 138.458C223.092 137.678 223.116 136.878 223.298 136.107C223.48 135.336 223.818 134.61 224.289 133.974C224.511 133.705 224.79 133.489 225.104 133.339C225.419 133.189 225.763 133.109 226.111 133.105C228.026 133.105 229.805 135.412 230.147 138.358C230.284 139.138 230.261 139.938 230.08 140.709C229.899 141.479 229.563 142.205 229.094 142.843C228.87 143.109 228.591 143.325 228.277 143.475C227.962 143.624 227.62 143.705 227.271 143.711ZM226.118 133.817C225.87 133.822 225.626 133.881 225.403 133.99C225.181 134.1 224.985 134.257 224.83 134.451C224.429 135.013 224.144 135.649 223.993 136.323C223.841 136.996 223.826 137.693 223.947 138.373C224.239 140.885 225.762 142.999 227.279 142.999C227.528 142.996 227.773 142.937 227.997 142.828C228.221 142.718 228.418 142.56 228.574 142.366C228.973 141.803 229.257 141.167 229.409 140.493C229.56 139.82 229.577 139.123 229.457 138.444C229.179 135.931 227.656 133.817 226.147 133.817H226.118Z" fill="#69C81D"/>
<path opacity="0.2" d="M222.588 120.322L219.065 120.778C219.143 120.934 219.243 121.084 219.335 121.233C220.004 122.301 221.47 123.006 222.994 123.262C222.664 122.319 222.526 121.319 222.588 120.322Z" fill="black"/>
<path d="M227.158 111.204C229.115 111.531 232.774 109.311 231.919 106.35C230.823 107.723 227.158 107.261 227.158 107.261V111.204Z" fill="#263238"/>
<path d="M219.513 114.336C219.726 116.315 217.285 119.838 214.381 118.806C215.805 117.795 215.577 114.101 215.577 114.101L219.513 114.336Z" fill="#263238"/>
<path d="M216.644 110.492C216.118 114.72 215.591 117.176 217.306 119.746C219.876 123.568 225.399 122.593 227.179 118.628C228.78 115.069 229.371 108.727 225.584 106.293C224.755 105.755 223.802 105.437 222.816 105.37C221.829 105.303 220.842 105.488 219.947 105.908C219.053 106.329 218.28 106.97 217.702 107.772C217.124 108.574 216.76 109.511 216.644 110.492Z" fill="#B55B52"/>
<path d="M216.061 114.763C217.093 115.852 219.933 111.403 219.413 109.781C220.481 110.25 222.531 109.354 222.403 107.588C225.599 109.297 230.232 110.649 230.304 107.588C230.375 104.528 227.456 102.214 224.609 101.972C224.951 102.891 224.047 103.282 222.189 102.891C220.331 102.499 213.171 99.2036 213.961 105.788C211.285 105.944 210.936 109.332 216.061 114.763Z" fill="#263238"/>
<path d="M213.968 113.119C214.116 114.181 214.679 115.141 215.534 115.788C216.673 116.635 217.385 115.738 217.492 114.4C217.591 113.19 217.492 111.297 216.132 110.976C215.836 110.912 215.529 110.922 215.239 111.007C214.948 111.091 214.683 111.247 214.468 111.46C214.253 111.673 214.095 111.936 214.008 112.226C213.92 112.515 213.907 112.822 213.968 113.119Z" fill="#B55B52"/>
<path d="M220.424 163.876L235.485 162.758C235.485 162.758 237.436 193.671 237.286 206.775C237.137 220.412 230.88 253.845 230.88 253.845L223.606 253.959C223.606 253.959 224.182 221.53 224.182 208.141C224.182 190.112 220.403 163.876 220.403 163.876" fill="#263238"/>
<path opacity="0.2" d="M226.246 196.013C226.446 196.902 232.047 221.964 233.855 236.584C234.816 230.506 235.806 223.68 236.475 217.651L226.246 196.013Z" fill="black"/>
<path d="M227.357 163.371C227.357 163.371 238.824 191.457 241.407 203.778C244.254 217.267 248.774 251.382 248.774 251.382L240.994 252.592C240.994 252.592 235.108 227.089 231.813 214.064C228.069 199.216 213.221 175.706 212.594 164.467L227.357 163.371Z" fill="#263238"/>
<path d="M249.749 252.044L240.083 254.307L238.866 250.585L249.422 248.777L249.749 252.044Z" fill="#69C81D"/>
<path d="M231.82 254.008L223.15 254.144L223.107 251.346L232.788 251.047L231.82 254.008Z" fill="#69C81D"/>
<path d="M222.538 112.685C222.474 113.027 222.602 113.333 222.823 113.397C223.043 113.461 223.278 113.197 223.342 112.856C223.406 112.514 223.278 112.208 223.051 112.144C222.823 112.08 222.602 112.343 222.538 112.685Z" fill="#263238"/>
<path d="M226.752 113.582C226.688 113.916 226.816 114.229 227.036 114.293C227.257 114.357 227.492 114.094 227.556 113.752C227.62 113.411 227.492 113.098 227.271 113.041C227.051 112.984 226.816 113.24 226.752 113.582Z" fill="#263238"/>
<path d="M225.364 113.496C225.575 114.613 225.939 115.696 226.446 116.713C226.181 116.836 225.894 116.899 225.602 116.899C225.311 116.899 225.023 116.836 224.759 116.713L225.364 113.496Z" fill="#A02724"/>
<path d="M224.04 117.76C223.659 117.681 223.298 117.524 222.98 117.3C222.661 117.076 222.392 116.789 222.189 116.457C222.177 116.433 222.174 116.404 222.182 116.378C222.19 116.351 222.208 116.328 222.232 116.315C222.256 116.304 222.283 116.303 222.308 116.311C222.333 116.318 222.354 116.335 222.367 116.358C222.599 116.721 222.913 117.025 223.284 117.245C223.655 117.465 224.072 117.595 224.503 117.625C224.525 117.631 224.546 117.644 224.56 117.663C224.574 117.681 224.582 117.704 224.582 117.728C224.582 117.751 224.574 117.774 224.56 117.793C224.546 117.812 224.525 117.825 224.503 117.831C224.347 117.821 224.192 117.797 224.04 117.76Z" fill="#263238"/>
<path d="M222.118 111.161C222.085 111.147 222.054 111.128 222.026 111.104C221.99 111.064 221.97 111.012 221.97 110.959C221.97 110.905 221.99 110.853 222.026 110.813C222.261 110.591 222.546 110.428 222.856 110.338C223.167 110.247 223.495 110.232 223.812 110.293C223.864 110.308 223.907 110.342 223.934 110.389C223.96 110.435 223.968 110.49 223.955 110.542C223.941 110.593 223.908 110.637 223.863 110.663C223.818 110.69 223.763 110.698 223.713 110.685C223.458 110.639 223.196 110.654 222.948 110.73C222.701 110.805 222.475 110.939 222.289 111.119C222.265 111.138 222.238 111.152 222.208 111.159C222.179 111.167 222.148 111.167 222.118 111.161Z" fill="#263238"/>
<path d="M229.022 112.521C228.99 112.511 228.96 112.492 228.937 112.467C228.913 112.442 228.896 112.412 228.887 112.379C228.83 112.13 228.713 111.9 228.547 111.706C228.381 111.513 228.17 111.363 227.933 111.268C227.882 111.252 227.839 111.216 227.813 111.168C227.788 111.12 227.783 111.064 227.798 111.012C227.815 110.96 227.851 110.917 227.899 110.892C227.947 110.867 228.003 110.861 228.054 110.877C228.359 110.997 228.629 111.189 228.843 111.437C229.056 111.685 229.206 111.982 229.279 112.3C229.287 112.326 229.29 112.353 229.288 112.38C229.285 112.407 229.277 112.433 229.263 112.457C229.25 112.48 229.232 112.501 229.21 112.517C229.188 112.533 229.163 112.544 229.136 112.55C229.096 112.555 229.055 112.545 229.022 112.521Z" fill="#263238"/>
<path d="M250.575 256.934C250.235 257.1 249.877 257.226 249.507 257.311C249.492 257.323 249.473 257.33 249.454 257.33C249.435 257.33 249.416 257.323 249.401 257.311C249.389 257.294 249.383 257.274 249.383 257.254C249.383 257.234 249.389 257.214 249.401 257.197C249.493 257.041 250.333 255.646 250.867 255.646C250.927 255.645 250.986 255.662 251.038 255.693C251.089 255.725 251.131 255.77 251.159 255.823C251.215 255.908 251.249 256.004 251.259 256.105C251.269 256.205 251.254 256.307 251.216 256.4C251.065 256.642 250.841 256.83 250.575 256.934ZM249.7 257.048C250.221 256.97 250.694 256.698 251.024 256.286C251.049 256.222 251.057 256.152 251.048 256.084C251.04 256.016 251.014 255.951 250.974 255.895C250.931 255.823 250.895 255.816 250.86 255.816C250.582 255.816 250.048 256.507 249.7 257.048Z" fill="#0065FF"/>
<path d="M249.529 257.304H249.472C249.453 257.301 249.436 257.294 249.421 257.283C249.406 257.272 249.394 257.257 249.386 257.24C249.128 256.683 249.043 256.06 249.144 255.454C249.174 255.381 249.219 255.315 249.275 255.26C249.331 255.204 249.398 255.161 249.472 255.133C249.54 255.099 249.617 255.09 249.691 255.107C249.765 255.124 249.831 255.166 249.878 255.226C250.184 255.61 249.878 256.842 249.564 257.262C249.562 257.271 249.557 257.279 249.551 257.287C249.545 257.294 249.537 257.3 249.529 257.304ZM249.529 255.361C249.452 255.4 249.391 255.466 249.358 255.546C249.273 256.027 249.332 256.523 249.529 256.97C249.764 256.464 249.927 255.582 249.749 255.361C249.749 255.361 249.692 255.29 249.571 255.361H249.529Z" fill="#0065FF"/>
<path d="M229.222 259.788C229.203 259.781 229.187 259.768 229.176 259.752C229.165 259.735 229.159 259.716 229.159 259.696C229.159 259.676 229.165 259.656 229.176 259.64C229.187 259.623 229.203 259.611 229.222 259.603C229.414 259.496 231.129 258.592 231.656 258.891C231.704 258.919 231.745 258.958 231.775 259.005C231.805 259.053 231.822 259.106 231.827 259.162C231.838 259.254 231.826 259.347 231.794 259.433C231.762 259.52 231.71 259.598 231.642 259.66C231.179 260.08 229.948 259.931 229.25 259.802L229.222 259.788ZM231.542 259.041C230.858 259.08 230.193 259.285 229.606 259.639C230.243 259.82 230.924 259.77 231.528 259.496C231.573 259.455 231.607 259.402 231.627 259.344C231.647 259.285 231.652 259.223 231.642 259.162C231.643 259.14 231.637 259.118 231.626 259.099C231.614 259.08 231.597 259.065 231.578 259.055L231.542 259.041Z" fill="#0065FF"/>
<path d="M229.222 259.788C229.208 259.777 229.197 259.763 229.189 259.747C229.182 259.731 229.178 259.713 229.179 259.696C229.217 259.088 229.44 258.507 229.82 258.03C229.976 257.897 230.177 257.831 230.382 257.845C230.667 257.845 230.745 258.016 230.766 258.13C230.852 258.614 229.841 259.553 229.343 259.795C229.325 259.808 229.303 259.814 229.281 259.812C229.259 259.811 229.238 259.803 229.222 259.788ZM230.439 258.059C230.406 258.05 230.372 258.05 230.339 258.059C230.265 258.05 230.189 258.058 230.118 258.081C230.047 258.104 229.981 258.143 229.926 258.194C229.611 258.57 229.419 259.035 229.378 259.525C229.905 259.205 230.588 258.457 230.539 258.173C230.539 258.13 230.524 258.087 230.439 258.059Z" fill="#0065FF"/>
<path d="M216.317 132.472C214.894 134.999 213.47 137.697 212.189 140.352C210.898 142.947 209.792 145.63 208.879 148.381C208.772 148.715 208.694 149.042 208.594 149.37C208.559 149.519 208.495 149.733 208.473 149.833C208.45 149.915 208.431 149.998 208.416 150.082C208.355 150.529 208.367 150.983 208.452 151.427C208.738 152.645 209.206 153.814 209.84 154.893C211.317 157.381 213.039 159.715 214.979 161.862L212.915 164.339C210.162 162.518 207.716 160.272 205.669 157.683C204.528 156.242 203.645 154.614 203.057 152.872C202.718 151.832 202.566 150.74 202.608 149.647C202.608 149.356 202.665 149.05 202.701 148.758C202.736 148.466 202.779 148.316 202.822 148.089C202.907 147.676 202.985 147.242 203.078 146.836C203.875 143.675 204.957 140.592 206.309 137.626C207.607 134.711 209.081 131.877 210.723 129.141L216.317 132.472Z" fill="#B55B52"/>
<path d="M211.847 126.643C207.883 127.732 204.018 138.871 204.018 138.871L213.563 141.519C215.235 139.174 216.569 136.605 217.527 133.889C219.534 128.472 216.645 125.333 211.847 126.643Z" fill="url(#paint12_linear_1_1829)"/>
<g opacity="0.2">
<path d="M211.847 126.643C207.883 127.732 204.018 138.871 204.018 138.871L213.563 141.519C215.235 139.174 216.569 136.605 217.527 133.889C219.534 128.472 216.645 125.333 211.847 126.643Z" fill="url(#paint13_linear_1_1829)"/>
</g>
<path d="M213.15 161.128L217.506 162.274L215.776 166.367C215.776 166.367 211.869 165.541 211.89 163.413L213.15 161.128Z" fill="#B55B52"/>
<path d="M219.179 165.05L217.89 168.289L215.776 166.367L217.506 162.274L219.179 165.05Z" fill="#B55B52"/>
<defs>
<linearGradient id="paint0_linear_1_1829" x1="251.39" y1="42.4077" x2="251.39" y2="257.116" gradientUnits="userSpaceOnUse">
<stop stop-color="#6CF102"/>
<stop offset="1" stop-color="#3E8B01"/>
</linearGradient>
<linearGradient id="paint1_linear_1_1829" x1="247.276" y1="42.4077" x2="247.276" y2="257.116" gradientUnits="userSpaceOnUse">
<stop stop-color="#6CF102"/>
<stop offset="1" stop-color="#3E8B01"/>
</linearGradient>
<linearGradient id="paint2_linear_1_1829" x1="252.106" y1="64.1387" x2="252.106" y2="83.6201" gradientUnits="userSpaceOnUse">
<stop stop-color="#6CF102"/>
<stop offset="1" stop-color="#3E8B01"/>
</linearGradient>
<linearGradient id="paint3_linear_1_1829" x1="242.368" y1="66.6299" x2="242.368" y2="111.209" gradientUnits="userSpaceOnUse">
<stop stop-color="#6CF102"/>
<stop offset="1" stop-color="#3E8B01"/>
</linearGradient>
<linearGradient id="paint4_linear_1_1829" x1="197.819" y1="116.012" x2="197.819" y2="254.804" gradientUnits="userSpaceOnUse">
<stop stop-color="#6CF102"/>
<stop offset="1" stop-color="#3E8B01"/>
</linearGradient>
<linearGradient id="paint5_linear_1_1829" x1="134.532" y1="224.586" x2="134.532" y2="248.819" gradientUnits="userSpaceOnUse">
<stop stop-color="#6CF102"/>
<stop offset="1" stop-color="#3E8B01"/>
</linearGradient>
<linearGradient id="paint6_linear_1_1829" x1="269.448" y1="211.364" x2="269.448" y2="226.765" gradientUnits="userSpaceOnUse">
<stop stop-color="#6CF102"/>
<stop offset="1" stop-color="#3E8B01"/>
</linearGradient>
<linearGradient id="paint7_linear_1_1829" x1="235.162" y1="125.69" x2="235.162" y2="143.747" gradientUnits="userSpaceOnUse">
<stop stop-color="#6CF102"/>
<stop offset="1" stop-color="#3E8B01"/>
</linearGradient>
<linearGradient id="paint8_linear_1_1829" x1="235.162" y1="125.69" x2="235.162" y2="143.747" gradientUnits="userSpaceOnUse">
<stop stop-color="#6CF102"/>
<stop offset="1" stop-color="#3E8B01"/>
</linearGradient>
<linearGradient id="paint9_linear_1_1829" x1="251.315" y1="133.042" x2="251.315" y2="142.814" gradientUnits="userSpaceOnUse">
<stop stop-color="#6CF102"/>
<stop offset="1" stop-color="#3E8B01"/>
</linearGradient>
<linearGradient id="paint10_linear_1_1829" x1="222.716" y1="125.041" x2="222.716" y2="164.452" gradientUnits="userSpaceOnUse">
<stop stop-color="#6CF102"/>
<stop offset="1" stop-color="#3E8B01"/>
</linearGradient>
<linearGradient id="paint11_linear_1_1829" x1="222.716" y1="125.041" x2="222.716" y2="164.452" gradientUnits="userSpaceOnUse">
<stop stop-color="#6CF102"/>
<stop offset="1" stop-color="#3E8B01"/>
</linearGradient>
<linearGradient id="paint12_linear_1_1829" x1="211.095" y1="126.346" x2="211.095" y2="141.519" gradientUnits="userSpaceOnUse">
<stop stop-color="#6CF102"/>
<stop offset="1" stop-color="#3E8B01"/>
</linearGradient>
<linearGradient id="paint13_linear_1_1829" x1="211.095" y1="126.346" x2="211.095" y2="141.519" gradientUnits="userSpaceOnUse">
<stop stop-color="#6CF102"/>
<stop offset="1" stop-color="#3E8B01"/>
</linearGradient>
</defs>
</svg>
