<svg width="302" height="228" viewBox="0 0 302 228" fill="none" xmlns="http://www.w3.org/2000/svg">
<path d="M302 206.755H0V206.906H302V206.755Z" fill="#EBEBEB"/>
<path d="M271.739 216.474H251.734V216.625H271.739V216.474Z" fill="#EBEBEB"/>
<path d="M200.057 218.116H194.809V218.267H200.057V218.116Z" fill="#EBEBEB"/>
<path d="M251.132 210.868H239.541V211.019H251.132V210.868Z" fill="#EBEBEB"/>
<path d="M57.7723 211.883H31.6855V212.034H57.7723V211.883Z" fill="#EBEBEB"/>
<path d="M66.9776 211.883H63.1543V212.034H66.9776V211.883Z" fill="#EBEBEB"/>
<path d="M135.991 214.432H79.4082V214.583H135.991V214.432Z" fill="#EBEBEB"/>
<path d="M143.147 179.817H26.5209C25.6073 179.815 24.7316 179.451 24.0861 178.805C23.4407 178.158 23.0781 177.282 23.0781 176.368V12.4243C23.0861 11.5159 23.4521 10.6473 24.0967 10.0072C24.7414 9.36708 25.6125 9.00717 26.5209 9.00562H143.147C144.062 9.00562 144.939 9.36897 145.586 10.0158C146.233 10.6625 146.596 11.5398 146.596 12.4545V176.368C146.596 177.283 146.233 178.16 145.586 178.807C144.939 179.453 144.062 179.817 143.147 179.817ZM26.5209 9.12642C25.6473 9.12802 24.8101 9.47617 24.1929 10.0945C23.5757 10.7128 23.2291 11.5507 23.2291 12.4243V176.368C23.2291 177.242 23.5757 178.079 24.1929 178.698C24.8101 179.316 25.6473 179.664 26.5209 179.666H143.147C144.021 179.664 144.859 179.316 145.477 178.698C146.096 178.08 146.444 177.242 146.445 176.368V12.4243C146.444 11.5501 146.096 10.7122 145.477 10.0941C144.859 9.47597 144.021 9.12801 143.147 9.12642H26.5209Z" fill="#EBEBEB"/>
<path d="M273.8 179.817H157.168C156.253 179.815 155.377 179.451 154.731 178.805C154.084 178.158 153.72 177.282 153.719 176.368V12.4243C153.728 11.5153 154.096 10.6467 154.741 10.0068C155.387 9.36687 156.259 9.00715 157.168 9.00562H273.8C274.707 9.00876 275.577 9.36937 276.22 10.0093C276.864 10.6492 277.229 11.5169 277.237 12.4243V176.368C277.237 177.281 276.875 178.156 276.231 178.802C275.587 179.449 274.713 179.814 273.8 179.817ZM157.168 9.12642C156.293 9.12801 155.456 9.47597 154.837 10.0941C154.219 10.7122 153.871 11.5501 153.87 12.4243V176.368C153.871 177.242 154.219 178.08 154.837 178.698C155.456 179.316 156.293 179.664 157.168 179.666H273.8C274.674 179.664 275.512 179.316 276.13 178.698C276.748 178.08 277.096 177.242 277.098 176.368V12.4243C277.096 11.5501 276.748 10.7122 276.13 10.0941C275.512 9.47597 274.674 9.12801 273.8 9.12642H157.168Z" fill="#EBEBEB"/>
<path d="M240.58 34.2407H163.836V206.755H240.58V34.2407Z" fill="#F0F0F0"/>
<path d="M240.579 34.2407H165.453V206.755H240.579V34.2407Z" fill="#F5F5F5"/>
<path d="M235.994 202.841V38.1545L170.025 38.1545V202.841H235.994Z" fill="#F0F0F0"/>
<path d="M176.514 68.8016C176.511 66.439 176.974 64.0991 177.877 61.9155C178.779 59.7319 180.102 57.7474 181.771 56.0754C183.441 54.4034 185.423 53.0766 187.605 52.1708C189.787 51.265 192.126 50.798 194.489 50.7964H211.522C213.886 50.794 216.229 51.2581 218.414 52.1622C220.599 53.0663 222.584 54.3926 224.256 56.0651C225.928 57.7376 227.254 59.7234 228.157 61.909C229.061 64.0945 229.524 66.4368 229.521 68.8016H176.514Z" fill="#FAFAFA"/>
<path d="M229.52 192.604V153.259H176.519V192.604H229.52Z" fill="#F5F5F5"/>
<path d="M176.514 148.185H199.895V79.8789H176.514V148.185Z" fill="#F5F5F5"/>
<path d="M206.133 148.185H229.514V79.8789H206.133V148.185Z" fill="#F5F5F5"/>
<path d="M221.064 113.721H230.637C231.031 113.721 231.409 113.565 231.688 113.286C231.967 113.007 232.123 112.629 232.123 112.235C232.122 111.842 231.965 111.465 231.686 111.186C231.408 110.908 231.031 110.751 230.637 110.75H221.064C220.67 110.75 220.292 110.906 220.013 111.185C219.735 111.463 219.578 111.841 219.578 112.235C219.578 112.629 219.735 113.007 220.013 113.286C220.292 113.565 220.67 113.721 221.064 113.721Z" fill="#E0E0E0"/>
<path d="M235.994 202.841V38.1545H234.804V202.841H235.994Z" fill="#F0F0F0"/>
<path d="M42.5156 139.729H115.533V36.379C115.533 28.1465 42.5156 28.1465 42.5156 36.379V139.729Z" fill="#E0E0E0"/>
<path d="M44.1953 139.729H117.207V36.379C117.207 28.1465 44.1893 28.1465 44.1953 36.379V139.729Z" fill="#EBEBEB"/>
<path d="M113.582 134.547V38.4205C113.583 38.0982 113.485 37.7834 113.3 37.5194C113.115 37.2555 112.852 37.0554 112.549 36.9467C108.496 35.4911 97.4491 33.8301 80.7001 33.8301C63.9512 33.8301 52.9161 35.4911 48.8512 36.9467C48.5478 37.0554 48.2855 37.2555 48.1005 37.5194C47.9156 37.7834 47.817 38.0982 47.8184 38.4205V134.547C47.8184 134.96 47.9826 135.357 48.2748 135.649C48.567 135.941 48.9634 136.105 49.3767 136.105H112.024C112.437 136.105 112.833 135.941 113.125 135.649C113.418 135.357 113.582 134.96 113.582 134.547Z" fill="#FAFAFA"/>
<path d="M98.1504 34.5247L109.536 136.105H92.9076L81.4316 33.8301C87.9065 33.8482 93.4996 34.12 98.1504 34.5247Z" fill="white"/>
<path d="M76.6467 33.8662L88.1227 136.105H78.9238L67.4961 34.2105C70.2805 34.0414 73.3368 33.9206 76.6467 33.8662Z" fill="white"/>
<path d="M69.8281 137.452V32.2717H66.639V137.452H69.8281Z" fill="#EBEBEB"/>
<path d="M95.5098 137.452V32.2717H92.3206V137.452H95.5098Z" fill="#EBEBEB"/>
<path d="M92.3223 137.446V32.2656H91.7485V137.446H92.3223Z" fill="#E0E0E0"/>
<path d="M66.6387 137.446V32.2656H66.0649V137.446H66.6387Z" fill="#E0E0E0"/>
<path d="M46.6479 58.6243L115.504 58.6243V55.4351L46.6479 55.4351V58.6243Z" fill="#EBEBEB"/>
<path d="M46.0438 142.284H120.535V138.763H46.0438V142.284Z" fill="#F5F5F5"/>
<path d="M46.043 138.757H42.5156V142.278H46.043V138.757Z" fill="#E0E0E0"/>
<path d="M251.879 21.2548L270.09 21.2548V16.1087L251.879 16.1087V21.2548Z" fill="#F0F0F0"/>
<path d="M242.778 26.4009L260.988 26.4009V21.2548L242.778 21.2548V26.4009Z" fill="#E6E6E6"/>
<path d="M123.815 96.9661H142.025V91.82H123.815V96.9661Z" fill="#F5F5F5"/>
<path d="M96.7972 161.745H115.008V156.599H96.7972V161.745Z" fill="#F5F5F5"/>
<path d="M270.091 162.355H251.881V167.501H270.091V162.355Z" fill="#E6E6E6"/>
<path d="M114.705 5.14612L132.916 5.14612V3.76701e-05L114.705 3.76701e-05V5.14612Z" fill="#F0F0F0"/>
<path d="M47.8128 193.002H66.0234V187.856H47.8128V193.002Z" fill="#F5F5F5"/>
<path d="M33.4124 155.639H51.623V150.493H33.4124V155.639Z" fill="#F5F5F5"/>
<path d="M56.9261 198.148H75.1367V193.002H56.9261V198.148Z" fill="#F0F0F0"/>
<path d="M62.4059 16.8516H44.1953V21.9976H62.4059V16.8516Z" fill="#F0F0F0"/>
<path d="M79.8126 52.6931C76.2369 53.4843 72.0814 58.4975 76.1886 63.6134C80.2958 68.7293 73.4163 66.4945 72.3472 75.4457C71.2781 84.397 79.4381 82.8931 76.8772 88.7639C74.3162 94.6348 92.0919 103.936 103.181 96.8877C114.271 89.8391 115.31 74.6605 111.843 69.297C108.376 63.9335 103.314 63.5952 105.609 57.8512C107.905 52.1072 105.199 46.1336 98.0413 46.0793C92.6416 46.037 95.879 42.262 88.4498 42.2922C82.2528 42.3224 76.7745 46.6712 79.8126 52.6931Z" fill="#263238"/>
<path d="M99.6895 60.1765C99.3406 60.1765 98.9996 60.28 98.7096 60.4738C98.4196 60.6676 98.1935 60.943 98.06 61.2653C97.9265 61.5875 97.8916 61.9422 97.9597 62.2843C98.0277 62.6264 98.1957 62.9407 98.4423 63.1873C98.689 63.434 99.0033 63.6019 99.3454 63.67C99.6875 63.738 100.042 63.7031 100.364 63.5696C100.687 63.4361 100.962 63.2101 101.156 62.9201C101.35 62.63 101.453 62.289 101.453 61.9402C101.454 61.7084 101.409 61.4787 101.321 61.2643C101.232 61.05 101.102 60.8552 100.938 60.6913C100.774 60.5274 100.58 60.3975 100.365 60.3091C100.151 60.2208 99.9213 60.1757 99.6895 60.1765ZM99.6895 63.2871C99.4216 63.2871 99.1598 63.2076 98.9372 63.0587C98.7146 62.9098 98.5411 62.6981 98.4389 62.4505C98.3367 62.2029 98.3103 61.9306 98.363 61.668C98.4157 61.4054 98.5451 61.1643 98.7349 60.9753C98.9247 60.7864 99.1664 60.658 99.4292 60.6065C99.6921 60.5549 99.9643 60.5826 100.211 60.6859C100.459 60.7893 100.669 60.9636 100.817 61.1869C100.965 61.4102 101.044 61.6724 101.042 61.9402C101.042 62.1176 101.007 62.2932 100.939 62.457C100.871 62.6209 100.771 62.7696 100.646 62.8948C100.52 63.0199 100.371 63.119 100.207 63.1863C100.043 63.2537 99.8669 63.2879 99.6895 63.2871Z" fill="white"/>
<path d="M114.56 77.3605C114.54 77.3576 114.521 77.3507 114.504 77.3402C114.487 77.3297 114.473 77.3158 114.461 77.2993C114.45 77.2829 114.442 77.2642 114.438 77.2446C114.434 77.225 114.435 77.2048 114.439 77.1853C114.983 74.3707 112.79 71.6466 110.471 68.7293C107.759 65.365 104.69 61.5478 105.772 56.9996C106.696 53.122 106.285 49.8845 104.612 47.8792C103.247 46.2424 101.115 45.4632 98.282 45.6324C95.6848 45.7652 94.9178 45.0284 94.1024 44.3156C93.287 43.6029 92.2058 42.5942 88.4791 42.6184C88.4401 42.6184 88.4026 42.6034 88.3744 42.5763C88.3463 42.5493 88.3297 42.5124 88.3281 42.4734C88.3281 42.4328 88.3438 42.3938 88.372 42.3645C88.4001 42.3352 88.4385 42.318 88.4791 42.3164H88.606C92.3628 42.3164 93.3957 43.2586 94.3077 44.0922C95.105 44.823 95.7996 45.4572 98.27 45.3304C101.199 45.1794 103.416 45.9706 104.848 47.686C106.581 49.7698 107.01 53.122 106.056 57.0721C105.011 61.4753 107.898 65.0691 110.694 68.5481C113.056 71.4896 115.291 74.268 114.723 77.2155C114.722 77.2359 114.717 77.2559 114.709 77.2744C114.7 77.2928 114.688 77.3093 114.672 77.3228C114.657 77.3364 114.639 77.3467 114.62 77.3532C114.601 77.3596 114.58 77.3621 114.56 77.3605Z" fill="#263238"/>
<path d="M128.761 65.8179L127.952 67.4004C127.8 67.6934 127.721 68.0186 127.721 68.3487C127.721 68.6788 127.8 69.004 127.952 69.297L129.383 72.0754C129.666 72.6234 130.075 73.0958 130.577 73.453C131.08 73.8103 131.66 74.0421 132.271 74.129L133.032 74.2377C134.566 71.7069 134.354 67.8413 134.354 67.8413L134.415 66.736C134.435 66.5089 134.409 66.28 134.34 66.0628C134.27 65.8456 134.159 65.6443 134.011 65.4707C133.863 65.2971 133.682 65.1545 133.479 65.0513C133.275 64.9481 133.054 64.8864 132.826 64.8697L130.634 64.7187C130.249 64.702 129.867 64.797 129.535 64.992C129.203 65.187 128.934 65.4738 128.761 65.8179Z" fill="#FFC3BD"/>
<path d="M110.779 76.394C110.779 76.394 110.816 76.4604 110.846 76.5027L110.973 76.6899L111.263 77.0765C111.468 77.3423 111.691 77.602 111.921 77.8617C112.38 78.3811 112.869 78.8885 113.377 79.3777C114.405 80.3483 115.518 81.2236 116.705 81.993C119.029 83.5382 121.656 84.568 124.412 85.013L124.925 85.0855L125.185 85.1218C125.163 85.1195 125.14 85.1195 125.118 85.1218C124.988 85.1325 124.862 85.1784 124.756 85.2547C124.641 85.3634 124.919 85.2063 125.185 84.8077C125.863 83.7062 126.366 82.5061 126.677 81.2501C127.07 79.7876 127.364 78.3005 127.558 76.7987C127.673 76.0376 127.74 75.2585 127.806 74.4853C127.873 73.7122 127.921 72.9029 127.921 72.2083L134.879 72.5405C134.788 73.4887 134.698 74.3041 134.601 75.1799C134.504 76.0557 134.366 76.9013 134.245 77.759C133.979 79.4865 133.671 81.2139 133.218 82.9897C132.997 83.9041 132.724 84.8055 132.403 85.6895C132.049 86.687 131.6 87.6478 131.062 88.5585C130.337 89.8126 129.296 90.8542 128.042 91.5785C127.2 92.0318 126.267 92.2899 125.312 92.3335C125.088 92.3335 124.81 92.3335 124.629 92.3335H124.273L123.56 92.2852C121.659 92.1071 119.78 91.745 117.949 91.2041C116.136 90.6511 114.374 89.9438 112.682 89.09C111.007 88.234 109.402 87.2485 107.88 86.1425C107.113 85.5929 106.37 85.007 105.639 84.3909C105.277 84.0829 104.921 83.7567 104.558 83.4245L104.015 82.9111L103.731 82.6273C103.628 82.5185 103.562 82.4521 103.398 82.2709L110.779 76.394Z" fill="url(#paint0_linear_1_5860)"/>
<path opacity="0.5" d="M110.779 76.394C110.779 76.394 110.816 76.4604 110.846 76.5027L110.973 76.6899L111.263 77.0765C111.468 77.3423 111.691 77.602 111.921 77.8617C112.38 78.3811 112.869 78.8885 113.377 79.3777C114.405 80.3483 115.518 81.2236 116.705 81.993C119.029 83.5382 121.656 84.568 124.412 85.013L124.925 85.0855L125.185 85.1218C125.163 85.1195 125.14 85.1195 125.118 85.1218C124.988 85.1325 124.862 85.1784 124.756 85.2547C124.641 85.3634 124.919 85.2063 125.185 84.8077C125.863 83.7062 126.366 82.5061 126.677 81.2501C127.07 79.7876 127.364 78.3005 127.558 76.7987C127.673 76.0376 127.74 75.2585 127.806 74.4853C127.873 73.7122 127.921 72.9029 127.921 72.2083L134.879 72.5405C134.788 73.4887 134.698 74.3041 134.601 75.1799C134.504 76.0557 134.366 76.9013 134.245 77.759C133.979 79.4865 133.671 81.2139 133.218 82.9897C132.997 83.9041 132.724 84.8055 132.403 85.6895C132.049 86.687 131.6 87.6478 131.062 88.5585C130.337 89.8126 129.296 90.8542 128.042 91.5785C127.2 92.0318 126.267 92.2899 125.312 92.3335C125.088 92.3335 124.81 92.3335 124.629 92.3335H124.273L123.56 92.2852C121.659 92.1071 119.78 91.745 117.949 91.2041C116.136 90.6511 114.374 89.9438 112.682 89.09C111.007 88.234 109.402 87.2485 107.88 86.1425C107.113 85.5929 106.37 85.007 105.639 84.3909C105.277 84.0829 104.921 83.7567 104.558 83.4245L104.015 82.9111L103.731 82.6273C103.628 82.5185 103.562 82.4521 103.398 82.2709L110.779 76.394Z" fill="white"/>
<path d="M96.2835 222.375C95.4017 220.406 96.0117 212.107 96.1325 210.76C94.6044 209.956 89.3496 210.941 89.3496 210.941C89.3496 210.941 90.8173 219.657 89.9536 222.375C91.9649 223.498 96.2835 222.375 96.2835 222.375Z" fill="#FFC3BD"/>
<path d="M161.123 214.426C159.468 213.043 155.989 205.475 155.5 204.2C153.773 204.158 149.877 207.22 149.877 207.22C149.877 207.22 155.023 214.402 155.428 217.235C157.741 217.331 161.123 214.426 161.123 214.426Z" fill="#FFC3BD"/>
<path d="M101.659 227.189C97.2442 227.189 96.4892 227.122 94.0068 227.038C91.8807 226.959 91.3733 227.225 89.664 227.189C88.2386 227.158 88.2929 225.793 88.7278 224.217C88.8848 223.661 89.1023 223.009 89.3318 222.224C89.4171 221.926 89.5971 221.664 89.8444 221.478C90.0918 221.291 90.3932 221.191 90.7029 221.191H95.5349C95.754 221.194 95.9696 221.246 96.1661 221.344C96.3625 221.441 96.5348 221.58 96.6704 221.753C97.8422 223.208 100.373 224.271 102.584 224.567C104.975 224.887 103.423 227.189 101.659 227.189Z" fill="url(#paint1_linear_1_5860)"/>
<path d="M169.845 217.803C165.091 219.953 162.597 218.86 160.211 219.403C158.163 219.862 158.23 220.249 156.194 220.835C154.841 221.215 154.147 219.772 154.267 218.503C154.366 217.581 154.413 216.653 154.406 215.725C154.401 215.546 154.449 215.37 154.543 215.219C154.638 215.067 154.775 214.947 154.938 214.873L159.661 212.729C159.814 212.66 159.982 212.635 160.148 212.655C160.314 212.675 160.472 212.741 160.603 212.844C162.488 214.354 166.643 216.244 169.524 215.26C171.771 214.517 171.427 217.084 169.845 217.803Z" fill="url(#paint2_linear_1_5860)"/>
<path d="M117.418 110.079C117.418 110.079 128.574 135.695 134.692 154.57C142.188 171.651 157.203 207.486 157.203 207.486C157.499 208.398 152.752 210.071 151.725 209.902C151.725 209.902 131.902 186.129 123.832 159.124C102.843 132.79 96.6523 111.65 96.6523 111.65L117.418 110.079Z" fill="#263238"/>
<path opacity="0.2" d="M108.466 124.104C111.546 127.48 113.715 139.204 114.82 146.857C111.035 141.3 107.572 135.53 104.449 129.576C104.757 126.713 106.014 124.605 108.466 124.104Z" fill="black"/>
<path d="M111.202 110.556C111.202 110.556 111.993 146.138 108.9 163.666C105.651 182.07 95.6123 204.273 96.3069 216.353C95.2681 216.957 91.632 216.993 89.5965 216.353C89.5965 216.353 86.1175 180.481 96.5727 162.971C94.3077 145.455 88.2798 122.739 93.6312 111.891L111.202 110.556Z" fill="#263238"/>
<path d="M96.8143 213.84C96.831 214.67 96.9078 215.498 97.0438 216.317C97.0577 216.385 97.0575 216.455 97.0431 216.523C97.0287 216.591 97.0006 216.655 96.9604 216.712C96.9202 216.768 96.8688 216.816 96.8094 216.852C96.75 216.888 96.6838 216.911 96.615 216.921C94.1567 217.313 90.575 216.745 89.4757 216.546C89.3705 216.526 89.2741 216.474 89.1995 216.398C89.1249 216.321 89.0758 216.223 89.059 216.117L88.6905 213.798C88.6782 213.723 88.6824 213.646 88.7029 213.573C88.7234 213.5 88.7597 213.432 88.8092 213.375C88.8587 213.317 88.9203 213.271 88.9895 213.24C89.0588 213.209 89.134 213.193 89.21 213.194L96.307 213.327C96.4416 213.33 96.5697 213.385 96.6644 213.481C96.759 213.577 96.8128 213.706 96.8143 213.84Z" fill="#263238"/>
<path opacity="0.1" d="M96.8143 213.84C96.831 214.67 96.9078 215.498 97.0438 216.317C97.0577 216.385 97.0575 216.455 97.0431 216.523C97.0287 216.591 97.0006 216.655 96.9604 216.712C96.9202 216.768 96.8688 216.816 96.8094 216.852C96.75 216.888 96.6838 216.911 96.615 216.921C94.1567 217.313 90.575 216.745 89.4757 216.546C89.3705 216.526 89.2741 216.474 89.1995 216.398C89.1249 216.321 89.0758 216.223 89.059 216.117L88.6905 213.798C88.6782 213.723 88.6824 213.646 88.7029 213.573C88.7234 213.5 88.7597 213.432 88.8092 213.375C88.8587 213.317 88.9203 213.271 88.9895 213.24C89.0588 213.209 89.134 213.193 89.21 213.194L96.307 213.327C96.4416 213.33 96.5697 213.385 96.6644 213.481C96.759 213.577 96.8128 213.706 96.8143 213.84Z" fill="white"/>
<path d="M156.689 204.871C156.991 205.475 157.541 206.459 157.975 207.202C158.042 207.32 158.061 207.459 158.027 207.589C157.993 207.72 157.91 207.833 157.794 207.903C155.851 208.952 153.815 209.819 151.712 210.494C151.606 210.536 151.489 210.542 151.38 210.51C151.271 210.478 151.175 210.411 151.108 210.319L149.67 208.416C149.624 208.356 149.592 208.285 149.576 208.211C149.56 208.136 149.561 208.059 149.578 207.984C149.595 207.91 149.629 207.84 149.676 207.78C149.723 207.72 149.783 207.671 149.852 207.637L155.976 204.653C156.037 204.618 156.104 204.596 156.173 204.588C156.243 204.58 156.313 204.586 156.38 204.606C156.447 204.627 156.509 204.661 156.562 204.706C156.615 204.752 156.659 204.808 156.689 204.871Z" fill="#263238"/>
<path opacity="0.1" d="M156.689 204.871C156.991 205.475 157.541 206.459 157.975 207.202C158.042 207.32 158.061 207.459 158.027 207.589C157.993 207.72 157.91 207.833 157.794 207.903C155.851 208.952 153.815 209.819 151.712 210.494C151.606 210.536 151.489 210.542 151.38 210.51C151.271 210.478 151.175 210.411 151.108 210.319L149.67 208.416C149.624 208.356 149.592 208.285 149.576 208.211C149.56 208.136 149.561 208.059 149.578 207.984C149.595 207.91 149.629 207.84 149.676 207.78C149.723 207.72 149.783 207.671 149.852 207.637L155.976 204.653C156.037 204.618 156.104 204.596 156.173 204.588C156.243 204.58 156.313 204.586 156.38 204.606C156.447 204.627 156.509 204.661 156.562 204.706C156.615 204.752 156.659 204.808 156.689 204.871Z" fill="white"/>
<path d="M112.67 79.9275C113.274 82.1985 114.216 84.693 115.364 90.1955C116.421 94.8161 117.176 102.94 117.417 110.091C114.313 112.858 103.99 112.386 93.6318 111.903C93.6016 105.169 90.8353 98.9535 83.3155 85.1641C82.8935 84.4504 82.6363 83.6513 82.5629 82.8254C82.4894 81.9995 82.6016 81.1676 82.8911 80.3906C83.1806 79.6136 83.6401 78.9111 84.2361 78.3346C84.832 77.758 85.5493 77.322 86.3355 77.0585C87.2355 76.7565 88.1958 76.4545 89.1924 76.1766C92.6508 75.1251 96.1788 74.3178 99.7503 73.7606C100.922 73.6036 102.166 73.4828 103.314 73.3801C105.391 73.2171 107.46 73.781 109.166 74.9754C110.873 76.1699 112.112 77.9204 112.67 79.9275Z" fill="url(#paint3_linear_1_5860)"/>
<path opacity="0.5" d="M112.67 79.9275C113.274 82.1985 114.216 84.693 115.364 90.1955C116.421 94.8161 117.176 102.94 117.417 110.091C114.313 112.858 103.99 112.386 93.6318 111.903C93.6016 105.169 90.8353 98.9535 83.3155 85.1641C82.8935 84.4504 82.6363 83.6513 82.5629 82.8254C82.4894 81.9995 82.6016 81.1676 82.8911 80.3906C83.1806 79.6136 83.6401 78.9111 84.2361 78.3346C84.832 77.758 85.5493 77.322 86.3355 77.0585C87.2355 76.7565 88.1958 76.4545 89.1924 76.1766C92.6508 75.1251 96.1788 74.3178 99.7503 73.7606C100.922 73.6036 102.166 73.4828 103.314 73.3801C105.391 73.2171 107.46 73.781 109.166 74.9754C110.873 76.1699 112.112 77.9204 112.67 79.9275Z" fill="white"/>
<path d="M100.446 73.7546L89.7852 76.0498C89.7852 76.0498 98.4103 79.6738 105.326 85.1944C107.211 75.6995 100.446 73.7546 100.446 73.7546Z" fill="white"/>
<path d="M87.2422 64.1086C88.9334 67.2978 91.4702 73.2653 89.785 76.0376C89.785 76.0376 99.4067 78.816 104.541 83.2313C105.229 76.092 100.446 73.7545 100.446 73.7545C96.3867 73.7545 95.5291 70.8191 95.3962 68.0769L87.2422 64.1086Z" fill="#FFC3BD"/>
<path d="M96.2828 76.9496C94.0848 76.9039 91.8963 76.647 89.7475 76.1825C89.728 76.1783 89.7096 76.1702 89.6932 76.1587C89.6769 76.1473 89.663 76.1327 89.6523 76.1159C89.6417 76.099 89.6344 76.0802 89.6311 76.0606C89.6277 76.0409 89.6283 76.0208 89.6327 76.0013C89.6427 75.9628 89.667 75.9295 89.7007 75.9082C89.7343 75.8869 89.7748 75.8792 89.8139 75.8866C89.8743 75.8866 95.57 77.161 98.8739 76.406C99.9309 76.1644 100.553 75.802 100.686 75.2524C100.721 74.9895 100.697 74.7219 100.614 74.4698C100.532 74.2178 100.393 73.9876 100.209 73.7967C100.194 73.7827 100.183 73.7658 100.175 73.7471C100.167 73.7284 100.163 73.7083 100.163 73.688C100.163 73.6677 100.167 73.6476 100.175 73.629C100.183 73.6103 100.194 73.5934 100.209 73.5793C100.237 73.5516 100.275 73.5361 100.314 73.5361C100.354 73.5361 100.392 73.5516 100.42 73.5793C100.643 73.8078 100.808 74.0854 100.904 74.3896C100.999 74.6939 101.022 75.0163 100.97 75.3309C100.777 75.9349 100.082 76.4241 98.9102 76.6899C98.0462 76.8701 97.1653 76.9572 96.2828 76.9496Z" fill="white"/>
<path d="M100.579 77.0343C100.454 77.1219 100.3 77.1587 100.149 77.1375C99.9973 77.1162 99.8597 77.0383 99.7635 76.9196L99.4313 76.4847C99.3437 76.3595 99.3069 76.2057 99.3282 76.0544C99.3495 75.9031 99.4273 75.7655 99.546 75.6693C99.6713 75.5817 99.825 75.5449 99.9763 75.5662C100.128 75.5875 100.265 75.6653 100.361 75.7841L100.694 76.225C100.779 76.3497 100.815 76.5021 100.794 76.652C100.773 76.8019 100.696 76.9384 100.579 77.0343Z" fill="url(#paint4_linear_1_5860)"/>
<path opacity="0.2" d="M90.5645 65.7273L95.3965 68.0769C95.4185 68.7211 95.4993 69.362 95.638 69.9915C94.128 70.1123 91.6577 69.007 91.0477 67.5755C90.7757 66.9939 90.6119 66.3676 90.5645 65.7273Z" fill="black"/>
<path d="M82.3731 59.2706C84.8616 64.4288 85.7978 66.6576 89.6211 68.4273C95.341 71.0909 101.188 67.2918 100.306 61.59C99.5146 56.456 95.5886 48.906 89.5063 48.598C88.2003 48.4873 86.8885 48.7287 85.7074 49.2971C84.5264 49.8655 83.5193 50.7401 82.791 51.8298C82.0626 52.9195 81.6397 54.1845 81.5662 55.4932C81.4927 56.8018 81.7713 58.1062 82.3731 59.2706Z" fill="#FFC3BD"/>
<path d="M84.5592 51.7809C87.2591 55.6163 87.1202 61.91 83.9552 62.7617C79.1232 62.0127 78.0723 60.7624 78.0723 60.7624C78.0723 60.7624 79.6185 48.9301 84.5592 51.7809Z" fill="#263238"/>
<path d="M80.7539 53.3575C87.8932 54.2696 93.5768 51.2858 94.6459 49.6127C88.1831 45.2458 81.4606 48.9604 80.7539 53.3575Z" fill="#263238"/>
<path d="M95.6621 56.293C96.4906 57.1645 97.4262 57.9276 98.4465 58.564C98.0962 59.3069 96.9969 59.4096 96.9969 59.4096L95.6621 56.293Z" fill="#ED847E"/>
<path d="M95.3182 61.7892C95.5787 61.7455 95.8352 61.6808 96.0853 61.5959C96.1022 61.5901 96.1177 61.5807 96.1307 61.5684C96.1437 61.5561 96.154 61.5412 96.1609 61.5246C96.1677 61.5081 96.171 61.4903 96.1704 61.4724C96.1699 61.4545 96.1656 61.4369 96.1578 61.4208C96.143 61.3856 96.1155 61.3574 96.0808 61.3417C96.046 61.3261 96.0067 61.3241 95.9705 61.3362C95.4063 61.5353 94.8044 61.6051 94.2095 61.5402C93.6147 61.4754 93.042 61.2777 92.5338 60.9617C92.5079 60.9366 92.4732 60.9226 92.4371 60.9226C92.4011 60.9226 92.3664 60.9366 92.3405 60.9617C92.3212 60.9926 92.3141 61.0296 92.3208 61.0655C92.3276 61.1013 92.3475 61.1332 92.3767 61.155C93.245 61.7232 94.293 61.9491 95.3182 61.7892Z" fill="#263238"/>
<path d="M82.6942 64.5736C83.1639 64.8539 83.6872 65.0325 84.2303 65.0981C84.7733 65.1636 85.3241 65.1146 85.8471 64.9542C87.1275 64.5072 86.7531 62.9489 85.5451 61.9342C84.4639 61.0402 82.4888 60.2007 81.6191 61.1852C80.7493 62.1697 81.4016 63.8549 82.6942 64.5736Z" fill="#FFC3BD"/>
<path d="M84.9707 64.8877C84.6219 64.8877 84.2809 64.9911 83.9909 65.1849C83.7008 65.3787 83.4748 65.6542 83.3413 65.9765C83.2078 66.2987 83.1729 66.6533 83.2409 66.9955C83.309 67.3376 83.477 67.6518 83.7236 67.8985C83.9703 68.1451 84.2845 68.3131 84.6266 68.3812C84.9688 68.4492 85.3234 68.4143 85.6456 68.2808C85.9679 68.1473 86.2434 67.9213 86.4372 67.6312C86.631 67.3412 86.7344 67.0002 86.7344 66.6514C86.7352 66.4196 86.6901 66.1898 86.6018 65.9755C86.5134 65.7612 86.3835 65.5664 86.2196 65.4025C86.0557 65.2386 85.8609 65.1087 85.6466 65.0203C85.4322 64.932 85.2025 64.8869 84.9707 64.8877ZM84.9707 67.9983C84.7029 67.9983 84.4411 67.9188 84.2184 67.7699C83.9958 67.6209 83.8224 67.4093 83.7202 67.1617C83.618 66.9141 83.5915 66.6418 83.6442 66.3792C83.6969 66.1166 83.8264 65.8755 84.0162 65.6865C84.206 65.4975 84.4476 65.3692 84.7105 65.3176C84.9733 65.2661 85.2456 65.2938 85.4927 65.3971C85.7398 65.5004 85.9507 65.6748 86.0986 65.8981C86.2465 66.1214 86.3249 66.3835 86.3237 66.6514C86.3237 66.8288 86.2886 67.0044 86.2206 67.1682C86.1525 67.332 86.0528 67.4808 85.927 67.6059C85.8013 67.7311 85.6521 67.8302 85.488 67.8975C85.3239 67.9648 85.1481 67.9991 84.9707 67.9983Z" fill="white"/>
<path d="M88.903 55.8881C88.9343 55.8698 88.961 55.8444 88.9809 55.814C89.0008 55.7836 89.0134 55.7491 89.0178 55.713C89.0588 55.3743 89.1835 55.0512 89.3807 54.7728C89.5779 54.4944 89.8413 54.2695 90.1472 54.1184C90.1802 54.1048 90.21 54.0845 90.2348 54.0588C90.2596 54.0331 90.2788 54.0026 90.2913 53.9692C90.3037 53.9358 90.3092 53.9001 90.3073 53.8645C90.3053 53.8288 90.2961 53.794 90.2801 53.7621C90.2462 53.6949 90.188 53.6431 90.1173 53.6173C90.0467 53.5915 89.9688 53.5936 89.8996 53.6232C89.5088 53.8053 89.1708 54.0837 88.9172 54.4324C88.6636 54.7811 88.5028 55.1885 88.45 55.6164C88.446 55.671 88.4573 55.7256 88.4825 55.7742C88.5078 55.8228 88.546 55.8634 88.5929 55.8916C88.6398 55.9197 88.6937 55.9343 88.7484 55.9337C88.8032 55.9331 88.8567 55.9173 88.903 55.8881Z" fill="#263238"/>
<path d="M97.4796 52.687C97.5151 52.6856 97.5499 52.6762 97.5813 52.6595C97.6126 52.6427 97.6398 52.6191 97.6608 52.5904C97.7031 52.5302 97.7199 52.4558 97.7074 52.3834C97.695 52.3109 97.6543 52.2463 97.5943 52.2038C97.2462 51.9131 96.8353 51.7073 96.394 51.6025C95.9527 51.4977 95.4932 51.4968 95.0515 51.5998C95.0174 51.6104 94.9859 51.6281 94.9591 51.6517C94.9323 51.6753 94.9108 51.7043 94.8959 51.7368C94.8811 51.7693 94.8733 51.8046 94.8731 51.8403C94.8728 51.876 94.8801 51.9114 94.8945 51.9441C94.9217 52.0138 94.9738 52.071 95.0408 52.1045C95.1077 52.138 95.1847 52.1454 95.2569 52.1253C95.6063 52.0453 95.9694 52.0467 96.3181 52.1294C96.6669 52.2122 96.992 52.374 97.2682 52.6024C97.2944 52.632 97.3272 52.6551 97.3639 52.6698C97.4006 52.6844 97.4402 52.6903 97.4796 52.687Z" fill="#263238"/>
<path d="M97.3954 54.7285C97.5464 55.1754 97.4376 55.6163 97.1417 55.719C96.8457 55.8217 96.4833 55.5318 96.3263 55.0848C96.1692 54.6379 96.284 54.1909 96.5799 54.0943C96.8759 53.9976 97.2444 54.3057 97.3954 54.7285Z" fill="#263238"/>
<path d="M92.159 56.8848C92.3161 57.3317 92.2013 57.7726 91.9053 57.8753C91.6094 57.978 91.247 57.6881 91.0899 57.2713C90.9329 56.8546 91.0477 56.3774 91.3436 56.2808C91.6396 56.1841 92.002 56.4318 92.159 56.8848Z" fill="#263238"/>
<path d="M91.0898 56.5103L91.5851 55.4473C91.5851 55.4473 91.869 56.462 91.0898 56.5103Z" fill="#263238"/>
<path d="M96.2891 54.4205L96.7843 53.3574C96.7843 53.3574 97.0682 54.3661 96.2891 54.4205Z" fill="#263238"/>
<path opacity="0.5" d="M89.9966 85.8044L84.7539 87.7735C86.9102 91.772 88.6195 95.0819 89.9302 97.9569C89.6107 93.9114 89.633 89.8462 89.9966 85.8044Z" fill="#0065FF"/>
<path d="M122.811 227.189H129.703V127.885H122.811L122.811 227.189Z" fill="url(#paint5_linear_1_5860)"/>
<path opacity="0.2" d="M122.818 127.891H129.71V144.592L122.818 142.816V127.891Z" fill="black"/>
<path d="M163.109 140.255H101.634V128.743C101.634 124.558 103.296 120.546 106.255 117.587C109.214 114.628 113.227 112.966 117.411 112.966H147.333C151.517 112.966 155.53 114.628 158.489 117.587C161.447 120.546 163.109 124.558 163.109 128.743V140.255Z" fill="url(#paint6_linear_1_5860)"/>
<path d="M106.171 121.386L105.15 119.93C104.96 119.661 104.709 119.44 104.417 119.287C104.125 119.133 103.801 119.052 103.471 119.048H100.342C99.7269 119.043 99.119 119.185 98.5694 119.462C98.0199 119.74 97.5447 120.145 97.1835 120.643L96.7305 121.247C98.2586 123.784 101.774 125.39 101.774 125.39L102.728 125.964C102.92 126.087 103.134 126.171 103.359 126.21C103.583 126.249 103.813 126.243 104.035 126.193C104.257 126.142 104.467 126.048 104.652 125.915C104.837 125.783 104.994 125.615 105.114 125.421L106.268 123.554C106.463 123.222 106.557 122.841 106.54 122.456C106.523 122.071 106.395 121.699 106.171 121.386Z" fill="#FFC3BD"/>
<path d="M91.928 84.3125C91.771 84.6447 91.5656 85.1279 91.3905 85.5205L90.8529 86.8614C90.5026 87.7613 90.1704 88.6734 89.8684 89.5854C89.2666 91.3958 88.7685 93.2389 88.3765 95.106C88.1953 96.0241 88.0443 96.918 87.9296 97.8361C87.8334 98.7087 87.7809 99.5856 87.7725 100.463C87.7255 101.947 87.9867 103.423 88.5396 104.8L88.7691 105.283C88.7859 105.323 88.8 105.363 88.8114 105.404C89.1974 106.606 89.7924 107.731 90.569 108.726C91.4701 109.935 92.4593 111.076 93.5286 112.139C94.64 113.226 95.8299 114.283 97.062 115.298C97.666 115.805 98.3184 116.294 98.9586 116.771C99.5988 117.249 100.275 117.732 100.873 118.124L97.4486 123.56C96.6272 123.047 95.9326 122.576 95.1896 122.075C94.4467 121.573 93.7461 121.06 93.0334 120.534C91.6079 119.496 90.2127 118.39 88.8537 117.194C87.4422 115.982 86.1219 114.668 84.9035 113.262C84.2438 112.5 83.6384 111.693 83.0915 110.846C82.4816 109.921 81.9695 108.936 81.5634 107.905L81.8352 108.509C80.5449 106.151 79.7979 103.534 79.6487 100.85C79.4962 98.4975 79.5609 96.1359 79.842 93.7953C80.1063 91.561 80.4934 89.343 81.0017 87.1513C81.2433 86.0681 81.5131 84.989 81.811 83.9139C81.956 83.3763 82.107 82.8448 82.2701 82.3072C82.4332 81.7697 82.5902 81.2623 82.8137 80.6221L91.928 84.3125Z" fill="url(#paint7_linear_1_5860)"/>
<path opacity="0.5" d="M91.928 84.3125C91.771 84.6447 91.5656 85.1279 91.3905 85.5205L90.8529 86.8614C90.5026 87.7613 90.1704 88.6734 89.8684 89.5854C89.2666 91.3958 88.7685 93.2389 88.3765 95.106C88.1953 96.0241 88.0443 96.918 87.9296 97.8361C87.8334 98.7087 87.7809 99.5856 87.7725 100.463C87.7255 101.947 87.9867 103.423 88.5396 104.8L88.7691 105.283C88.7859 105.323 88.8 105.363 88.8114 105.404C89.1974 106.606 89.7924 107.731 90.569 108.726C91.4701 109.935 92.4593 111.076 93.5286 112.139C94.64 113.226 95.8299 114.283 97.062 115.298C97.666 115.805 98.3184 116.294 98.9586 116.771C99.5988 117.249 100.275 117.732 100.873 118.124L97.4486 123.56C96.6272 123.047 95.9326 122.576 95.1896 122.075C94.4467 121.573 93.7461 121.06 93.0334 120.534C91.6079 119.496 90.2127 118.39 88.8537 117.194C87.4422 115.982 86.1219 114.668 84.9035 113.262C84.2438 112.5 83.6384 111.693 83.0915 110.846C82.4816 109.921 81.9695 108.936 81.5634 107.905L81.8352 108.509C80.5449 106.151 79.7979 103.534 79.6487 100.85C79.4962 98.4975 79.5609 96.1359 79.842 93.7953C80.1063 91.561 80.4934 89.343 81.0017 87.1513C81.2433 86.0681 81.5131 84.989 81.811 83.9139C81.956 83.3763 82.107 82.8448 82.2701 82.3072C82.4332 81.7697 82.5902 81.2623 82.8137 80.6221L91.928 84.3125Z" fill="white"/>
<path opacity="0.2" d="M101.634 136.842H131.557V129.238H101.634V136.842Z" fill="#56C102"/>
<path opacity="0.2" d="M131.557 140.255V128.743C131.557 124.559 133.219 120.546 136.177 117.587C139.136 114.628 143.149 112.966 147.333 112.966C151.517 112.966 155.53 114.628 158.489 117.587C161.447 120.546 163.11 124.559 163.11 128.743V140.255" fill="black"/>
<path d="M131.557 142.278H174.73V140.255H131.557V142.278Z" fill="url(#paint8_linear_1_5860)"/>
<path opacity="0.2" d="M143.178 142.278H174.73V140.255H143.178V142.278Z" fill="#56C102"/>
<path d="M126.265 131.992H127.383V105.338H126.265V131.992Z" fill="#E0E0E0"/>
<path d="M119.9 110.514H127.716V106.685C127.716 106.55 127.663 106.421 127.568 106.326C127.472 106.231 127.343 106.177 127.209 106.177H119.9L121.181 108.346L119.9 110.514Z" fill="url(#paint9_linear_1_5860)"/>
<path d="M198.463 29.1372C198.395 29.1361 198.33 29.1123 198.277 29.0696C198.225 29.0269 198.188 28.9677 198.173 28.9016C198.163 28.8631 198.161 28.8231 198.167 28.7838C198.173 28.7445 198.187 28.7068 198.208 28.673C198.229 28.6392 198.256 28.6099 198.289 28.5869C198.321 28.5639 198.358 28.5477 198.397 28.5392C199.067 28.3862 199.725 28.1843 200.366 27.9352C200.403 27.9206 200.442 27.9133 200.482 27.9138C200.521 27.9144 200.561 27.9228 200.597 27.9385C200.634 27.9542 200.667 27.9769 200.694 28.0054C200.722 28.0338 200.744 28.0675 200.758 28.1044C200.773 28.1412 200.78 28.1806 200.78 28.2203C200.779 28.26 200.771 28.2992 200.755 28.3357C200.739 28.3721 200.717 28.4051 200.688 28.4328C200.66 28.4605 200.626 28.4823 200.589 28.497C199.922 28.7638 199.236 28.9799 198.536 29.1432L198.463 29.1372Z" fill="url(#paint10_linear_1_5860)"/>
<path d="M175.765 133.478C175.687 133.477 175.613 133.446 175.557 133.392C175.501 133.339 175.467 133.266 175.463 133.188C175.461 133.148 175.467 133.109 175.481 133.072C175.495 133.034 175.516 133 175.543 132.971C175.569 132.942 175.602 132.918 175.638 132.902C175.674 132.885 175.713 132.876 175.753 132.874C177.148 132.802 178.573 132.675 179.981 132.488C180.06 132.479 180.139 132.501 180.202 132.549C180.265 132.598 180.307 132.669 180.319 132.747C180.325 132.787 180.323 132.827 180.313 132.865C180.303 132.904 180.285 132.94 180.261 132.972C180.237 133.003 180.206 133.03 180.172 133.049C180.137 133.069 180.099 133.081 180.059 133.085C178.634 133.279 177.19 133.406 175.777 133.472L175.765 133.478ZM184.221 132.361C184.141 132.369 184.06 132.346 183.997 132.296C183.935 132.245 183.894 132.172 183.885 132.092C183.877 132.012 183.9 131.931 183.95 131.869C184.001 131.806 184.074 131.765 184.154 131.757C185.574 131.449 186.957 131.086 188.261 130.676C188.3 130.66 188.342 130.652 188.384 130.653C188.425 130.654 188.467 130.663 188.505 130.681C188.543 130.698 188.576 130.724 188.604 130.755C188.632 130.787 188.652 130.824 188.665 130.864C188.678 130.904 188.682 130.946 188.677 130.987C188.673 131.029 188.66 131.069 188.639 131.105C188.618 131.142 188.59 131.173 188.556 131.198C188.522 131.223 188.483 131.24 188.443 131.249C187.12 131.666 185.725 132.035 184.281 132.349L184.221 132.361ZM192.344 129.751C192.287 129.752 192.231 129.735 192.183 129.704C192.134 129.673 192.096 129.629 192.073 129.576C192.055 129.54 192.045 129.501 192.043 129.461C192.041 129.421 192.047 129.381 192.061 129.344C192.074 129.306 192.095 129.271 192.122 129.242C192.149 129.212 192.181 129.188 192.218 129.172C193.242 128.714 194.229 128.179 195.171 127.571L195.89 127.088C195.957 127.044 196.038 127.028 196.116 127.044C196.194 127.06 196.262 127.106 196.307 127.172C196.329 127.205 196.345 127.241 196.354 127.28C196.362 127.318 196.363 127.358 196.355 127.397C196.348 127.436 196.333 127.473 196.311 127.506C196.289 127.539 196.261 127.567 196.228 127.589L195.503 128.072C194.54 128.698 193.531 129.25 192.483 129.721C192.445 129.739 192.404 129.749 192.363 129.751H192.344ZM199.454 125.046C199.41 125.046 199.368 125.037 199.328 125.019C199.289 125.001 199.253 124.976 199.224 124.944C199.172 124.882 199.146 124.803 199.152 124.723C199.158 124.643 199.194 124.568 199.254 124.515C200.324 123.591 201.316 122.581 202.22 121.495C202.272 121.434 202.347 121.396 202.427 121.389C202.507 121.383 202.587 121.407 202.649 121.458C202.679 121.484 202.705 121.514 202.723 121.549C202.742 121.584 202.753 121.623 202.756 121.662C202.76 121.702 202.755 121.741 202.743 121.779C202.731 121.817 202.711 121.851 202.685 121.881C201.762 122.985 200.752 124.013 199.665 124.956C199.614 125.009 199.545 125.041 199.472 125.046H199.454ZM204.823 118.463C204.774 118.463 204.727 118.45 204.684 118.426C204.613 118.39 204.559 118.327 204.534 118.251C204.509 118.176 204.516 118.093 204.551 118.022C204.749 117.643 204.93 117.257 205.095 116.862C205.468 115.961 205.771 115.032 206.001 114.084C206.01 114.044 206.028 114.007 206.052 113.974C206.076 113.941 206.106 113.913 206.141 113.891C206.175 113.87 206.214 113.856 206.254 113.849C206.295 113.843 206.336 113.845 206.375 113.854C206.415 113.864 206.452 113.881 206.485 113.905C206.518 113.929 206.546 113.959 206.568 113.994C206.589 114.029 206.603 114.067 206.61 114.108C206.616 114.148 206.614 114.189 206.605 114.229C206.369 115.208 206.056 116.168 205.669 117.098C205.5 117.502 205.312 117.901 205.107 118.306C205.081 118.354 205.043 118.394 204.996 118.422C204.949 118.449 204.896 118.463 204.841 118.463H204.823ZM206.919 110.236C206.879 110.234 206.839 110.224 206.803 110.206C206.767 110.188 206.735 110.163 206.708 110.133C206.682 110.103 206.662 110.067 206.649 110.029C206.637 109.991 206.632 109.95 206.635 109.91C206.689 109.089 206.72 108.219 206.72 107.258C206.72 106.727 206.72 106.201 206.72 105.67C206.718 105.63 206.724 105.59 206.739 105.552C206.753 105.514 206.774 105.48 206.802 105.451C206.829 105.421 206.862 105.398 206.899 105.382C206.936 105.365 206.975 105.357 207.016 105.356C207.056 105.354 207.095 105.361 207.133 105.375C207.17 105.389 207.204 105.41 207.233 105.438C207.262 105.466 207.284 105.499 207.3 105.536C207.316 105.572 207.324 105.612 207.324 105.652C207.324 106.189 207.324 106.721 207.324 107.258C207.324 108.237 207.293 109.119 207.239 109.952C207.234 110.029 207.201 110.101 207.145 110.154C207.088 110.207 207.014 110.236 206.937 110.236H206.919ZM206.804 101.69C206.727 101.69 206.653 101.66 206.597 101.608C206.541 101.555 206.507 101.483 206.502 101.406C206.448 100.198 206.394 98.8568 206.394 97.5401V97.1112C206.391 97.0711 206.397 97.0309 206.411 96.9933C206.425 96.9557 206.448 96.9217 206.476 96.8936C206.505 96.8654 206.539 96.8439 206.577 96.8303C206.615 96.8168 206.655 96.8117 206.696 96.8153C206.776 96.8153 206.852 96.8471 206.909 96.9037C206.966 96.9604 206.998 97.0372 206.998 97.1173V97.5401C206.998 98.8447 207.052 100.155 207.106 101.375C207.108 101.415 207.102 101.455 207.088 101.492C207.074 101.529 207.053 101.563 207.026 101.593C206.999 101.622 206.967 101.645 206.931 101.662C206.895 101.679 206.856 101.688 206.816 101.69H206.804ZM232.625 97.9689C232.076 97.9689 231.538 97.9689 231.025 97.9327C230.985 97.9311 230.946 97.9218 230.91 97.9051C230.874 97.8885 230.841 97.8649 230.815 97.8358C230.788 97.8066 230.767 97.7724 230.753 97.7351C230.739 97.6979 230.733 97.6583 230.735 97.6186C230.736 97.5789 230.746 97.54 230.762 97.5039C230.779 97.4679 230.802 97.4354 230.832 97.4085C230.861 97.3816 230.895 97.3607 230.932 97.347C230.97 97.3333 231.009 97.3271 231.049 97.3287C231.556 97.3287 232.088 97.3649 232.625 97.3649C233.511 97.3694 234.396 97.325 235.277 97.232C235.357 97.2232 235.437 97.2466 235.5 97.297C235.563 97.3474 235.603 97.4207 235.612 97.5008C235.621 97.5809 235.597 97.6612 235.547 97.7241C235.497 97.787 235.423 97.8272 235.343 97.836C234.446 97.9283 233.545 97.9726 232.643 97.9689H232.625ZM226.772 97.6609C225.359 97.5522 223.922 97.4253 222.508 97.2804C222.469 97.2766 222.43 97.265 222.395 97.2462C222.359 97.2274 222.328 97.2018 222.303 97.171C222.278 97.1401 222.259 97.1045 222.247 97.0662C222.236 97.028 222.232 96.9879 222.236 96.9482C222.24 96.9084 222.252 96.8698 222.271 96.8346C222.289 96.7994 222.315 96.7682 222.346 96.743C222.377 96.7177 222.412 96.6988 222.451 96.6874C222.489 96.6759 222.529 96.6722 222.569 96.6764C223.976 96.8213 225.407 96.9542 226.797 97.0629C226.877 97.0629 226.954 97.0947 227.01 97.1514C227.067 97.208 227.099 97.2848 227.099 97.3649C227.099 97.445 227.067 97.5218 227.01 97.5785C226.954 97.6351 226.877 97.6669 226.797 97.6669L226.772 97.6609ZM239.456 96.7972C239.399 96.7965 239.342 96.7797 239.293 96.7488C239.244 96.7179 239.204 96.674 239.179 96.622C239.146 96.5491 239.144 96.4662 239.172 96.3915C239.2 96.3168 239.257 96.2563 239.33 96.2234C240.596 95.6867 241.669 94.7764 242.404 93.6141C242.423 93.5767 242.449 93.5436 242.481 93.517C242.513 93.4903 242.551 93.4706 242.591 93.4591C242.631 93.4476 242.673 93.4445 242.715 93.4502C242.756 93.4558 242.796 93.47 242.832 93.4918C242.867 93.5136 242.898 93.5426 242.922 93.5769C242.946 93.6112 242.962 93.6501 242.97 93.6911C242.978 93.7322 242.978 93.7744 242.969 93.8152C242.96 93.856 242.942 93.8945 242.917 93.9282C242.122 95.1944 240.959 96.1871 239.583 96.773C239.543 96.7897 239.5 96.798 239.456 96.7972ZM218.286 96.7972H218.25C216.843 96.616 215.411 96.4106 214.022 96.1932C213.983 96.1873 213.945 96.1737 213.911 96.1532C213.877 96.1327 213.847 96.1056 213.824 96.0737C213.8 96.0417 213.783 96.0054 213.774 95.9668C213.764 95.9282 213.762 95.8882 213.768 95.8489C213.782 95.7702 213.825 95.6999 213.889 95.6526C213.954 95.6052 214.034 95.5847 214.113 95.5952C215.514 95.8126 216.933 96.018 218.341 96.1992C218.421 96.204 218.496 96.2404 218.549 96.3005C218.602 96.3605 218.629 96.4392 218.625 96.5193C218.62 96.5994 218.583 96.6743 218.523 96.7276C218.463 96.7808 218.384 96.808 218.304 96.8032L218.286 96.7972ZM209.83 95.4865H209.776C208.381 95.2328 206.967 94.955 205.578 94.665C205.498 94.649 205.428 94.6018 205.382 94.5339C205.337 94.4659 205.32 94.3827 205.337 94.3026C205.353 94.2225 205.4 94.1521 205.468 94.1068C205.536 94.0615 205.619 94.045 205.699 94.061C207.088 94.351 208.495 94.6288 209.885 94.8825C209.924 94.8891 209.962 94.9034 209.995 94.9246C210.029 94.9458 210.058 94.9735 210.081 95.006C210.105 95.0386 210.121 95.0754 210.13 95.1143C210.138 95.1533 210.139 95.1935 210.132 95.2328C210.117 95.3005 210.08 95.3612 210.026 95.405C209.973 95.4489 209.906 95.4733 209.836 95.4744L209.83 95.4865ZM201.465 93.7349H201.392C200.015 93.4087 198.614 93.0584 197.243 92.696C197.203 92.6861 197.166 92.6685 197.133 92.6441C197.1 92.6198 197.073 92.5892 197.051 92.5542C197.03 92.5191 197.017 92.4803 197.011 92.4398C197.005 92.3994 197.007 92.3582 197.016 92.3185C197.026 92.2788 197.044 92.2415 197.068 92.2087C197.093 92.1758 197.123 92.1481 197.158 92.1271C197.193 92.106 197.232 92.0921 197.273 92.0861C197.313 92.0801 197.354 92.0821 197.394 92.092C198.765 92.4544 200.154 92.8047 201.531 93.1248C201.61 93.1449 201.677 93.1944 201.72 93.263C201.763 93.3317 201.777 93.4141 201.761 93.4933C201.745 93.5583 201.708 93.6161 201.655 93.6576C201.603 93.6991 201.538 93.7221 201.471 93.7228L201.465 93.7349ZM207.01 93.1671H206.961C206.883 93.1537 206.812 93.1104 206.765 93.0462C206.718 92.982 206.697 92.9019 206.708 92.8228C206.919 91.3867 207.277 89.976 207.777 88.613C207.804 88.5377 207.86 88.4763 207.932 88.4424C208.005 88.4084 208.088 88.4046 208.163 88.4318C208.239 88.459 208.3 88.515 208.334 88.5875C208.368 88.66 208.372 88.743 208.344 88.8183C207.863 90.1406 207.519 91.5088 207.318 92.9014C207.306 92.9728 207.269 93.0378 207.214 93.0843C207.158 93.1309 207.088 93.156 207.016 93.155L207.01 93.1671ZM193.196 91.5544C193.168 91.56 193.139 91.56 193.112 91.5544C191.753 91.1618 190.369 90.739 189.016 90.3042C188.978 90.2926 188.943 90.2734 188.912 90.2477C188.882 90.2221 188.857 90.1906 188.839 90.1551C188.821 90.1195 188.81 90.0807 188.807 90.0409C188.805 90.0012 188.81 89.9613 188.823 89.9236C188.848 89.8476 188.902 89.7845 188.973 89.7483C189.045 89.712 189.128 89.7056 189.204 89.7304C190.551 90.1592 191.922 90.582 193.281 90.9746C193.358 90.997 193.422 91.0491 193.461 91.1193C193.499 91.1895 193.508 91.2722 193.486 91.3491C193.465 91.4068 193.426 91.4565 193.375 91.4911C193.324 91.5257 193.264 91.5437 193.202 91.5424L193.196 91.5544ZM243.515 90.0022C243.445 90.0008 243.378 89.9755 243.324 89.9304C243.27 89.8854 243.233 89.8233 243.219 89.7545C242.893 88.423 242.143 87.2337 241.081 86.3661C241.053 86.3385 241.031 86.3056 241.016 86.2693C241 86.233 240.992 86.1941 240.992 86.1547C240.992 86.1153 241 86.0763 241.016 86.04C241.031 86.0037 241.053 85.9708 241.081 85.9433C241.109 85.915 241.143 85.8925 241.18 85.8772C241.216 85.8618 241.256 85.854 241.296 85.854C241.336 85.854 241.375 85.8618 241.412 85.8772C241.449 85.8925 241.482 85.915 241.51 85.9433C242.671 86.8959 243.488 88.2028 243.835 89.6639C243.843 89.7028 243.844 89.7428 243.836 89.7818C243.829 89.8207 243.813 89.8578 243.792 89.8909C243.77 89.924 243.741 89.9525 243.709 89.9747C243.676 89.9969 243.639 90.0124 243.6 90.0203L243.515 90.0022ZM185.06 88.9452C185.026 88.9514 184.992 88.9514 184.958 88.9452C183.58 88.4559 182.234 87.9486 180.941 87.4412C180.867 87.4104 180.809 87.3522 180.777 87.279C180.746 87.2058 180.744 87.1232 180.772 87.0486C180.786 87.0117 180.808 86.978 180.836 86.9496C180.864 86.9211 180.897 86.8983 180.933 86.8826C180.97 86.8669 181.009 86.8586 181.048 86.858C181.088 86.8575 181.128 86.8648 181.164 86.8795C182.445 87.3868 183.792 87.8882 185.157 88.3774C185.232 88.4035 185.293 88.4581 185.329 88.5293C185.364 88.6005 185.369 88.6826 185.344 88.7579C185.32 88.8108 185.28 88.8555 185.231 88.8866C185.182 88.9177 185.125 88.9338 185.066 88.9331L185.06 88.9452ZM177.112 85.7862C177.072 85.7951 177.031 85.7951 176.991 85.7862C175.662 85.1822 174.357 84.5782 173.119 83.944C173.081 83.9281 173.046 83.9044 173.017 83.8744C172.989 83.8445 172.966 83.8089 172.952 83.77C172.938 83.731 172.931 83.6895 172.934 83.648C172.936 83.6066 172.947 83.566 172.966 83.529C172.984 83.4919 173.011 83.4591 173.043 83.4326C173.075 83.4061 173.112 83.3865 173.152 83.375C173.192 83.3636 173.233 83.3604 173.275 83.3658C173.316 83.3712 173.355 83.3851 173.391 83.4065C174.599 84.0105 175.916 84.6145 177.238 85.2185C177.319 85.2353 177.389 85.2833 177.433 85.3518C177.478 85.4203 177.494 85.5038 177.477 85.5839C177.46 85.664 177.412 85.7341 177.344 85.7789C177.275 85.8236 177.192 85.8393 177.112 85.8225V85.7862ZM210.042 85.2608C209.977 85.2606 209.914 85.2417 209.86 85.2064C209.796 85.1583 209.754 85.0868 209.743 85.0075C209.731 84.9282 209.752 84.8477 209.8 84.7836C210.59 83.6996 211.56 82.7598 212.669 82.0052L212.983 81.8059C213.017 81.7849 213.054 81.7707 213.094 81.7642C213.133 81.7576 213.173 81.7589 213.212 81.7679C213.25 81.7769 213.287 81.7934 213.319 81.8165C213.351 81.8396 213.379 81.8688 213.4 81.9025C213.421 81.9362 213.435 81.9738 213.442 82.0129C213.448 82.0521 213.447 82.0922 213.438 82.1309C213.429 82.1696 213.412 82.2062 213.389 82.2385C213.366 82.2708 213.337 82.2983 213.303 82.3193L213.007 82.5065C211.955 83.2222 211.034 84.1129 210.283 85.14C210.254 85.1741 210.218 85.2016 210.178 85.2203C210.137 85.2391 210.093 85.2488 210.048 85.2487L210.042 85.2608ZM237.747 84.0528C237.697 84.0523 237.647 84.0399 237.602 84.0165C237.095 83.7447 236.6 83.491 236.128 83.2555C235.361 82.881 234.57 82.5307 233.773 82.2166C233.733 82.2045 233.696 82.1844 233.665 82.1574C233.633 82.1304 233.607 82.0972 233.589 82.0599C233.571 82.0225 233.561 81.9818 233.559 81.9403C233.557 81.8988 233.564 81.8574 233.579 81.8186C233.594 81.7799 233.617 81.7447 233.646 81.7151C233.675 81.6856 233.71 81.6625 233.749 81.6471C233.788 81.6317 233.829 81.6245 233.87 81.6258C233.912 81.6272 233.953 81.6371 233.99 81.6549C234.806 81.969 235.615 82.3314 236.406 82.7179C236.877 82.9535 237.385 83.2072 237.898 83.485C237.968 83.5244 238.019 83.5893 238.042 83.6659C238.064 83.7426 238.056 83.825 238.019 83.8957C237.992 83.9416 237.953 83.9792 237.906 84.0048C237.859 84.0303 237.806 84.0427 237.753 84.0407L237.747 84.0528ZM169.495 81.9086C169.442 81.9096 169.389 81.8949 169.344 81.8663C168.082 81.1354 166.856 80.3744 165.72 79.5952C165.662 79.548 165.623 79.4807 165.611 79.4063C165.6 79.3319 165.616 79.256 165.658 79.1932C165.699 79.1305 165.763 79.0856 165.836 79.0672C165.909 79.0488 165.986 79.0583 166.052 79.0939C167.2 79.861 168.414 80.622 169.676 81.3468C169.733 81.3805 169.777 81.4317 169.802 81.4928C169.827 81.5538 169.831 81.6213 169.814 81.685C169.797 81.7486 169.759 81.8049 169.707 81.8453C169.655 81.8857 169.591 81.9079 169.525 81.9086H169.495ZM229.805 80.9603H229.732C228.358 80.6345 226.964 80.4045 225.558 80.2717C225.479 80.2641 225.406 80.2255 225.356 80.1645C225.305 80.1034 225.28 80.0248 225.287 79.9456C225.296 79.8659 225.336 79.793 225.398 79.7423C225.46 79.6915 225.539 79.667 225.619 79.6738C227.043 79.8087 228.456 80.0428 229.847 80.3744C229.927 80.3832 230 80.4235 230.051 80.4863C230.101 80.5492 230.124 80.6295 230.116 80.7096C230.107 80.7897 230.067 80.863 230.004 80.9134C229.941 80.9638 229.86 80.9872 229.78 80.9784L229.805 80.9603ZM217.09 80.767C217.022 80.7662 216.956 80.7427 216.902 80.7C216.848 80.6573 216.811 80.598 216.794 80.5314C216.776 80.4538 216.79 80.3721 216.831 80.3042C216.873 80.2363 216.94 80.1877 217.018 80.169C218.079 79.9182 219.157 79.7466 220.243 79.6556C220.594 79.6556 220.95 79.6013 221.3 79.5832C221.34 79.579 221.381 79.5831 221.419 79.5954C221.457 79.6077 221.493 79.6279 221.523 79.6546C221.553 79.6813 221.577 79.714 221.594 79.7506C221.611 79.7871 221.62 79.8268 221.62 79.867C221.624 79.9462 221.596 80.0234 221.543 80.0822C221.49 80.1409 221.416 80.1764 221.336 80.1811C220.986 80.1811 220.642 80.2294 220.298 80.2596C219.242 80.3471 218.194 80.5127 217.163 80.7549L217.09 80.767ZM162.41 77.143C162.343 77.1443 162.277 77.1231 162.223 77.0826C161.075 76.1826 159.976 75.2404 158.955 74.2921C158.927 74.264 158.905 74.2306 158.889 74.1938C158.874 74.157 158.866 74.1176 158.866 74.0777C158.866 74.0378 158.874 73.9984 158.889 73.9616C158.905 73.9248 158.927 73.8914 158.955 73.8633C159.013 73.8076 159.09 73.7764 159.17 73.7764C159.25 73.7764 159.327 73.8076 159.384 73.8633C160.393 74.8055 161.48 75.7357 162.616 76.6236C162.678 76.6734 162.718 76.7458 162.727 76.825C162.736 76.9042 162.713 76.9838 162.664 77.0464C162.632 77.0778 162.592 77.1013 162.549 77.1149C162.506 77.1285 162.461 77.132 162.416 77.1249L162.41 77.143ZM156.177 71.3144C156.134 71.314 156.091 71.3047 156.051 71.287C156.012 71.2694 155.977 71.2437 155.947 71.2117C154.998 70.1327 154.113 68.9993 153.296 67.8172C153.251 67.7512 153.233 67.6701 153.246 67.5912C153.26 67.5122 153.304 67.4417 153.368 67.3944C153.436 67.3513 153.517 67.3354 153.595 67.35C153.674 67.3646 153.744 67.4086 153.791 67.473C154.607 68.6316 155.49 69.7409 156.437 70.795C156.492 70.8514 156.523 70.9273 156.523 71.0064C156.523 71.0854 156.492 71.1613 156.437 71.2178C156.403 71.2493 156.363 71.2728 156.319 71.2864C156.275 71.3 156.228 71.3034 156.183 71.2963L156.177 71.3144ZM151.345 64.2899C151.289 64.2896 151.235 64.2735 151.188 64.2436C151.141 64.2137 151.103 64.1711 151.079 64.1208C150.417 62.8439 149.846 61.5219 149.37 60.1646C149.345 60.0884 149.35 60.0055 149.385 59.9333C149.42 59.8611 149.482 59.8054 149.557 59.778C149.632 59.753 149.715 59.7586 149.786 59.7936C149.857 59.8286 149.912 59.8903 149.938 59.9652C150.405 61.298 150.966 62.5958 151.617 63.849C151.653 63.9203 151.659 64.0029 151.634 64.0787C151.609 64.1545 151.555 64.2174 151.484 64.2536C151.44 64.2715 151.392 64.2777 151.345 64.2718V64.2899ZM148.585 56.2204C148.513 56.2212 148.443 56.1959 148.389 56.1492C148.335 56.1026 148.299 56.0377 148.289 55.9668C148.228 55.6466 148.18 55.3265 148.132 55.0004C147.984 53.9356 147.909 52.862 147.908 51.7871V51.6602C147.908 51.5802 147.94 51.5033 147.997 51.4467C148.053 51.3901 148.13 51.3582 148.21 51.3582C148.29 51.3582 148.367 51.3901 148.424 51.4467C148.48 51.5033 148.512 51.5802 148.512 51.6602V51.781C148.511 52.8278 148.584 53.8732 148.73 54.9098C148.778 55.2299 148.826 55.544 148.881 55.858C148.895 55.9365 148.877 56.0174 148.832 56.083C148.787 56.1486 148.717 56.1937 148.639 56.2084L148.585 56.2204ZM148.615 47.7161H148.561C148.482 47.7014 148.413 47.6564 148.368 47.5907C148.322 47.5251 148.305 47.4443 148.319 47.3658C148.582 45.947 148.963 44.5528 149.46 43.1982C149.49 43.1235 149.548 43.063 149.621 43.0293C149.694 42.9956 149.777 42.9912 149.853 43.017C149.927 43.0455 149.987 43.102 150.02 43.1743C150.053 43.2467 150.056 43.329 150.028 43.4036C149.54 44.7261 149.166 46.0881 148.911 47.4745C148.898 47.5488 148.856 47.6151 148.796 47.66C148.735 47.705 148.66 47.725 148.585 47.7161H148.615ZM151.562 39.7373C151.51 39.7346 151.458 39.7201 151.411 39.695C151.342 39.6535 151.292 39.5867 151.272 39.5088C151.252 39.4309 151.263 39.3481 151.303 39.2782C152.029 38.0304 152.868 36.8517 153.809 35.7569C153.864 35.7076 153.935 35.6799 154.009 35.6792C154.082 35.6785 154.154 35.7047 154.209 35.753C154.265 35.8012 154.301 35.8682 154.311 35.9412C154.321 36.0143 154.303 36.0883 154.262 36.1495C153.357 37.2217 152.549 38.3718 151.846 39.5863C151.817 39.6387 151.772 39.681 151.718 39.7079C151.665 39.7348 151.604 39.7451 151.544 39.7373H151.562ZM157.125 33.3047C157.063 33.3043 157.002 33.2846 156.951 33.2484C156.901 33.2121 156.862 33.161 156.842 33.102C156.821 33.0431 156.819 32.9793 156.837 32.9193C156.854 32.8593 156.889 32.8062 156.938 32.7671C158.079 31.881 159.303 31.1064 160.592 30.4538C160.664 30.4178 160.748 30.4118 160.824 30.4373C160.901 30.4628 160.964 30.5176 161 30.5897C161.036 30.6618 161.042 30.7452 161.016 30.8217C160.991 30.8982 160.936 30.9614 160.864 30.9974C159.61 31.6328 158.419 32.3851 157.306 33.2443C157.25 33.2879 157.179 33.3094 157.107 33.3047H157.125ZM194.223 29.5418C192.785 29.5102 191.35 29.383 189.928 29.1612C189.848 29.15 189.776 29.1075 189.727 29.0429C189.679 28.9783 189.658 28.8971 189.669 28.817C189.68 28.7369 189.723 28.6645 189.787 28.6158C189.852 28.5671 189.933 28.546 190.013 28.5572C191.412 28.7773 192.825 28.9024 194.241 28.9317C194.321 28.9317 194.398 28.9635 194.455 29.0202C194.511 29.0768 194.543 29.1536 194.543 29.2337C194.543 29.3138 194.511 29.3906 194.455 29.4473C194.398 29.5039 194.321 29.5357 194.241 29.5357L194.223 29.5418ZM164.663 29.3847C164.623 29.3911 164.583 29.3895 164.544 29.3802C164.505 29.3709 164.468 29.354 164.435 29.3304C164.403 29.3069 164.375 29.2771 164.354 29.2429C164.333 29.2087 164.319 29.1707 164.313 29.131C164.307 29.0914 164.308 29.0509 164.317 29.0118C164.327 28.9727 164.344 28.9359 164.367 28.9033C164.391 28.8708 164.42 28.8432 164.455 28.8222C164.489 28.8012 164.527 28.7871 164.567 28.7807C165.933 28.3371 167.325 27.9741 168.734 27.6935C168.773 27.6857 168.814 27.6857 168.853 27.6936C168.892 27.7015 168.93 27.7172 168.963 27.7397C168.996 27.7622 169.024 27.791 169.046 27.8246C169.068 27.8581 169.083 27.8957 169.09 27.9351C169.099 27.9737 169.1 28.0136 169.093 28.0525C169.086 28.0914 169.07 28.1283 169.048 28.1612C169.026 28.194 168.998 28.2219 168.964 28.2433C168.931 28.2647 168.894 28.279 168.855 28.2854C167.468 28.5628 166.099 28.9198 164.754 29.3545L164.663 29.3847ZM185.755 28.4364H185.7C184.402 28.1948 182.934 27.923 181.472 27.7177C181.394 27.7057 181.324 27.6636 181.277 27.6004C181.229 27.5371 181.208 27.4578 181.219 27.3794C181.223 27.3399 181.236 27.3016 181.255 27.2669C181.275 27.2323 181.301 27.2019 181.333 27.1776C181.364 27.1534 181.4 27.1358 181.439 27.1258C181.478 27.1159 181.518 27.1138 181.557 27.1197C183.007 27.3251 184.48 27.6029 185.785 27.8445C185.863 27.8592 185.933 27.9043 185.978 27.9699C186.023 28.0355 186.041 28.1164 186.027 28.1948C186.016 28.2621 185.984 28.324 185.935 28.371C185.886 28.418 185.822 28.4473 185.755 28.4546V28.4364ZM173.023 27.6573C172.942 27.6621 172.864 27.6349 172.804 27.5816C172.744 27.5284 172.707 27.4535 172.702 27.3734C172.698 27.2933 172.725 27.2146 172.778 27.1546C172.831 27.0945 172.906 27.0581 172.986 27.0533C173.753 26.9687 174.575 26.8902 175.402 26.8238C175.934 26.7815 176.496 26.7573 177.069 26.7573H177.269C177.308 26.7581 177.347 26.7667 177.384 26.7826C177.42 26.7985 177.453 26.8214 177.48 26.85C177.508 26.8786 177.53 26.9124 177.544 26.9493C177.558 26.9863 177.565 27.0257 177.565 27.0654C177.56 27.1434 177.527 27.217 177.471 27.2718C177.415 27.3265 177.341 27.3584 177.263 27.3613H177.069C176.514 27.3613 175.97 27.3613 175.445 27.4217C174.611 27.4882 173.802 27.5667 173.029 27.6573H173.023Z" fill="url(#paint11_linear_1_5860)"/>
<path d="M171.429 133.49C170.71 133.46 169.997 133.406 169.309 133.339C169.269 133.336 169.231 133.325 169.195 133.307C169.16 133.289 169.129 133.264 169.104 133.233C169.078 133.203 169.059 133.168 169.048 133.13C169.036 133.092 169.033 133.052 169.037 133.013C169.039 132.973 169.049 132.934 169.067 132.899C169.085 132.863 169.11 132.831 169.141 132.806C169.171 132.78 169.207 132.762 169.245 132.75C169.283 132.739 169.323 132.736 169.363 132.741C170.045 132.808 170.746 132.856 171.459 132.886C171.539 132.886 171.616 132.918 171.672 132.975C171.729 133.031 171.761 133.108 171.761 133.188C171.761 133.268 171.729 133.345 171.672 133.402C171.616 133.458 171.539 133.49 171.459 133.49H171.429Z" fill="url(#paint12_linear_1_5860)"/>
<g opacity="0.6">
<path d="M198.463 29.1372C198.395 29.1361 198.33 29.1123 198.277 29.0696C198.225 29.0269 198.188 28.9677 198.173 28.9016C198.163 28.8631 198.161 28.8231 198.167 28.7838C198.173 28.7445 198.187 28.7068 198.208 28.673C198.229 28.6392 198.256 28.6099 198.289 28.5869C198.321 28.5639 198.358 28.5477 198.397 28.5392C199.067 28.3862 199.725 28.1843 200.366 27.9352C200.403 27.9206 200.442 27.9133 200.482 27.9138C200.521 27.9144 200.561 27.9228 200.597 27.9385C200.634 27.9542 200.667 27.9769 200.694 28.0054C200.722 28.0338 200.744 28.0675 200.758 28.1044C200.773 28.1412 200.78 28.1806 200.78 28.2203C200.779 28.26 200.771 28.2992 200.755 28.3357C200.739 28.3721 200.717 28.4051 200.688 28.4328C200.66 28.4605 200.626 28.4823 200.589 28.497C199.922 28.7638 199.236 28.9799 198.536 29.1432L198.463 29.1372Z" fill="url(#paint13_linear_1_5860)"/>
<path d="M175.765 133.478C175.687 133.477 175.613 133.446 175.557 133.392C175.501 133.339 175.467 133.266 175.463 133.188C175.461 133.148 175.467 133.109 175.481 133.072C175.495 133.034 175.516 133 175.543 132.971C175.569 132.942 175.602 132.918 175.638 132.902C175.674 132.885 175.713 132.876 175.753 132.874C177.148 132.802 178.573 132.675 179.981 132.488C180.06 132.479 180.139 132.501 180.202 132.549C180.265 132.598 180.307 132.669 180.319 132.747C180.325 132.787 180.323 132.827 180.313 132.865C180.303 132.904 180.285 132.94 180.261 132.972C180.237 133.003 180.206 133.03 180.172 133.049C180.137 133.069 180.099 133.081 180.059 133.085C178.634 133.279 177.19 133.406 175.777 133.472L175.765 133.478ZM184.221 132.361C184.141 132.369 184.06 132.346 183.997 132.296C183.935 132.245 183.894 132.172 183.885 132.092C183.877 132.012 183.9 131.931 183.95 131.869C184.001 131.806 184.074 131.765 184.154 131.757C185.574 131.449 186.957 131.086 188.261 130.676C188.3 130.66 188.342 130.652 188.384 130.653C188.425 130.654 188.467 130.663 188.505 130.681C188.543 130.698 188.576 130.724 188.604 130.755C188.632 130.787 188.652 130.824 188.665 130.864C188.678 130.904 188.682 130.946 188.677 130.987C188.673 131.029 188.66 131.069 188.639 131.105C188.618 131.142 188.59 131.173 188.556 131.198C188.522 131.223 188.483 131.24 188.443 131.249C187.12 131.666 185.725 132.035 184.281 132.349L184.221 132.361ZM192.344 129.751C192.287 129.752 192.231 129.735 192.183 129.704C192.134 129.673 192.096 129.629 192.073 129.576C192.055 129.54 192.045 129.501 192.043 129.461C192.041 129.421 192.047 129.381 192.061 129.344C192.074 129.306 192.095 129.271 192.122 129.242C192.149 129.212 192.181 129.188 192.218 129.172C193.242 128.714 194.229 128.179 195.171 127.571L195.89 127.088C195.957 127.044 196.038 127.028 196.116 127.044C196.194 127.06 196.262 127.106 196.307 127.172C196.329 127.205 196.345 127.241 196.354 127.28C196.362 127.318 196.363 127.358 196.355 127.397C196.348 127.436 196.333 127.473 196.311 127.506C196.289 127.539 196.261 127.567 196.228 127.589L195.503 128.072C194.54 128.698 193.531 129.25 192.483 129.721C192.445 129.739 192.404 129.749 192.363 129.751H192.344ZM199.454 125.046C199.41 125.046 199.368 125.037 199.328 125.019C199.289 125.001 199.253 124.976 199.224 124.944C199.172 124.882 199.146 124.803 199.152 124.723C199.158 124.643 199.194 124.568 199.254 124.515C200.324 123.591 201.316 122.581 202.22 121.495C202.272 121.434 202.347 121.396 202.427 121.389C202.507 121.383 202.587 121.407 202.649 121.458C202.679 121.484 202.705 121.514 202.723 121.549C202.742 121.584 202.753 121.623 202.756 121.662C202.76 121.702 202.755 121.741 202.743 121.779C202.731 121.817 202.711 121.851 202.685 121.881C201.762 122.985 200.752 124.013 199.665 124.956C199.614 125.009 199.545 125.041 199.472 125.046H199.454ZM204.823 118.463C204.774 118.463 204.727 118.45 204.684 118.426C204.613 118.39 204.559 118.327 204.534 118.251C204.509 118.176 204.516 118.093 204.551 118.022C204.749 117.643 204.93 117.257 205.095 116.862C205.468 115.961 205.771 115.032 206.001 114.084C206.01 114.044 206.028 114.007 206.052 113.974C206.076 113.941 206.106 113.913 206.141 113.891C206.175 113.87 206.214 113.856 206.254 113.849C206.295 113.843 206.336 113.845 206.375 113.854C206.415 113.864 206.452 113.881 206.485 113.905C206.518 113.929 206.546 113.959 206.568 113.994C206.589 114.029 206.603 114.067 206.61 114.108C206.616 114.148 206.614 114.189 206.605 114.229C206.369 115.208 206.056 116.168 205.669 117.098C205.5 117.502 205.312 117.901 205.107 118.306C205.081 118.354 205.043 118.394 204.996 118.422C204.949 118.449 204.896 118.463 204.841 118.463H204.823ZM206.919 110.236C206.879 110.234 206.839 110.224 206.803 110.206C206.767 110.188 206.735 110.163 206.708 110.133C206.682 110.103 206.662 110.067 206.649 110.029C206.637 109.991 206.632 109.95 206.635 109.91C206.689 109.089 206.72 108.219 206.72 107.258C206.72 106.727 206.72 106.201 206.72 105.67C206.718 105.63 206.724 105.59 206.739 105.552C206.753 105.514 206.774 105.48 206.802 105.451C206.829 105.421 206.862 105.398 206.899 105.382C206.936 105.365 206.975 105.357 207.016 105.356C207.056 105.354 207.095 105.361 207.133 105.375C207.17 105.389 207.204 105.41 207.233 105.438C207.262 105.466 207.284 105.499 207.3 105.536C207.316 105.572 207.324 105.612 207.324 105.652C207.324 106.189 207.324 106.721 207.324 107.258C207.324 108.237 207.293 109.119 207.239 109.952C207.234 110.029 207.201 110.101 207.145 110.154C207.088 110.207 207.014 110.236 206.937 110.236H206.919ZM206.804 101.69C206.727 101.69 206.653 101.66 206.597 101.608C206.541 101.555 206.507 101.483 206.502 101.406C206.448 100.198 206.394 98.8568 206.394 97.5401V97.1112C206.391 97.0711 206.397 97.0309 206.411 96.9933C206.425 96.9557 206.448 96.9217 206.476 96.8936C206.505 96.8654 206.539 96.8439 206.577 96.8303C206.615 96.8168 206.655 96.8117 206.696 96.8153C206.776 96.8153 206.852 96.8471 206.909 96.9037C206.966 96.9604 206.998 97.0372 206.998 97.1173V97.5401C206.998 98.8447 207.052 100.155 207.106 101.375C207.108 101.415 207.102 101.455 207.088 101.492C207.074 101.529 207.053 101.563 207.026 101.593C206.999 101.622 206.967 101.645 206.931 101.662C206.895 101.679 206.856 101.688 206.816 101.69H206.804ZM232.625 97.9689C232.076 97.9689 231.538 97.9689 231.025 97.9327C230.985 97.9311 230.946 97.9218 230.91 97.9051C230.874 97.8885 230.841 97.8649 230.815 97.8358C230.788 97.8066 230.767 97.7724 230.753 97.7351C230.739 97.6979 230.733 97.6583 230.735 97.6186C230.736 97.5789 230.746 97.54 230.762 97.5039C230.779 97.4679 230.802 97.4354 230.832 97.4085C230.861 97.3816 230.895 97.3607 230.932 97.347C230.97 97.3333 231.009 97.3271 231.049 97.3287C231.556 97.3287 232.088 97.3649 232.625 97.3649C233.511 97.3694 234.396 97.325 235.277 97.232C235.357 97.2232 235.437 97.2466 235.5 97.297C235.563 97.3474 235.603 97.4207 235.612 97.5008C235.621 97.5809 235.597 97.6612 235.547 97.7241C235.497 97.787 235.423 97.8272 235.343 97.836C234.446 97.9283 233.545 97.9726 232.643 97.9689H232.625ZM226.772 97.6609C225.359 97.5522 223.922 97.4253 222.508 97.2804C222.469 97.2766 222.43 97.265 222.395 97.2462C222.359 97.2274 222.328 97.2018 222.303 97.171C222.278 97.1401 222.259 97.1045 222.247 97.0662C222.236 97.028 222.232 96.9879 222.236 96.9482C222.24 96.9084 222.252 96.8698 222.271 96.8346C222.289 96.7994 222.315 96.7682 222.346 96.743C222.377 96.7177 222.412 96.6988 222.451 96.6874C222.489 96.6759 222.529 96.6722 222.569 96.6764C223.976 96.8213 225.407 96.9542 226.797 97.0629C226.877 97.0629 226.954 97.0947 227.01 97.1514C227.067 97.208 227.099 97.2848 227.099 97.3649C227.099 97.445 227.067 97.5218 227.01 97.5785C226.954 97.6351 226.877 97.6669 226.797 97.6669L226.772 97.6609ZM239.456 96.7972C239.399 96.7965 239.342 96.7797 239.293 96.7488C239.244 96.7179 239.204 96.674 239.179 96.622C239.146 96.5491 239.144 96.4662 239.172 96.3915C239.2 96.3168 239.257 96.2563 239.33 96.2234C240.596 95.6867 241.669 94.7764 242.404 93.6141C242.423 93.5767 242.449 93.5436 242.481 93.517C242.513 93.4903 242.551 93.4706 242.591 93.4591C242.631 93.4476 242.673 93.4445 242.715 93.4502C242.756 93.4558 242.796 93.47 242.832 93.4918C242.867 93.5136 242.898 93.5426 242.922 93.5769C242.946 93.6112 242.962 93.6501 242.97 93.6911C242.978 93.7322 242.978 93.7744 242.969 93.8152C242.96 93.856 242.942 93.8945 242.917 93.9282C242.122 95.1944 240.959 96.1871 239.583 96.773C239.543 96.7897 239.5 96.798 239.456 96.7972ZM218.286 96.7972H218.25C216.843 96.616 215.411 96.4106 214.022 96.1932C213.983 96.1873 213.945 96.1737 213.911 96.1532C213.877 96.1327 213.847 96.1056 213.824 96.0737C213.8 96.0417 213.783 96.0054 213.774 95.9668C213.764 95.9282 213.762 95.8882 213.768 95.8489C213.782 95.7702 213.825 95.6999 213.889 95.6526C213.954 95.6052 214.034 95.5847 214.113 95.5952C215.514 95.8126 216.933 96.018 218.341 96.1992C218.421 96.204 218.496 96.2404 218.549 96.3005C218.602 96.3605 218.629 96.4392 218.625 96.5193C218.62 96.5994 218.583 96.6743 218.523 96.7276C218.463 96.7808 218.384 96.808 218.304 96.8032L218.286 96.7972ZM209.83 95.4865H209.776C208.381 95.2328 206.967 94.955 205.578 94.665C205.498 94.649 205.428 94.6018 205.382 94.5339C205.337 94.4659 205.32 94.3827 205.337 94.3026C205.353 94.2225 205.4 94.1521 205.468 94.1068C205.536 94.0615 205.619 94.045 205.699 94.061C207.088 94.351 208.495 94.6288 209.885 94.8825C209.924 94.8891 209.962 94.9034 209.995 94.9246C210.029 94.9458 210.058 94.9735 210.081 95.006C210.105 95.0386 210.121 95.0754 210.13 95.1143C210.138 95.1533 210.139 95.1935 210.132 95.2328C210.117 95.3005 210.08 95.3612 210.026 95.405C209.973 95.4489 209.906 95.4733 209.836 95.4744L209.83 95.4865ZM201.465 93.7349H201.392C200.015 93.4087 198.614 93.0584 197.243 92.696C197.203 92.6861 197.166 92.6685 197.133 92.6441C197.1 92.6198 197.073 92.5892 197.051 92.5542C197.03 92.5191 197.017 92.4803 197.011 92.4398C197.005 92.3994 197.007 92.3582 197.016 92.3185C197.026 92.2788 197.044 92.2415 197.068 92.2087C197.093 92.1758 197.123 92.1481 197.158 92.1271C197.193 92.106 197.232 92.0921 197.273 92.0861C197.313 92.0801 197.354 92.0821 197.394 92.092C198.765 92.4544 200.154 92.8047 201.531 93.1248C201.61 93.1449 201.677 93.1944 201.72 93.263C201.763 93.3317 201.777 93.4141 201.761 93.4933C201.745 93.5583 201.708 93.6161 201.655 93.6576C201.603 93.6991 201.538 93.7221 201.471 93.7228L201.465 93.7349ZM207.01 93.1671H206.961C206.883 93.1537 206.812 93.1104 206.765 93.0462C206.718 92.982 206.697 92.9019 206.708 92.8228C206.919 91.3867 207.277 89.976 207.777 88.613C207.804 88.5377 207.86 88.4763 207.932 88.4424C208.005 88.4084 208.088 88.4046 208.163 88.4318C208.239 88.459 208.3 88.515 208.334 88.5875C208.368 88.66 208.372 88.743 208.344 88.8183C207.863 90.1406 207.519 91.5088 207.318 92.9014C207.306 92.9728 207.269 93.0378 207.214 93.0843C207.158 93.1309 207.088 93.156 207.016 93.155L207.01 93.1671ZM193.196 91.5544C193.168 91.56 193.139 91.56 193.112 91.5544C191.753 91.1618 190.369 90.739 189.016 90.3042C188.978 90.2926 188.943 90.2734 188.912 90.2477C188.882 90.2221 188.857 90.1906 188.839 90.1551C188.821 90.1195 188.81 90.0807 188.807 90.0409C188.805 90.0012 188.81 89.9613 188.823 89.9236C188.848 89.8476 188.902 89.7845 188.973 89.7483C189.045 89.712 189.128 89.7056 189.204 89.7304C190.551 90.1592 191.922 90.582 193.281 90.9746C193.358 90.997 193.422 91.0491 193.461 91.1193C193.499 91.1895 193.508 91.2722 193.486 91.3491C193.465 91.4068 193.426 91.4565 193.375 91.4911C193.324 91.5257 193.264 91.5437 193.202 91.5424L193.196 91.5544ZM243.515 90.0022C243.445 90.0008 243.378 89.9755 243.324 89.9304C243.27 89.8854 243.233 89.8233 243.219 89.7545C242.893 88.423 242.143 87.2337 241.081 86.3661C241.053 86.3385 241.031 86.3056 241.016 86.2693C241 86.233 240.992 86.1941 240.992 86.1547C240.992 86.1153 241 86.0763 241.016 86.04C241.031 86.0037 241.053 85.9708 241.081 85.9433C241.109 85.915 241.143 85.8925 241.18 85.8772C241.216 85.8618 241.256 85.854 241.296 85.854C241.336 85.854 241.375 85.8618 241.412 85.8772C241.449 85.8925 241.482 85.915 241.51 85.9433C242.671 86.8959 243.488 88.2028 243.835 89.6639C243.843 89.7028 243.844 89.7428 243.836 89.7818C243.829 89.8207 243.813 89.8578 243.792 89.8909C243.77 89.924 243.741 89.9525 243.709 89.9747C243.676 89.9969 243.639 90.0124 243.6 90.0203L243.515 90.0022ZM185.06 88.9452C185.026 88.9514 184.992 88.9514 184.958 88.9452C183.58 88.4559 182.234 87.9486 180.941 87.4412C180.867 87.4104 180.809 87.3522 180.777 87.279C180.746 87.2058 180.744 87.1232 180.772 87.0486C180.786 87.0117 180.808 86.978 180.836 86.9496C180.864 86.9211 180.897 86.8983 180.933 86.8826C180.97 86.8669 181.009 86.8586 181.048 86.858C181.088 86.8575 181.128 86.8648 181.164 86.8795C182.445 87.3868 183.792 87.8882 185.157 88.3774C185.232 88.4035 185.293 88.4581 185.329 88.5293C185.364 88.6005 185.369 88.6826 185.344 88.7579C185.32 88.8108 185.28 88.8555 185.231 88.8866C185.182 88.9177 185.125 88.9338 185.066 88.9331L185.06 88.9452ZM177.112 85.7862C177.072 85.7951 177.031 85.7951 176.991 85.7862C175.662 85.1822 174.357 84.5782 173.119 83.944C173.081 83.9281 173.046 83.9044 173.017 83.8744C172.989 83.8445 172.966 83.8089 172.952 83.77C172.938 83.731 172.931 83.6895 172.934 83.648C172.936 83.6066 172.947 83.566 172.966 83.529C172.984 83.4919 173.011 83.4591 173.043 83.4326C173.075 83.4061 173.112 83.3865 173.152 83.375C173.192 83.3636 173.233 83.3604 173.275 83.3658C173.316 83.3712 173.355 83.3851 173.391 83.4065C174.599 84.0105 175.916 84.6145 177.238 85.2185C177.319 85.2353 177.389 85.2833 177.433 85.3518C177.478 85.4203 177.494 85.5038 177.477 85.5839C177.46 85.664 177.412 85.7341 177.344 85.7789C177.275 85.8236 177.192 85.8393 177.112 85.8225V85.7862ZM210.042 85.2608C209.977 85.2606 209.914 85.2417 209.86 85.2064C209.796 85.1583 209.754 85.0868 209.743 85.0075C209.731 84.9282 209.752 84.8477 209.8 84.7836C210.59 83.6996 211.56 82.7598 212.669 82.0052L212.983 81.8059C213.017 81.7849 213.054 81.7707 213.094 81.7642C213.133 81.7576 213.173 81.7589 213.212 81.7679C213.25 81.7769 213.287 81.7934 213.319 81.8165C213.351 81.8396 213.379 81.8688 213.4 81.9025C213.421 81.9362 213.435 81.9738 213.442 82.0129C213.448 82.0521 213.447 82.0922 213.438 82.1309C213.429 82.1696 213.412 82.2062 213.389 82.2385C213.366 82.2708 213.337 82.2983 213.303 82.3193L213.007 82.5065C211.955 83.2222 211.034 84.1129 210.283 85.14C210.254 85.1741 210.218 85.2016 210.178 85.2203C210.137 85.2391 210.093 85.2488 210.048 85.2487L210.042 85.2608ZM237.747 84.0528C237.697 84.0523 237.647 84.0399 237.602 84.0165C237.095 83.7447 236.6 83.491 236.128 83.2555C235.361 82.881 234.57 82.5307 233.773 82.2166C233.733 82.2045 233.696 82.1844 233.665 82.1574C233.633 82.1304 233.607 82.0972 233.589 82.0599C233.571 82.0225 233.561 81.9818 233.559 81.9403C233.557 81.8988 233.564 81.8574 233.579 81.8186C233.594 81.7799 233.617 81.7447 233.646 81.7151C233.675 81.6856 233.71 81.6625 233.749 81.6471C233.788 81.6317 233.829 81.6245 233.87 81.6258C233.912 81.6272 233.953 81.6371 233.99 81.6549C234.806 81.969 235.615 82.3314 236.406 82.7179C236.877 82.9535 237.385 83.2072 237.898 83.485C237.968 83.5244 238.019 83.5893 238.042 83.6659C238.064 83.7426 238.056 83.825 238.019 83.8957C237.992 83.9416 237.953 83.9792 237.906 84.0048C237.859 84.0303 237.806 84.0427 237.753 84.0407L237.747 84.0528ZM169.495 81.9086C169.442 81.9096 169.389 81.8949 169.344 81.8663C168.082 81.1354 166.856 80.3744 165.72 79.5952C165.662 79.548 165.623 79.4807 165.611 79.4063C165.6 79.3319 165.616 79.256 165.658 79.1932C165.699 79.1305 165.763 79.0856 165.836 79.0672C165.909 79.0488 165.986 79.0583 166.052 79.0939C167.2 79.861 168.414 80.622 169.676 81.3468C169.733 81.3805 169.777 81.4317 169.802 81.4928C169.827 81.5538 169.831 81.6213 169.814 81.685C169.797 81.7486 169.759 81.8049 169.707 81.8453C169.655 81.8857 169.591 81.9079 169.525 81.9086H169.495ZM229.805 80.9603H229.732C228.358 80.6345 226.964 80.4045 225.558 80.2717C225.479 80.2641 225.406 80.2255 225.356 80.1645C225.305 80.1034 225.28 80.0248 225.287 79.9456C225.296 79.8659 225.336 79.793 225.398 79.7423C225.46 79.6915 225.539 79.667 225.619 79.6738C227.043 79.8087 228.456 80.0428 229.847 80.3744C229.927 80.3832 230 80.4235 230.051 80.4863C230.101 80.5492 230.124 80.6295 230.116 80.7096C230.107 80.7897 230.067 80.863 230.004 80.9134C229.941 80.9638 229.86 80.9872 229.78 80.9784L229.805 80.9603ZM217.09 80.767C217.022 80.7662 216.956 80.7427 216.902 80.7C216.848 80.6573 216.811 80.598 216.794 80.5314C216.776 80.4538 216.79 80.3721 216.831 80.3042C216.873 80.2363 216.94 80.1877 217.018 80.169C218.079 79.9182 219.157 79.7466 220.243 79.6556C220.594 79.6556 220.95 79.6013 221.3 79.5832C221.34 79.579 221.381 79.5831 221.419 79.5954C221.457 79.6077 221.493 79.6279 221.523 79.6546C221.553 79.6813 221.577 79.714 221.594 79.7506C221.611 79.7871 221.62 79.8268 221.62 79.867C221.624 79.9462 221.596 80.0234 221.543 80.0822C221.49 80.1409 221.416 80.1764 221.336 80.1811C220.986 80.1811 220.642 80.2294 220.298 80.2596C219.242 80.3471 218.194 80.5127 217.163 80.7549L217.09 80.767ZM162.41 77.143C162.343 77.1443 162.277 77.1231 162.223 77.0826C161.075 76.1826 159.976 75.2404 158.955 74.2921C158.927 74.264 158.905 74.2306 158.889 74.1938C158.874 74.157 158.866 74.1176 158.866 74.0777C158.866 74.0378 158.874 73.9984 158.889 73.9616C158.905 73.9248 158.927 73.8914 158.955 73.8633C159.013 73.8076 159.09 73.7764 159.17 73.7764C159.25 73.7764 159.327 73.8076 159.384 73.8633C160.393 74.8055 161.48 75.7357 162.616 76.6236C162.678 76.6734 162.718 76.7458 162.727 76.825C162.736 76.9042 162.713 76.9838 162.664 77.0464C162.632 77.0778 162.592 77.1013 162.549 77.1149C162.506 77.1285 162.461 77.132 162.416 77.1249L162.41 77.143ZM156.177 71.3144C156.134 71.314 156.091 71.3047 156.051 71.287C156.012 71.2694 155.977 71.2437 155.947 71.2117C154.998 70.1327 154.113 68.9993 153.296 67.8172C153.251 67.7512 153.233 67.6701 153.246 67.5912C153.26 67.5122 153.304 67.4417 153.368 67.3944C153.436 67.3513 153.517 67.3354 153.595 67.35C153.674 67.3646 153.744 67.4086 153.791 67.473C154.607 68.6316 155.49 69.7409 156.437 70.795C156.492 70.8514 156.523 70.9273 156.523 71.0064C156.523 71.0854 156.492 71.1613 156.437 71.2178C156.403 71.2493 156.363 71.2728 156.319 71.2864C156.275 71.3 156.228 71.3034 156.183 71.2963L156.177 71.3144ZM151.345 64.2899C151.289 64.2896 151.235 64.2735 151.188 64.2436C151.141 64.2137 151.103 64.1711 151.079 64.1208C150.417 62.8439 149.846 61.5219 149.37 60.1646C149.345 60.0884 149.35 60.0055 149.385 59.9333C149.42 59.8611 149.482 59.8054 149.557 59.778C149.632 59.753 149.715 59.7586 149.786 59.7936C149.857 59.8286 149.912 59.8903 149.938 59.9652C150.405 61.298 150.966 62.5958 151.617 63.849C151.653 63.9203 151.659 64.0029 151.634 64.0787C151.609 64.1545 151.555 64.2174 151.484 64.2536C151.44 64.2715 151.392 64.2777 151.345 64.2718V64.2899ZM148.585 56.2204C148.513 56.2212 148.443 56.1959 148.389 56.1492C148.335 56.1026 148.299 56.0377 148.289 55.9668C148.228 55.6466 148.18 55.3265 148.132 55.0004C147.984 53.9356 147.909 52.862 147.908 51.7871V51.6602C147.908 51.5802 147.94 51.5033 147.997 51.4467C148.053 51.3901 148.13 51.3582 148.21 51.3582C148.29 51.3582 148.367 51.3901 148.424 51.4467C148.48 51.5033 148.512 51.5802 148.512 51.6602V51.781C148.511 52.8278 148.584 53.8732 148.73 54.9098C148.778 55.2299 148.826 55.544 148.881 55.858C148.895 55.9365 148.877 56.0174 148.832 56.083C148.787 56.1486 148.717 56.1937 148.639 56.2084L148.585 56.2204ZM148.615 47.7161H148.561C148.482 47.7014 148.413 47.6564 148.368 47.5907C148.322 47.5251 148.305 47.4443 148.319 47.3658C148.582 45.947 148.963 44.5528 149.46 43.1982C149.49 43.1235 149.548 43.063 149.621 43.0293C149.694 42.9956 149.777 42.9912 149.853 43.017C149.927 43.0455 149.987 43.102 150.02 43.1743C150.053 43.2467 150.056 43.329 150.028 43.4036C149.54 44.7261 149.166 46.0881 148.911 47.4745C148.898 47.5488 148.856 47.6151 148.796 47.66C148.735 47.705 148.66 47.725 148.585 47.7161H148.615ZM151.562 39.7373C151.51 39.7346 151.458 39.7201 151.411 39.695C151.342 39.6535 151.292 39.5867 151.272 39.5088C151.252 39.4309 151.263 39.3481 151.303 39.2782C152.029 38.0304 152.868 36.8517 153.809 35.7569C153.864 35.7076 153.935 35.6799 154.009 35.6792C154.082 35.6785 154.154 35.7047 154.209 35.753C154.265 35.8012 154.301 35.8682 154.311 35.9412C154.321 36.0143 154.303 36.0883 154.262 36.1495C153.357 37.2217 152.549 38.3718 151.846 39.5863C151.817 39.6387 151.772 39.681 151.718 39.7079C151.665 39.7348 151.604 39.7451 151.544 39.7373H151.562ZM157.125 33.3047C157.063 33.3043 157.002 33.2846 156.951 33.2484C156.901 33.2121 156.862 33.161 156.842 33.102C156.821 33.0431 156.819 32.9793 156.837 32.9193C156.854 32.8593 156.889 32.8062 156.938 32.7671C158.079 31.881 159.303 31.1064 160.592 30.4538C160.664 30.4178 160.748 30.4118 160.824 30.4373C160.901 30.4628 160.964 30.5176 161 30.5897C161.036 30.6618 161.042 30.7452 161.016 30.8217C160.991 30.8982 160.936 30.9614 160.864 30.9974C159.61 31.6328 158.419 32.3851 157.306 33.2443C157.25 33.2879 157.179 33.3094 157.107 33.3047H157.125ZM194.223 29.5418C192.785 29.5102 191.35 29.383 189.928 29.1612C189.848 29.15 189.776 29.1075 189.727 29.0429C189.679 28.9783 189.658 28.8971 189.669 28.817C189.68 28.7369 189.723 28.6645 189.787 28.6158C189.852 28.5671 189.933 28.546 190.013 28.5572C191.412 28.7773 192.825 28.9024 194.241 28.9317C194.321 28.9317 194.398 28.9635 194.455 29.0202C194.511 29.0768 194.543 29.1536 194.543 29.2337C194.543 29.3138 194.511 29.3906 194.455 29.4473C194.398 29.5039 194.321 29.5357 194.241 29.5357L194.223 29.5418ZM164.663 29.3847C164.623 29.3911 164.583 29.3895 164.544 29.3802C164.505 29.3709 164.468 29.354 164.435 29.3304C164.403 29.3069 164.375 29.2771 164.354 29.2429C164.333 29.2087 164.319 29.1707 164.313 29.131C164.307 29.0914 164.308 29.0509 164.317 29.0118C164.327 28.9727 164.344 28.9359 164.367 28.9033C164.391 28.8708 164.42 28.8432 164.455 28.8222C164.489 28.8012 164.527 28.7871 164.567 28.7807C165.933 28.3371 167.325 27.9741 168.734 27.6935C168.773 27.6857 168.814 27.6857 168.853 27.6936C168.892 27.7015 168.93 27.7172 168.963 27.7397C168.996 27.7622 169.024 27.791 169.046 27.8246C169.068 27.8581 169.083 27.8957 169.09 27.9351C169.099 27.9737 169.1 28.0136 169.093 28.0525C169.086 28.0914 169.07 28.1283 169.048 28.1612C169.026 28.194 168.998 28.2219 168.964 28.2433C168.931 28.2647 168.894 28.279 168.855 28.2854C167.468 28.5628 166.099 28.9198 164.754 29.3545L164.663 29.3847ZM185.755 28.4364H185.7C184.402 28.1948 182.934 27.923 181.472 27.7177C181.394 27.7057 181.324 27.6636 181.277 27.6004C181.229 27.5371 181.208 27.4578 181.219 27.3794C181.223 27.3399 181.236 27.3016 181.255 27.2669C181.275 27.2323 181.301 27.2019 181.333 27.1776C181.364 27.1534 181.4 27.1358 181.439 27.1258C181.478 27.1159 181.518 27.1138 181.557 27.1197C183.007 27.3251 184.48 27.6029 185.785 27.8445C185.863 27.8592 185.933 27.9043 185.978 27.9699C186.023 28.0355 186.041 28.1164 186.027 28.1948C186.016 28.2621 185.984 28.324 185.935 28.371C185.886 28.418 185.822 28.4473 185.755 28.4546V28.4364ZM173.023 27.6573C172.942 27.6621 172.864 27.6349 172.804 27.5816C172.744 27.5284 172.707 27.4535 172.702 27.3734C172.698 27.2933 172.725 27.2146 172.778 27.1546C172.831 27.0945 172.906 27.0581 172.986 27.0533C173.753 26.9687 174.575 26.8902 175.402 26.8238C175.934 26.7815 176.496 26.7573 177.069 26.7573H177.269C177.308 26.7581 177.347 26.7667 177.384 26.7826C177.42 26.7985 177.453 26.8214 177.48 26.85C177.508 26.8786 177.53 26.9124 177.544 26.9493C177.558 26.9863 177.565 27.0257 177.565 27.0654C177.56 27.1434 177.527 27.217 177.471 27.2718C177.415 27.3265 177.341 27.3584 177.263 27.3613H177.069C176.514 27.3613 175.97 27.3613 175.445 27.4217C174.611 27.4882 173.802 27.5667 173.029 27.6573H173.023Z" fill="url(#paint14_linear_1_5860)"/>
<path d="M171.429 133.49C170.71 133.46 169.997 133.406 169.309 133.339C169.269 133.336 169.231 133.325 169.195 133.307C169.16 133.289 169.129 133.264 169.104 133.233C169.078 133.203 169.059 133.168 169.048 133.13C169.036 133.092 169.033 133.052 169.037 133.013C169.039 132.973 169.049 132.934 169.067 132.899C169.085 132.863 169.11 132.831 169.141 132.806C169.171 132.78 169.207 132.762 169.245 132.75C169.283 132.739 169.323 132.736 169.363 132.741C170.045 132.808 170.746 132.856 171.459 132.886C171.539 132.886 171.616 132.918 171.672 132.975C171.729 133.031 171.761 133.108 171.761 133.188C171.761 133.268 171.729 133.345 171.672 133.402C171.616 133.458 171.539 133.49 171.459 133.49H171.429Z" fill="url(#paint15_linear_1_5860)"/>
</g>
<path d="M227.614 6.72916L206.287 5.85392C205.214 5.80987 204.308 6.64419 204.264 7.71742L203.868 17.3733C203.824 18.4465 204.658 19.3522 205.731 19.3963L227.059 20.2715C228.132 20.3156 229.038 19.4812 229.082 18.408L229.478 8.75215C229.522 7.67893 228.688 6.7732 227.614 6.72916Z" fill="url(#paint16_linear_1_5860)"/>
<path opacity="0.8" d="M227.614 6.72916L206.287 5.85392C205.214 5.80987 204.308 6.64419 204.264 7.71742L203.868 17.3733C203.824 18.4465 204.658 19.3522 205.731 19.3963L227.059 20.2715C228.132 20.3156 229.038 19.4812 229.082 18.408L229.478 8.75215C229.522 7.67893 228.688 6.7732 227.614 6.72916Z" fill="white"/>
<path opacity="0.4" d="M216.578 15.6497C216.515 15.6494 216.454 15.6305 216.402 15.5954L205.361 7.99706C205.328 7.97464 205.3 7.94585 205.278 7.91238C205.256 7.87891 205.241 7.84142 205.234 7.80208C205.226 7.76274 205.227 7.72235 205.235 7.68324C205.244 7.64413 205.26 7.60708 205.283 7.57426C205.329 7.51028 205.398 7.46647 205.475 7.45186C205.553 7.43725 205.633 7.45296 205.7 7.49574L216.572 14.9974L228.048 8.41382C228.117 8.37469 228.2 8.3648 228.277 8.38632C228.354 8.40783 228.419 8.45899 228.458 8.52858C228.498 8.59756 228.509 8.67939 228.488 8.75629C228.468 8.83319 228.418 8.89896 228.35 8.9393L216.741 15.5833C216.695 15.6222 216.638 15.6454 216.578 15.6497Z" fill="url(#paint17_linear_1_5860)"/>
<path opacity="0.4" d="M227.788 18.6032C227.727 18.6037 227.668 18.5846 227.619 18.5489L221.301 14.1578C221.268 14.1354 221.239 14.1066 221.217 14.0731C221.195 14.0397 221.18 14.0022 221.173 13.9628C221.166 13.9235 221.166 13.8831 221.175 13.844C221.183 13.8049 221.199 13.7678 221.222 13.735C221.269 13.6703 221.34 13.6266 221.419 13.6131C221.498 13.5995 221.579 13.6173 221.645 13.6625L227.963 18.0657C227.995 18.088 228.023 18.1166 228.044 18.1498C228.066 18.1829 228.08 18.22 228.087 18.2588C228.093 18.2976 228.092 18.3374 228.084 18.3758C228.075 18.4142 228.058 18.4505 228.035 18.4824C228.007 18.5208 227.969 18.5517 227.926 18.5727C227.883 18.5937 227.836 18.6042 227.788 18.6032Z" fill="url(#paint18_linear_1_5860)"/>
<path opacity="0.4" d="M205.162 17.6731C205.094 17.6763 205.026 17.6561 204.971 17.616C204.915 17.5758 204.875 17.5179 204.857 17.4519C204.838 17.3859 204.843 17.3156 204.87 17.2526C204.897 17.1896 204.945 17.1377 205.005 17.1053L211.649 13.2518C211.717 13.221 211.794 13.2166 211.865 13.2394C211.937 13.2622 211.997 13.3106 212.034 13.3752C212.072 13.4398 212.084 13.5161 212.069 13.5892C212.053 13.6624 212.011 13.7272 211.951 13.7712L205.307 17.6308C205.263 17.6577 205.213 17.6723 205.162 17.6731Z" fill="url(#paint19_linear_1_5860)"/>
<path d="M248.981 11.9049L206.477 21.5991L201.029 24.9634L248.981 11.9049Z" fill="url(#paint20_linear_1_5860)"/>
<path opacity="0.2" d="M206.477 21.5991L201.029 24.9634L248.981 11.9049" fill="url(#paint21_linear_1_5860)"/>
<path d="M248.98 11.9049L206.477 21.5991L210.475 24.5406L248.98 11.9049Z" fill="url(#paint22_linear_1_5860)"/>
<path d="M248.982 11.9049L212.542 19.3583L210.477 24.5406L248.982 11.9049Z" fill="url(#paint23_linear_1_5860)"/>
<path opacity="0.2" d="M248.982 11.9049L212.542 19.3583L210.477 24.5406L248.982 11.9049Z" fill="url(#paint24_linear_1_5860)"/>
<path d="M248.98 11.9049L212.541 19.3583L224.017 23.5198L248.98 11.9049Z" fill="url(#paint25_linear_1_5860)"/>
<defs>
<linearGradient id="paint0_linear_1_5860" x1="119.139" y1="72.2083" x2="119.139" y2="92.3335" gradientUnits="userSpaceOnUse">
<stop stop-color="#6CF102"/>
<stop offset="1" stop-color="#3E8B01"/>
</linearGradient>
<linearGradient id="paint1_linear_1_5860" x1="96.1324" y1="221.191" x2="96.1324" y2="227.192" gradientUnits="userSpaceOnUse">
<stop stop-color="#6CF102"/>
<stop offset="1" stop-color="#3E8B01"/>
</linearGradient>
<linearGradient id="paint2_linear_1_5860" x1="162.687" y1="212.648" x2="162.687" y2="220.897" gradientUnits="userSpaceOnUse">
<stop stop-color="#6CF102"/>
<stop offset="1" stop-color="#3E8B01"/>
</linearGradient>
<linearGradient id="paint3_linear_1_5860" x1="99.9792" y1="73.3525" x2="99.9792" y2="112.272" gradientUnits="userSpaceOnUse">
<stop stop-color="#6CF102"/>
<stop offset="1" stop-color="#3E8B01"/>
</linearGradient>
<linearGradient id="paint4_linear_1_5860" x1="100.061" y1="75.5603" x2="100.061" y2="77.1433" gradientUnits="userSpaceOnUse">
<stop stop-color="#6CF102"/>
<stop offset="1" stop-color="#3E8B01"/>
</linearGradient>
<linearGradient id="paint5_linear_1_5860" x1="126.257" y1="227.189" x2="126.257" y2="127.885" gradientUnits="userSpaceOnUse">
<stop stop-color="#6CF102"/>
<stop offset="1" stop-color="#3E8B01"/>
</linearGradient>
<linearGradient id="paint6_linear_1_5860" x1="132.372" y1="140.255" x2="132.372" y2="112.966" gradientUnits="userSpaceOnUse">
<stop stop-color="#6CF102"/>
<stop offset="1" stop-color="#3E8B01"/>
</linearGradient>
<linearGradient id="paint7_linear_1_5860" x1="90.2208" y1="80.6221" x2="90.2208" y2="123.56" gradientUnits="userSpaceOnUse">
<stop stop-color="#6CF102"/>
<stop offset="1" stop-color="#3E8B01"/>
</linearGradient>
<linearGradient id="paint8_linear_1_5860" x1="153.144" y1="142.278" x2="153.144" y2="140.255" gradientUnits="userSpaceOnUse">
<stop stop-color="#6CF102"/>
<stop offset="1" stop-color="#3E8B01"/>
</linearGradient>
<linearGradient id="paint9_linear_1_5860" x1="123.808" y1="106.177" x2="123.808" y2="110.514" gradientUnits="userSpaceOnUse">
<stop stop-color="#6CF102"/>
<stop offset="1" stop-color="#3E8B01"/>
</linearGradient>
<linearGradient id="paint10_linear_1_5860" x1="199.472" y1="27.9138" x2="199.472" y2="29.1432" gradientUnits="userSpaceOnUse">
<stop stop-color="#6CF102"/>
<stop offset="1" stop-color="#3E8B01"/>
</linearGradient>
<linearGradient id="paint11_linear_1_5860" x1="195.875" y1="26.7573" x2="195.875" y2="133.478" gradientUnits="userSpaceOnUse">
<stop stop-color="#6CF102"/>
<stop offset="1" stop-color="#3E8B01"/>
</linearGradient>
<linearGradient id="paint12_linear_1_5860" x1="170.398" y1="132.739" x2="170.398" y2="133.49" gradientUnits="userSpaceOnUse">
<stop stop-color="#6CF102"/>
<stop offset="1" stop-color="#3E8B01"/>
</linearGradient>
<linearGradient id="paint13_linear_1_5860" x1="199.472" y1="27.9138" x2="199.472" y2="29.1432" gradientUnits="userSpaceOnUse">
<stop stop-color="#6CF102"/>
<stop offset="1" stop-color="#3E8B01"/>
</linearGradient>
<linearGradient id="paint14_linear_1_5860" x1="195.875" y1="26.7573" x2="195.875" y2="133.478" gradientUnits="userSpaceOnUse">
<stop stop-color="#6CF102"/>
<stop offset="1" stop-color="#3E8B01"/>
</linearGradient>
<linearGradient id="paint15_linear_1_5860" x1="170.398" y1="132.739" x2="170.398" y2="133.49" gradientUnits="userSpaceOnUse">
<stop stop-color="#6CF102"/>
<stop offset="1" stop-color="#3E8B01"/>
</linearGradient>
<linearGradient id="paint16_linear_1_5860" x1="216.951" y1="6.29154" x2="216.395" y2="19.8339" gradientUnits="userSpaceOnUse">
<stop stop-color="#6CF102"/>
<stop offset="1" stop-color="#3E8B01"/>
</linearGradient>
<linearGradient id="paint17_linear_1_5860" x1="216.863" y1="7.44653" x2="216.863" y2="15.6497" gradientUnits="userSpaceOnUse">
<stop stop-color="#6CF102"/>
<stop offset="1" stop-color="#3E8B01"/>
</linearGradient>
<linearGradient id="paint18_linear_1_5860" x1="224.63" y1="13.6086" x2="224.63" y2="18.6033" gradientUnits="userSpaceOnUse">
<stop stop-color="#6CF102"/>
<stop offset="1" stop-color="#3E8B01"/>
</linearGradient>
<linearGradient id="paint19_linear_1_5860" x1="208.46" y1="13.225" x2="208.46" y2="17.6734" gradientUnits="userSpaceOnUse">
<stop stop-color="#6CF102"/>
<stop offset="1" stop-color="#3E8B01"/>
</linearGradient>
<linearGradient id="paint20_linear_1_5860" x1="225.005" y1="11.9049" x2="225.005" y2="24.9634" gradientUnits="userSpaceOnUse">
<stop stop-color="#6CF102"/>
<stop offset="1" stop-color="#3E8B01"/>
</linearGradient>
<linearGradient id="paint21_linear_1_5860" x1="225.005" y1="11.9049" x2="225.005" y2="24.9634" gradientUnits="userSpaceOnUse">
<stop stop-color="#6CF102"/>
<stop offset="1" stop-color="#3E8B01"/>
</linearGradient>
<linearGradient id="paint22_linear_1_5860" x1="227.728" y1="11.9049" x2="227.728" y2="24.5406" gradientUnits="userSpaceOnUse">
<stop stop-color="#6CF102"/>
<stop offset="1" stop-color="#3E8B01"/>
</linearGradient>
<linearGradient id="paint23_linear_1_5860" x1="229.729" y1="11.9049" x2="229.729" y2="24.5406" gradientUnits="userSpaceOnUse">
<stop stop-color="#6CF102"/>
<stop offset="1" stop-color="#3E8B01"/>
</linearGradient>
<linearGradient id="paint24_linear_1_5860" x1="229.729" y1="11.9049" x2="229.729" y2="24.5406" gradientUnits="userSpaceOnUse">
<stop stop-color="#6CF102"/>
<stop offset="1" stop-color="#3E8B01"/>
</linearGradient>
<linearGradient id="paint25_linear_1_5860" x1="230.761" y1="11.9049" x2="230.761" y2="23.5198" gradientUnits="userSpaceOnUse">
<stop stop-color="#6CF102"/>
<stop offset="1" stop-color="#3E8B01"/>
</linearGradient>
</defs>
</svg>
