<svg width="335" height="218" viewBox="0 0 335 218" fill="none" xmlns="http://www.w3.org/2000/svg">
<path d="M195.334 95.2656C195.334 95.2656 195.334 95.2211 195.334 95.147V94.8209C195.334 94.5244 195.334 94.1043 195.334 93.5706C195.334 92.4736 195.334 90.8923 195.294 88.9057L195.368 88.9798L171.327 89.0243C171.381 88.9699 171.204 89.1479 171.451 88.9057V92.1277C171.451 93.1852 171.451 94.2328 171.451 95.2557L171.332 95.1322L188.465 95.1865L193.52 95.2211H194.889H195.245C195.287 95.2169 195.33 95.2169 195.373 95.2211H195.264H194.919H193.579L188.499 95.3348L171.283 95.3892H171.164V95.2706C171.164 94.2476 171.164 93.2 171.164 92.1425V88.9107L171.288 88.7871L195.329 88.8316H195.418V88.9107C195.418 90.917 195.388 92.5131 195.378 93.62C195.378 94.1488 195.378 94.559 195.378 94.8555C195.378 94.9839 195.378 95.0877 195.378 95.1668C195.368 95.2015 195.353 95.2347 195.334 95.2656Z" fill="#E0E0E0"/>
<path d="M241.577 28.741C241.573 28.7032 241.573 28.6651 241.577 28.6273C241.577 28.5433 241.577 28.4346 241.577 28.3012C241.577 27.9997 241.577 27.5846 241.577 27.046C241.577 25.9489 241.553 24.3726 241.538 22.3811L241.612 22.4552L217.571 22.5046C217.625 22.4503 217.447 22.6282 217.689 22.3811V28.741L217.566 28.6224L234.699 28.6767L239.759 28.7113H241.128H241.483H241.612C241.574 28.716 241.536 28.716 241.498 28.7113H241.157H239.813L234.783 28.7459L217.566 28.8003H217.447V22.391C217.689 22.1488 217.512 22.3218 217.571 22.2674L241.612 22.3168H241.686V22.391C241.686 24.4022 241.651 25.9934 241.642 27.1004C241.642 27.6291 241.642 28.0442 241.642 28.3358C241.642 28.4642 241.642 28.568 241.642 28.652C241.623 28.6836 241.601 28.7133 241.577 28.741Z" fill="#E0E0E0"/>
<path d="M330.735 123.996C330.73 123.959 330.73 123.92 330.735 123.883V123.556C330.735 123.26 330.735 122.84 330.735 122.306C330.735 121.209 330.735 119.628 330.695 117.636L330.769 117.71L306.728 117.76L306.852 117.636V123.996L306.733 123.878L323.866 123.932L328.921 123.967H330.29H330.646H330.774C330.774 123.967 330.739 123.967 330.66 123.967H330.319H328.98L323.95 124.001L306.733 124.056H306.609V117.661L306.733 117.542L330.774 117.587H330.819V117.661C330.819 119.672 330.789 121.264 330.779 122.375C330.779 122.904 330.779 123.314 330.779 123.611V123.922C330.766 123.948 330.751 123.973 330.735 123.996Z" fill="#E0E0E0"/>
<path d="M333.997 117.656C333.99 117.617 333.99 117.577 333.997 117.538C333.997 117.444 333.997 117.335 333.997 117.201C333.997 116.885 333.997 116.46 333.997 115.927C333.997 114.81 333.972 113.233 333.952 111.296L334.041 111.385L319.597 111.42C319.483 111.528 319.745 111.271 319.715 111.296V114.568C319.715 115.635 319.715 116.663 319.715 117.651L319.597 117.538L329.935 117.592L332.944 117.626H333.755H334.046C333.959 117.633 333.871 117.633 333.784 117.626H332.994L330.029 117.661L319.617 117.715H319.454V117.597C319.454 116.608 319.454 115.581 319.454 114.513V111.242C319.424 111.271 319.686 111.01 319.577 111.123L334.022 111.153H334.11V111.237C334.11 113.214 334.076 114.79 334.066 115.917C334.066 116.445 334.066 116.865 334.066 117.177C334.052 117.338 334.029 117.498 333.997 117.656Z" fill="#E0E0E0"/>
<path d="M106.739 195.462L101.303 197.8L101.669 165.556C101.837 161.696 100.063 160.051 99.0993 158.954C90.3477 149.001 77.2968 156.221 77.1831 166.307L76.857 195.122L71.5645 195.062L72.0883 164.918C72.1278 161.523 74.7666 155.633 77.4302 153.523C92.1563 141.855 107.223 153.908 107.08 166.658L106.739 195.462Z" fill="#F5F5F5"/>
<path d="M106.739 195.462V194.884C106.739 194.504 106.739 193.945 106.739 193.214C106.739 191.731 106.768 189.582 106.788 186.79C106.808 183.998 106.843 180.613 106.877 176.664C106.897 174.688 106.917 172.584 106.936 170.354C106.936 168.12 107.139 165.743 106.68 163.302C106.219 160.746 105.183 158.327 103.65 156.231C103.448 155.959 103.255 155.682 103.042 155.415C102.83 155.148 102.588 154.921 102.361 154.649C101.896 154.134 101.401 153.647 100.878 153.191C100.626 152.949 100.33 152.757 100.053 152.534C99.776 152.312 99.5042 152.085 99.1929 151.907C98.5942 151.508 97.9702 151.148 97.325 150.829C96.0046 150.165 94.607 149.667 93.1641 149.347L92.0473 149.164L91.4889 149.07L90.9206 149.036L89.7741 148.961C89.3887 148.961 89.0032 148.986 88.6178 149.001C85.4231 149.146 82.3308 150.172 79.6833 151.966C76.8972 153.852 74.7132 156.501 73.3926 159.596C72.7292 161.192 72.2934 162.874 72.0978 164.592C71.9496 166.321 71.9891 168.105 71.9545 169.889C71.8755 177.04 71.7915 184.442 71.7075 192.028C71.7075 193.039 71.6959 194.047 71.6729 195.052L71.5493 194.924L76.8418 194.983L76.7183 195.107C76.7809 189.374 76.8451 183.774 76.911 178.305C76.9407 175.584 76.972 172.9 77.0049 170.255C77.0049 168.937 77.0197 167.628 77.0494 166.326C77.0777 165.027 77.2941 163.739 77.6918 162.502C78.5029 160.094 80.0306 157.992 82.0701 156.478C82.3117 156.287 82.5642 156.11 82.8262 155.949L83.6168 155.455C84.1533 155.171 84.7099 154.926 85.2822 154.723C85.8478 154.517 86.4274 154.352 87.0167 154.229C87.3083 154.165 87.6047 154.14 87.8963 154.091L88.3361 154.032H88.7809C89.9419 153.967 91.1062 154.065 92.24 154.323C93.3452 154.588 94.4116 154.995 95.4126 155.534C98.261 157.115 100.386 159.738 101.343 162.852C101.622 163.818 101.788 164.813 101.837 165.817C101.837 166.064 101.837 166.312 101.861 166.554C101.886 166.796 101.861 167.048 101.861 167.28C101.861 167.774 101.861 168.239 101.861 168.713C101.861 169.657 101.861 170.586 101.827 171.495C101.777 175.132 101.738 178.473 101.698 181.487C101.614 187.511 101.55 192.226 101.506 195.359L101.471 195.324L105.464 195.388H106.452H106.773H105.479L101.466 195.364H101.431V195.329C101.431 192.196 101.501 187.482 101.555 181.458C101.585 178.443 101.619 175.098 101.654 171.461C101.654 170.551 101.654 169.622 101.684 168.679C101.684 168.184 101.684 167.73 101.684 167.246C101.684 167.008 101.684 166.751 101.684 166.524L101.654 165.798C101.58 163.772 100.979 161.801 99.9095 160.08C98.7943 158.237 97.2147 156.718 95.3286 155.677C94.3443 155.15 93.2963 154.751 92.2104 154.491C91.0906 154.24 89.9413 154.147 88.7957 154.214H88.3608L87.9309 154.279C87.6393 154.323 87.3478 154.348 87.0612 154.412C85.9001 154.66 84.778 155.064 83.7256 155.613L82.9497 156.077C82.6933 156.228 82.4458 156.393 82.2085 156.572C80.204 158.062 78.7051 160.132 77.9142 162.502C77.525 163.716 77.3152 164.982 77.2915 166.257C77.2915 167.555 77.2767 168.865 77.247 170.186C77.2174 172.821 77.1877 175.505 77.1581 178.236C77.0988 183.672 77.0346 189.29 76.9703 195.037V195.161H76.8468L71.5493 195.102H71.4258V194.978C71.4258 193.99 71.4373 192.982 71.4604 191.954C71.5493 184.373 71.6333 176.971 71.7173 169.815C71.7519 168.026 71.7173 166.262 71.8606 164.493C72.0623 162.753 72.5064 161.05 73.1801 159.433C73.869 157.887 74.7597 156.44 75.8288 155.129C76.9119 153.851 78.1598 152.722 79.54 151.773C82.222 149.954 85.3557 148.914 88.5931 148.769C88.9835 148.769 89.3739 148.724 89.7642 148.734L91.0936 148.813L91.8249 148.897L92.9319 149.08L93.426 149.189C94.7982 149.51 96.1258 149.998 97.3793 150.642C98.034 150.963 98.6663 151.328 99.272 151.734C99.5833 151.917 99.8502 152.164 100.137 152.371C100.423 152.579 100.715 152.791 100.977 153.033C101.5 153.498 101.995 153.993 102.459 154.516L103.151 155.292C103.364 155.563 103.556 155.845 103.759 156.122C105.306 158.242 106.349 160.688 106.808 163.272C107.268 165.743 107.035 168.135 107.05 170.369C107.065 172.602 106.991 174.727 106.966 176.704C106.912 180.657 106.862 184.057 106.823 186.839C106.783 189.621 106.754 191.781 106.729 193.234C106.729 193.955 106.729 194.514 106.699 194.889C106.67 195.265 106.739 195.462 106.739 195.462Z" fill="#E0E0E0"/>
<path d="M65.5195 176.24L113.45 176.784C113.941 176.789 114.408 176.989 114.751 177.34C115.094 177.69 115.283 178.163 115.278 178.653L114.857 215.698C114.852 216.144 114.67 216.569 114.352 216.88C114.033 217.192 113.604 217.364 113.158 217.359L65.079 216.813L65.5393 176.24L65.5195 176.24Z" fill="#E0E0E0"/>
<path d="M65.52 176.136L107.672 176.558C108.204 176.563 108.713 176.78 109.085 177.16C109.458 177.54 109.664 178.052 109.659 178.584L109.298 214.658C109.291 215.314 109.025 215.939 108.557 216.398C108.089 216.857 107.458 217.111 106.802 217.104L65.1837 216.688C64.6332 216.683 64.1075 216.459 63.7221 216.066C63.3368 215.672 63.1234 215.142 63.1289 214.592L63.4936 178.123C63.4989 177.59 63.7154 177.082 64.0954 176.71C64.4754 176.337 64.9879 176.131 65.52 176.136Z" fill="#EBEBEB"/>
<path d="M92.5567 193.254C92.5654 192.496 92.4217 191.743 92.1341 191.042C91.8466 190.34 91.4209 189.704 90.8825 189.17C90.3442 188.636 89.704 188.216 89.0001 187.935C88.2961 187.653 87.5428 187.516 86.7848 187.531C85.3267 187.575 83.9403 188.173 82.9089 189.205C81.8774 190.236 81.2788 191.623 81.2353 193.081C81.2125 194.317 81.5968 195.527 82.3291 196.523C83.0613 197.52 84.1008 198.248 85.2875 198.596L81.5071 206.364L91.2669 206.655L88.381 198.615C89.565 198.297 90.613 197.601 91.3664 196.633C92.1198 195.666 92.5376 194.48 92.5567 193.254Z" fill="#E0E0E0"/>
<path d="M109.027 213.485C108.958 213.485 109.027 206.423 109.151 197.716C109.275 189.009 109.452 181.942 109.522 181.942C109.591 181.942 109.522 189.004 109.398 197.716C109.275 206.428 109.097 213.49 109.027 213.485Z" fill="#FAFAFA"/>
<path d="M98.7299 177.86C98.7299 177.929 92.5183 177.999 84.8538 178.013C77.1893 178.028 70.9727 177.984 70.9727 177.915C70.9727 177.845 77.1843 177.781 84.8538 177.766C92.5232 177.752 98.7299 177.781 98.7299 177.86Z" fill="white"/>
<path d="M81.0175 196.174C80.9207 196.069 80.8422 195.949 80.7852 195.818C80.6079 195.474 80.4655 195.114 80.3603 194.741C80.0067 193.5 80.0395 192.181 80.4544 190.959C80.8694 189.737 81.6467 188.671 82.6828 187.902C82.9908 187.669 83.322 187.469 83.6712 187.304C83.7941 187.236 83.9278 187.189 84.0665 187.166C84.0665 187.205 83.5279 187.437 82.7866 188.04C81.813 188.818 81.0827 189.858 80.6824 191.038C80.2821 192.217 80.2286 193.487 80.5283 194.697C80.7704 195.65 81.057 196.145 81.0175 196.174Z" fill="white"/>
<path d="M83.2417 198.882C83.2072 198.941 82.8761 198.798 82.5005 198.566C82.1249 198.334 81.8531 198.096 81.8877 198.037C81.9223 197.978 82.2584 198.121 82.6339 198.353C83.0095 198.586 83.2417 198.823 83.2417 198.882Z" fill="white"/>
<path d="M87.9463 150.271C87.6312 150.331 87.3127 150.373 86.9926 150.395C86.1295 150.51 85.2769 150.694 84.4427 150.943C81.6709 151.748 79.1854 153.325 77.2768 155.489C75.3682 157.654 74.1155 160.318 73.665 163.169C73.5163 164.027 73.4419 164.897 73.4426 165.768C73.4426 166.381 73.4426 166.727 73.4426 166.727C73.4161 166.647 73.4027 166.564 73.4031 166.48C73.4031 166.317 73.3536 166.08 73.3487 165.768C73.3138 164.889 73.3634 164.009 73.497 163.139C73.9093 160.24 75.1613 157.526 77.0985 155.331C79.0357 153.135 81.5734 151.555 84.3982 150.785C85.2434 150.537 86.1106 150.371 86.9877 150.291C87.294 150.256 87.5362 150.261 87.6993 150.256C87.7819 150.253 87.8647 150.258 87.9463 150.271Z" fill="white"/>
<path d="M73.1812 171.1C73.0686 170.615 73.0386 170.113 73.0922 169.618C73.0585 169.118 73.1103 168.617 73.2454 168.135C73.3944 169.12 73.3727 170.123 73.1812 171.1Z" fill="white"/>
<path d="M103.637 33.4504H79.5957V39.8103H103.637V33.4504Z" fill="#F5F5F5"/>
<path d="M93.4718 46.5113C93.4718 46.5113 93.4718 46.4717 93.4718 46.3976V46.0714C93.4718 45.77 93.4718 45.35 93.4718 44.8163C93.4718 43.7192 93.4718 42.1428 93.4322 40.1513L93.5064 40.2255L69.4652 40.2749C69.5196 40.2205 69.3417 40.3935 69.5888 40.1513V43.3733C69.5888 44.4341 69.5888 45.4768 69.5888 46.5014L69.4702 46.3828L86.6029 46.4371L91.6582 46.4717H93.027H93.3828C93.4255 46.4675 93.4686 46.4675 93.5113 46.4717H93.4026H93.0567H91.7175L86.6869 46.5063L69.4702 46.5607H69.3516V46.4421C69.3516 45.4175 69.3516 44.3748 69.3516 43.314V40.092L69.4751 39.9685L93.5162 40.0179H93.5904V40.092C93.5904 42.0984 93.5607 43.6945 93.5508 44.8014C93.5508 45.3302 93.5508 45.7404 93.5508 46.0369C93.5508 46.1653 93.5508 46.2691 93.5508 46.3482C93.5508 46.4272 93.4767 46.5113 93.4718 46.5113Z" fill="#E0E0E0"/>
<path d="M327.192 16.8464H303.15V23.2063H327.192V16.8464Z" fill="#F5F5F5"/>
<path d="M317.027 29.9073C317.024 29.8695 317.024 29.8314 317.027 29.7936V29.4675C317.027 29.166 317.027 28.7509 317.027 28.2123C317.027 27.1152 317.027 25.5389 316.988 23.5474L317.062 23.6215L293.021 23.6709C293.075 23.6166 292.897 23.7895 293.144 23.5474V24.3529C293.144 24.6247 293.144 24.8964 293.144 25.1633V29.9073L293.026 29.7887L310.159 29.843L315.214 29.8776H316.583H316.939H317.067H316.953H316.612H315.273L310.243 29.9122L293.026 29.9666H292.902V23.5573L293.026 23.4337L317.067 23.4831H317.141V23.5573C317.141 25.5636 317.111 27.1597 317.102 28.2667C317.102 28.7954 317.102 29.2056 317.102 29.5021C317.102 29.6305 317.102 29.7343 317.102 29.8183C317.102 29.9023 317.032 29.9073 317.027 29.9073Z" fill="#E0E0E0"/>
<path d="M190.086 143.283H166.045V149.643H190.086V143.283Z" fill="#F5F5F5"/>
<path d="M179.921 156.344C179.918 156.305 179.918 156.265 179.921 156.226V155.9C179.921 155.603 179.921 155.183 179.921 154.649C179.921 153.552 179.897 151.976 179.882 149.985L179.956 150.059L155.915 150.108C155.969 150.054 155.791 150.227 156.034 149.985V156.335L155.915 156.216L173.048 156.27L178.103 156.305H179.472H179.828H179.956H179.842H179.501H178.162L173.132 156.339L155.885 156.463H155.762V149.994L155.885 149.871L179.926 149.92H180.001V149.994C180.001 152.001 179.971 153.597 179.961 154.704C179.961 155.233 179.961 155.643 179.961 155.939C179.961 156.068 179.961 156.171 179.961 156.251C179.95 156.283 179.937 156.314 179.921 156.344Z" fill="#E0E0E0"/>
<path d="M32.4713 23.4881C32.4669 23.4503 32.4669 23.4122 32.4713 23.3744C32.4713 23.2904 32.4713 23.1817 32.4713 23.0483C32.4713 22.7468 32.4713 22.3317 32.4713 21.7931C32.4713 20.6961 32.4713 19.1197 32.4318 17.1282L32.5059 17.2023L8.43018 17.2567C8.48454 17.2023 8.30664 17.3802 8.54878 17.1331V23.4881L8.43018 23.3695L25.5629 23.4239L30.6182 23.4584H31.987H32.3428H32.4713C32.4336 23.4631 32.3954 23.4631 32.3577 23.4584H32.0167H30.6726L25.6469 23.493L8.43018 23.5474H8.30664V17.1381L8.43018 17.0145L32.4713 17.0639H32.5454V17.1381C32.5454 19.1493 32.5158 20.7405 32.5059 21.8475C32.5059 22.3762 32.5059 22.7913 32.5059 23.0829C32.5059 23.2114 32.5059 23.3151 32.5059 23.3991C32.4967 23.4297 32.4852 23.4594 32.4713 23.4881Z" fill="#E0E0E0"/>
<path d="M272.216 206.883C272.216 206.883 272.216 206.843 272.216 206.769V206.443C272.216 206.141 272.216 205.726 272.216 205.188C272.216 204.091 272.216 202.514 272.176 200.523L272.25 200.597L248.209 200.646L248.333 200.523V203.745C248.333 204.809 248.333 205.851 248.333 206.873L248.214 206.754L265.347 206.808L270.402 206.843H271.771H272.132H272.255C272.255 206.843 272.221 206.843 272.147 206.843H271.801H270.462L265.431 206.878L248.214 206.932H248.096V206.813C248.096 205.789 248.096 204.746 248.096 203.685V200.463L248.219 200.34L272.26 200.389H272.335V200.463C272.335 202.47 272.305 204.066 272.295 205.173C272.295 205.702 272.295 206.112 272.295 206.408C272.295 206.537 272.295 206.64 272.295 206.724C272.295 206.808 272.221 206.888 272.216 206.883Z" fill="#E0E0E0"/>
<path d="M175.829 14.3559C175.829 14.3559 175.829 14.3114 175.829 14.2373V13.9111C175.829 13.6146 175.829 13.1946 175.829 12.6609C175.829 11.5639 175.829 9.98253 175.79 7.99598L175.864 8.07011L151.823 8.11458L151.946 7.99598V11.2278C151.946 12.2919 151.946 13.3346 151.946 14.3559L151.828 14.2373L168.96 14.2916L174.016 14.3213H175.384H175.745C175.786 14.3172 175.828 14.3172 175.869 14.3213H175.76H175.414H174.075L169.044 14.3559L151.828 14.4102H151.709V14.2916C151.709 13.2687 151.709 12.226 151.709 11.1636V8.00587L151.833 7.88232L175.874 7.93174H175.948V8.00587C175.948 10.0122 175.918 11.6083 175.908 12.7153C175.908 13.244 175.908 13.6542 175.908 13.9507V14.262C175.887 14.297 175.86 14.3286 175.829 14.3559Z" fill="#E0E0E0"/>
<path d="M179.11 7.99594C179.106 7.95484 179.106 7.9135 179.11 7.8724C179.11 7.78345 179.11 7.6698 179.11 7.53637C179.11 7.22505 179.11 6.80007 179.11 6.26143C179.11 5.14461 179.08 3.57317 179.06 1.63604L179.149 1.72005L164.705 1.75464L164.823 1.63604V4.90247C164.823 5.96493 164.823 6.99773 164.823 7.98606L164.71 7.86746L175.043 7.92182L178.052 7.95641H178.863H179.154C179.067 7.96348 178.979 7.96348 178.892 7.95641H178.102L175.137 7.98606L164.724 8.04042H164.606V7.92676C164.606 6.93843 164.606 5.90563 164.606 4.84317V1.64592C164.576 1.64592 164.838 1.41366 164.729 1.52238L179.174 1.55697H179.263V1.64592C179.263 3.62258 179.223 5.19403 179.213 6.32567C179.213 6.85442 179.213 7.26952 179.213 7.58084C179.213 7.89217 179.11 8.00089 179.11 7.99594Z" fill="#E0E0E0"/>
<path d="M24.1202 166C24.1181 165.963 24.1181 165.925 24.1202 165.887C24.1202 165.803 24.1202 165.694 24.1202 165.561C24.1202 165.259 24.1202 164.844 24.1202 164.31C24.1202 163.213 24.1202 161.632 24.0807 159.64L24.1548 159.715L0.113658 159.764L0.237199 159.64V162.867C0.237199 163.928 0.237199 164.971 0.237199 165.995L0.1186 165.877L17.2513 165.931L22.3066 165.966H23.6755H24.0362H24.1597C24.1597 165.966 24.1251 165.966 24.051 165.966H23.7051H22.3659L17.3353 166L0.1186 166.055H0V166C0 164.977 0 163.935 0 162.872V159.645C0.247083 159.403 0.0691831 159.581 0.123541 159.527L24.1647 159.571H24.2388V159.645C24.2388 161.657 24.2092 163.248 24.1993 164.36C24.1993 164.888 24.1993 165.299 24.1993 165.595V165.906C24.1251 166 24.1251 166 24.1202 166Z" fill="#E0E0E0"/>
<path d="M27.4022 159.65C27.3983 159.611 27.3983 159.571 27.4022 159.532C27.4022 159.438 27.4022 159.329 27.4022 159.196C27.4022 158.879 27.4022 158.454 27.4022 157.921C27.4022 156.804 27.3725 155.228 27.3528 153.29L27.4417 153.379L12.9973 153.414C12.8886 153.523 13.1455 153.266 13.1159 153.29V156.562C13.1159 157.629 13.1159 158.657 13.1159 159.645L13.0022 159.532L23.3352 159.586L26.3447 159.621H27.1551H27.4467C27.3595 159.628 27.2719 159.628 27.1848 159.621H26.3941L23.4291 159.655L13.017 159.71H12.8984V159.591C12.8984 158.603 12.8984 157.575 12.8984 156.507V153.236L13.022 153.113L27.4022 153.201H27.4911V153.29C27.4911 155.267 27.4516 156.843 27.4417 157.97C27.4417 158.499 27.4417 158.919 27.4417 159.23C27.4417 159.542 27.4022 159.66 27.4022 159.65Z" fill="#E0E0E0"/>
<path d="M99.8254 113.713C99.821 113.675 99.821 113.637 99.8254 113.599V113.273C99.8254 112.972 99.8254 112.556 99.8254 112.023C99.8254 110.921 99.8007 109.344 99.7859 107.353L99.86 107.427L75.8189 107.476C75.8732 107.422 75.6953 107.6 75.9375 107.353V113.703L75.8189 113.584L92.9516 113.639L98.0069 113.673H99.3757H99.7315H99.86H99.7463H99.4054H98.0612L93.0356 113.703L75.8189 113.757H75.6953V107.284L75.8189 107.16L99.86 107.21H99.9341V107.284C99.9341 109.295 99.9045 110.886 99.8946 111.998C99.8946 112.522 99.8946 112.937 99.8946 113.229V113.545C99.8801 113.604 99.8567 113.661 99.8254 113.713Z" fill="#E0E0E0"/>
<path d="M103.087 107.353C103.08 107.314 103.08 107.274 103.087 107.234C103.087 107.14 103.087 107.032 103.087 106.893L103.062 105.618C103.062 104.507 103.062 102.93 103.018 100.993L103.107 101.082L88.6573 101.117L88.7809 100.993V104.264C88.7809 105.327 88.7809 106.36 88.7809 107.348L88.6623 107.234L98.9952 107.289L102.01 107.318H102.82H103.112C103.023 107.325 102.934 107.325 102.845 107.318H102.059L99.0941 107.353L88.682 107.407H88.5684V107.289C88.5684 106.3 88.5684 105.268 88.5684 104.205V100.934C88.5684 100.958 88.8056 100.701 88.6919 100.81L103.141 100.845H103.23V100.934C103.23 102.91 103.196 104.487 103.186 105.613C103.186 106.142 103.186 106.562 103.161 106.869C103.136 107.175 103.092 107.358 103.087 107.353Z" fill="#E0E0E0"/>
<path d="M318.653 48.3396H206.473V192.31H318.653V48.3396Z" fill="white"/>
<path d="M318.653 192.305C318.653 191.292 318.604 133.786 318.535 48.3396L318.653 48.4533H206.478L206.606 48.3248C206.606 101.729 206.606 151.314 206.606 192.29L206.498 192.186L318.673 192.29L206.498 192.399H206.394V192.29C206.394 151.314 206.394 101.729 206.369 48.3248V48.1963H206.512H318.688H318.802V48.3149C318.698 133.786 318.653 191.292 318.653 192.305Z" fill="#263238"/>
<path d="M307.074 103.266H218.396C218 103.266 217.68 103.587 217.68 103.983V118.116C217.68 118.512 218 118.832 218.396 118.832H307.074C307.47 118.832 307.791 118.512 307.791 118.116V103.983C307.791 103.587 307.47 103.266 307.074 103.266Z" fill="#EBEBEB"/>
<path d="M307.164 124.644H218.486C218.09 124.644 217.77 124.964 217.77 125.36V139.493C217.77 139.889 218.09 140.21 218.486 140.21H307.164C307.56 140.21 307.881 139.889 307.881 139.493V125.36C307.881 124.964 307.56 124.644 307.164 124.644Z" fill="#EBEBEB"/>
<path d="M227.54 110.16C227.54 110.94 226.972 111.415 226.057 111.415H225.168V112.502H224.674V108.904H226.077C226.957 108.895 227.54 109.369 227.54 110.16ZM227.046 110.16C227.046 109.665 226.7 109.349 226.057 109.349H225.183V110.965H226.057C226.665 110.955 227.011 110.654 227.011 110.16H227.046Z" fill="#263238"/>
<path d="M230.341 110.847V112.492H229.871V112.136C229.767 112.272 229.631 112.38 229.475 112.449C229.318 112.518 229.147 112.547 228.977 112.532C228.359 112.532 227.988 112.201 227.988 111.726C227.988 111.252 228.27 110.931 229.085 110.931H229.866V110.832C229.866 110.417 229.624 110.174 229.135 110.174C228.822 110.172 228.517 110.275 228.27 110.466L228.067 110.095C228.393 109.86 228.787 109.738 229.189 109.749C229.916 109.745 230.341 110.1 230.341 110.847ZM229.846 111.662V111.281H229.085C228.591 111.281 228.458 111.469 228.458 111.701C228.458 111.934 228.685 112.141 229.061 112.141C229.227 112.151 229.393 112.108 229.534 112.019C229.675 111.929 229.784 111.797 229.846 111.642V111.662Z" fill="#263238"/>
<path d="M230.91 112.205L231.113 111.815C231.399 111.999 231.731 112.097 232.071 112.097C232.531 112.097 232.719 111.958 232.719 111.726C232.719 111.113 230.999 111.647 230.999 110.56C230.999 110.066 231.434 109.745 232.136 109.745C232.481 109.737 232.822 109.823 233.124 109.992L232.916 110.382C232.681 110.232 232.405 110.156 232.126 110.165C231.696 110.165 231.483 110.323 231.483 110.54C231.483 111.183 233.213 110.659 233.213 111.716C233.213 112.21 232.763 112.527 232.037 112.527C231.637 112.536 231.245 112.424 230.91 112.205Z" fill="#263238"/>
<path d="M233.469 112.206L233.676 111.815C233.96 112 234.291 112.098 234.63 112.097C235.09 112.097 235.277 111.958 235.277 111.726C235.277 111.113 233.558 111.647 233.558 110.56C233.558 110.066 233.993 109.745 234.694 109.745C235.04 109.739 235.38 109.824 235.683 109.992L235.47 110.382C235.236 110.233 234.962 110.157 234.684 110.165C234.25 110.165 234.037 110.323 234.037 110.54C234.037 111.183 235.767 110.659 235.767 111.716C235.767 112.211 235.317 112.527 234.591 112.527C234.193 112.535 233.802 112.423 233.469 112.206Z" fill="#263238"/>
<path d="M240.476 109.769L239.458 112.492H238.964L238.178 110.427L237.422 112.492H236.928L235.939 109.769H236.409L237.2 111.939L238.02 109.769H238.41L239.216 111.949L240.026 109.769H240.476Z" fill="#263238"/>
<path d="M240.645 111.148C240.64 110.867 240.719 110.59 240.872 110.353C241.025 110.117 241.245 109.931 241.503 109.82C241.762 109.709 242.048 109.677 242.325 109.729C242.601 109.781 242.856 109.914 243.057 110.112C243.258 110.309 243.396 110.562 243.452 110.837C243.509 111.113 243.482 111.4 243.376 111.66C243.269 111.921 243.088 112.144 242.854 112.301C242.62 112.458 242.345 112.542 242.063 112.542C241.877 112.551 241.691 112.521 241.516 112.454C241.342 112.388 241.183 112.286 241.05 112.155C240.916 112.024 240.812 111.867 240.742 111.694C240.672 111.52 240.639 111.335 240.645 111.148ZM242.978 111.148C242.97 110.968 242.909 110.794 242.803 110.648C242.698 110.502 242.551 110.391 242.383 110.327C242.214 110.264 242.03 110.251 241.854 110.292C241.679 110.332 241.519 110.423 241.394 110.553C241.27 110.684 241.186 110.848 241.155 111.025C241.123 111.203 241.144 111.386 241.215 111.551C241.287 111.717 241.405 111.858 241.556 111.957C241.707 112.055 241.883 112.108 242.063 112.107C242.188 112.11 242.312 112.087 242.427 112.039C242.543 111.991 242.647 111.92 242.733 111.83C242.819 111.74 242.885 111.632 242.927 111.515C242.969 111.397 242.987 111.272 242.978 111.148Z" fill="#263238"/>
<path d="M245.626 109.744V110.239H245.512C245.392 110.231 245.271 110.25 245.159 110.295C245.046 110.339 244.946 110.408 244.863 110.497C244.781 110.585 244.719 110.691 244.683 110.806C244.646 110.921 244.636 111.043 244.652 111.163V112.517H244.158V109.794H244.652V110.248C244.752 110.082 244.896 109.947 245.068 109.858C245.239 109.769 245.433 109.73 245.626 109.744Z" fill="#263238"/>
<path d="M248.789 108.677V112.492H248.295V112.062C248.181 112.214 248.031 112.336 247.859 112.417C247.686 112.498 247.497 112.536 247.307 112.527C246.952 112.506 246.619 112.35 246.375 112.091C246.132 111.833 245.996 111.491 245.996 111.136C245.996 110.78 246.132 110.439 246.375 110.18C246.619 109.922 246.952 109.766 247.307 109.745C247.493 109.73 247.679 109.76 247.851 109.832C248.023 109.904 248.175 110.017 248.295 110.16V108.677H248.789ZM248.295 111.148C248.287 110.968 248.227 110.794 248.121 110.649C248.016 110.503 247.87 110.391 247.701 110.328C247.533 110.264 247.349 110.251 247.174 110.291C246.998 110.331 246.838 110.422 246.713 110.551C246.589 110.681 246.505 110.845 246.473 111.022C246.44 111.199 246.461 111.382 246.531 111.548C246.602 111.714 246.719 111.855 246.87 111.954C247.02 112.054 247.196 112.107 247.376 112.107C247.501 112.11 247.625 112.087 247.741 112.039C247.856 111.991 247.96 111.92 248.047 111.83C248.133 111.74 248.2 111.633 248.243 111.515C248.285 111.398 248.303 111.273 248.295 111.148Z" fill="#263238"/>
<path d="M224.326 133.079C224.323 132.831 224.37 132.584 224.465 132.354C224.561 132.125 224.702 131.917 224.881 131.744C225.06 131.572 225.272 131.437 225.505 131.35C225.737 131.262 225.986 131.224 226.234 131.236C226.488 131.226 226.742 131.271 226.977 131.369C227.213 131.466 227.424 131.613 227.598 131.799L227.267 132.12C227.137 131.982 226.98 131.873 226.806 131.799C226.631 131.726 226.443 131.691 226.254 131.695C225.887 131.695 225.535 131.841 225.275 132.101C225.016 132.36 224.87 132.712 224.87 133.079C224.87 133.446 225.016 133.798 225.275 134.057C225.535 134.317 225.887 134.463 226.254 134.463C226.444 134.467 226.633 134.43 226.807 134.355C226.982 134.28 227.139 134.169 227.267 134.028L227.598 134.354C227.424 134.541 227.211 134.688 226.975 134.785C226.739 134.883 226.484 134.928 226.229 134.917C225.981 134.929 225.734 134.89 225.503 134.802C225.271 134.715 225.059 134.581 224.881 134.409C224.703 134.236 224.562 134.03 224.467 133.801C224.371 133.572 224.323 133.327 224.326 133.079Z" fill="#263238"/>
<path d="M227.895 133.514C227.89 133.232 227.969 132.956 228.122 132.72C228.274 132.483 228.494 132.298 228.752 132.186C229.01 132.075 229.296 132.043 229.573 132.095C229.849 132.146 230.104 132.279 230.305 132.476C230.506 132.673 230.644 132.925 230.702 133.2C230.759 133.476 230.733 133.762 230.627 134.023C230.521 134.283 230.34 134.507 230.107 134.664C229.874 134.822 229.6 134.906 229.318 134.907C229.131 134.916 228.945 134.886 228.77 134.82C228.595 134.753 228.436 134.652 228.303 134.521C228.169 134.39 228.064 134.233 227.994 134.06C227.924 133.887 227.89 133.701 227.895 133.514ZM230.232 133.514C230.232 133.27 230.136 133.036 229.963 132.864C229.791 132.691 229.557 132.595 229.313 132.595C229.069 132.595 228.836 132.691 228.663 132.864C228.491 133.036 228.394 133.27 228.394 133.514C228.394 133.758 228.491 133.991 228.663 134.164C228.836 134.336 229.069 134.433 229.313 134.433C229.557 134.433 229.791 134.336 229.963 134.164C230.136 133.991 230.232 133.758 230.232 133.514Z" fill="#263238"/>
<path d="M233.999 133.311V134.868H233.504V133.385C233.504 132.852 233.238 132.59 232.773 132.59C232.654 132.58 232.533 132.597 232.421 132.64C232.309 132.682 232.208 132.749 232.125 132.836C232.042 132.923 231.98 133.027 231.942 133.14C231.905 133.254 231.893 133.375 231.908 133.494V134.868H231.414V132.145H231.908V132.555C232.025 132.408 232.176 132.29 232.348 132.214C232.52 132.137 232.709 132.103 232.897 132.115C233.052 132.108 233.206 132.134 233.35 132.193C233.494 132.251 233.623 132.341 233.728 132.455C233.833 132.569 233.912 132.705 233.959 132.853C234.005 133.001 234.019 133.157 233.999 133.311Z" fill="#263238"/>
<path d="M235.885 131.033C236.082 131.024 236.277 131.08 236.439 131.191L236.291 131.567C236.181 131.484 236.048 131.439 235.91 131.438C235.619 131.438 235.47 131.601 235.47 131.933V132.17H236.261V132.575H235.48V134.868H234.986V132.55H234.521V132.145H234.986V131.903C234.977 131.784 234.995 131.664 235.038 131.553C235.08 131.442 235.147 131.341 235.232 131.258C235.318 131.175 235.421 131.112 235.534 131.073C235.647 131.034 235.767 131.021 235.885 131.033ZM237.052 131.31C237.052 131.266 237.06 131.223 237.077 131.183C237.094 131.143 237.119 131.106 237.151 131.076C237.182 131.045 237.219 131.022 237.26 131.006C237.3 130.99 237.344 130.982 237.388 130.984C237.45 130.987 237.511 131.008 237.561 131.045C237.612 131.081 237.651 131.132 237.673 131.191C237.695 131.249 237.7 131.313 237.686 131.374C237.673 131.436 237.641 131.491 237.596 131.535C237.552 131.579 237.495 131.608 237.433 131.62C237.372 131.632 237.308 131.625 237.25 131.601C237.192 131.578 237.143 131.537 237.107 131.485C237.072 131.434 237.053 131.373 237.052 131.31ZM237.141 132.155H237.635V134.868H237.141V132.155Z" fill="#263238"/>
<path d="M240.037 132.125V132.619H239.923C239.803 132.612 239.683 132.631 239.572 132.675C239.46 132.72 239.36 132.788 239.278 132.876C239.196 132.964 239.135 133.069 239.099 133.184C239.062 133.298 239.052 133.419 239.068 133.538V134.868H238.574V132.145H239.044V132.6C239.149 132.436 239.298 132.305 239.473 132.221C239.648 132.138 239.844 132.104 240.037 132.125Z" fill="#263238"/>
<path d="M245.171 133.311V134.868H244.677V133.386C244.677 132.852 244.42 132.59 243.97 132.59C243.521 132.59 243.155 132.901 243.155 133.494V134.868H242.661V133.386C242.661 132.852 242.404 132.59 241.954 132.59C241.504 132.59 241.139 132.901 241.139 133.494V134.868H240.645V132.145H241.139V132.55C241.247 132.406 241.39 132.291 241.553 132.215C241.717 132.139 241.897 132.105 242.078 132.116C242.266 132.099 242.455 132.137 242.622 132.225C242.789 132.312 242.928 132.446 243.021 132.61C243.143 132.448 243.303 132.318 243.486 132.232C243.67 132.146 243.872 132.106 244.074 132.116C244.229 132.107 244.384 132.132 244.528 132.191C244.672 132.249 244.801 132.339 244.906 132.453C245.011 132.568 245.089 132.704 245.135 132.853C245.181 133.001 245.193 133.158 245.171 133.311Z" fill="#263238"/>
<path d="M250.438 132.535C250.438 133.316 249.87 133.786 248.956 133.786H248.066V134.868H247.572V131.27H248.976C249.87 131.28 250.438 131.75 250.438 132.535ZM249.92 132.535C249.92 132.041 249.579 131.725 248.931 131.725H248.047V133.341H248.921C249.579 133.341 249.92 133.049 249.92 132.535Z" fill="#263238"/>
<path d="M253.236 133.232V134.868H252.771V134.507C252.667 134.642 252.53 134.748 252.374 134.817C252.218 134.885 252.047 134.913 251.877 134.898C251.259 134.898 250.889 134.571 250.889 134.097C250.889 133.623 251.17 133.301 251.981 133.301H252.742V133.203C252.742 132.788 252.505 132.545 252.015 132.545C251.703 132.543 251.398 132.645 251.151 132.837L250.943 132.466C251.269 132.228 251.666 132.104 252.07 132.115C252.831 132.125 253.236 132.486 253.236 133.232ZM252.742 134.043V133.662H251.981C251.487 133.662 251.358 133.855 251.358 134.087C251.358 134.319 251.58 134.527 251.956 134.527C252.121 134.54 252.287 134.5 252.428 134.413C252.569 134.326 252.679 134.196 252.742 134.043Z" fill="#263238"/>
<path d="M253.824 134.591L254.027 134.201C254.313 134.385 254.646 134.483 254.985 134.482C255.44 134.482 255.633 134.344 255.633 134.112C255.633 133.499 253.908 134.028 253.908 132.946C253.908 132.451 254.348 132.125 255.045 132.125C255.39 132.12 255.731 132.205 256.033 132.372L255.821 132.763C255.585 132.617 255.312 132.543 255.035 132.55C254.605 132.55 254.393 132.708 254.393 132.926C254.393 133.568 256.122 133.044 256.122 134.102C256.122 134.596 255.667 134.907 254.941 134.907C254.546 134.916 254.156 134.806 253.824 134.591Z" fill="#263238"/>
<path d="M256.398 134.591L256.601 134.201C256.887 134.385 257.22 134.483 257.56 134.482C258.014 134.482 258.207 134.344 258.207 134.112C258.207 133.499 256.482 134.028 256.482 132.946C256.482 132.451 256.922 132.125 257.619 132.125C257.964 132.12 258.305 132.205 258.607 132.372L258.395 132.763C258.159 132.617 257.886 132.543 257.609 132.55C257.179 132.55 256.967 132.708 256.967 132.926C256.967 133.568 258.696 133.044 258.696 134.102C258.696 134.596 258.242 134.907 257.515 134.907C257.12 134.916 256.731 134.806 256.398 134.591Z" fill="#263238"/>
<path d="M263.391 132.155L262.373 134.868H261.879L261.093 132.802L260.313 134.868H259.818L258.83 132.145H259.295L260.09 134.314L260.911 132.145H261.326L262.136 134.324L262.946 132.145L263.391 132.155Z" fill="#263238"/>
<path d="M263.559 133.514C263.554 133.232 263.633 132.956 263.786 132.719C263.939 132.483 264.159 132.297 264.417 132.186C264.676 132.075 264.962 132.043 265.239 132.095C265.515 132.147 265.77 132.28 265.971 132.477C266.172 132.675 266.31 132.927 266.366 133.203C266.423 133.479 266.397 133.765 266.29 134.026C266.183 134.287 266.002 134.51 265.768 134.666C265.534 134.823 265.259 134.907 264.977 134.907C264.791 134.916 264.605 134.887 264.43 134.82C264.256 134.753 264.097 134.652 263.964 134.521C263.83 134.39 263.726 134.233 263.656 134.059C263.587 133.886 263.554 133.7 263.559 133.514ZM265.892 133.514C265.892 133.27 265.795 133.036 265.622 132.864C265.45 132.691 265.216 132.595 264.973 132.595C264.729 132.595 264.495 132.691 264.323 132.864C264.15 133.036 264.053 133.27 264.053 133.514C264.053 133.758 264.15 133.991 264.323 134.164C264.495 134.336 264.729 134.433 264.973 134.433C265.216 134.433 265.45 134.336 265.622 134.164C265.795 133.991 265.892 133.758 265.892 133.514Z" fill="#263238"/>
<path d="M268.556 132.125V132.619H268.442C268.322 132.611 268.201 132.629 268.089 132.674C267.976 132.718 267.875 132.786 267.793 132.874C267.711 132.962 267.649 133.068 267.612 133.183C267.576 133.298 267.566 133.419 267.582 133.539V134.868H267.088V132.145H267.582V132.6C267.685 132.439 267.831 132.31 268.002 132.226C268.174 132.143 268.365 132.108 268.556 132.125Z" fill="#263238"/>
<path d="M271.688 131.063V134.868H271.193V134.438C271.08 134.591 270.93 134.712 270.757 134.793C270.585 134.873 270.395 134.909 270.205 134.897C269.851 134.876 269.517 134.721 269.274 134.462C269.03 134.203 268.895 133.862 268.895 133.506C268.895 133.151 269.03 132.809 269.274 132.551C269.517 132.292 269.851 132.136 270.205 132.115C270.387 132.108 270.568 132.144 270.733 132.22C270.898 132.297 271.042 132.412 271.154 132.555V131.073L271.688 131.063ZM271.193 133.534C271.185 133.354 271.123 133.18 271.017 133.035C270.911 132.89 270.764 132.779 270.595 132.716C270.426 132.654 270.243 132.642 270.067 132.683C269.892 132.723 269.733 132.815 269.609 132.945C269.485 133.076 269.402 133.24 269.37 133.418C269.339 133.595 269.36 133.777 269.432 133.943C269.503 134.108 269.622 134.249 269.772 134.347C269.923 134.446 270.099 134.498 270.279 134.497C270.407 134.501 270.533 134.478 270.651 134.429C270.769 134.381 270.875 134.307 270.962 134.214C271.049 134.121 271.115 134.01 271.156 133.889C271.197 133.769 271.211 133.641 271.198 133.514L271.193 133.534Z" fill="#263238"/>
<path d="M306.636 148.749H217.963C217.567 148.749 217.246 149.07 217.246 149.466V163.599C217.246 163.994 217.567 164.315 217.963 164.315H306.636C307.031 164.315 307.352 163.994 307.352 163.599V149.466C307.352 149.07 307.031 148.749 306.636 148.749Z" fill="url(#paint0_linear_1_6003)"/>
<path d="M251.154 156.651C251.153 156.396 251.203 156.143 251.303 155.908C251.403 155.673 251.551 155.462 251.736 155.287C251.922 155.111 252.141 154.976 252.381 154.89C252.621 154.803 252.876 154.767 253.131 154.783C253.424 154.769 253.716 154.822 253.984 154.94C254.252 155.057 254.49 155.235 254.678 155.46L254.03 156.048C253.932 155.916 253.803 155.808 253.656 155.735C253.508 155.661 253.345 155.623 253.18 155.623C252.92 155.641 252.675 155.757 252.497 155.949C252.318 156.14 252.219 156.392 252.219 156.653C252.219 156.915 252.318 157.167 252.497 157.358C252.675 157.549 252.92 157.666 253.18 157.684C253.345 157.683 253.508 157.644 253.655 157.57C253.803 157.497 253.931 157.39 254.03 157.259L254.678 157.847C254.489 158.07 254.251 158.248 253.983 158.365C253.715 158.482 253.423 158.537 253.131 158.524C252.876 158.54 252.62 158.504 252.38 158.417C252.14 158.33 251.92 158.194 251.734 158.018C251.549 157.842 251.402 157.63 251.302 157.395C251.202 157.16 251.152 156.906 251.154 156.651Z" fill="black"/>
<path d="M258.054 156.858V158.454H257.066V157.016C257.066 156.616 256.888 156.448 256.606 156.448C256.325 156.448 256.053 156.641 256.053 157.105V158.454H255.064V154.635H256.053V155.924C256.281 155.718 256.58 155.608 256.888 155.618C257.051 155.605 257.214 155.629 257.367 155.688C257.519 155.747 257.656 155.84 257.768 155.959C257.88 156.078 257.964 156.22 258.013 156.376C258.063 156.532 258.077 156.696 258.054 156.858Z" fill="black"/>
<path d="M261.28 156.903V158.454H260.371V158.094C260.287 158.233 260.164 158.346 260.018 158.417C259.871 158.489 259.708 158.518 259.546 158.499C258.878 158.499 258.508 158.123 258.508 157.639C258.508 157.155 258.883 156.809 259.748 156.809H260.302C260.302 156.522 260.094 156.364 259.709 156.364C259.438 156.365 259.174 156.449 258.953 156.606L258.626 155.944C258.998 155.723 259.424 155.61 259.857 155.618C260.761 155.623 261.28 156.018 261.28 156.903ZM260.292 157.56V157.318H259.872C259.555 157.318 259.442 157.427 259.442 157.599C259.442 157.772 259.58 157.881 259.807 157.881C259.913 157.888 260.019 157.86 260.108 157.802C260.197 157.744 260.265 157.659 260.302 157.56H260.292Z" fill="black"/>
<path d="M264.863 156.858V158.454H263.874V157.016C263.874 156.616 263.701 156.448 263.42 156.448C263.138 156.448 262.861 156.641 262.861 157.105V158.454H261.873V155.667H262.802V155.969C262.918 155.853 263.056 155.762 263.208 155.702C263.36 155.641 263.523 155.613 263.687 155.618C263.85 155.604 264.015 155.627 264.169 155.685C264.322 155.743 264.461 155.835 264.574 155.954C264.687 156.074 264.772 156.217 264.822 156.373C264.872 156.53 264.886 156.696 264.863 156.858Z" fill="black"/>
<path d="M268.515 155.667V157.946C268.515 158.998 267.917 159.497 266.879 159.497C266.392 159.514 265.911 159.387 265.496 159.132L265.851 158.45C266.126 158.643 266.454 158.746 266.79 158.746C267.314 158.746 267.537 158.509 267.537 158.074V157.98C267.432 158.092 267.304 158.18 267.161 158.236C267.018 158.293 266.864 158.317 266.711 158.306C266.355 158.306 266.013 158.165 265.761 157.913C265.509 157.66 265.367 157.319 265.367 156.962C265.367 156.606 265.509 156.264 265.761 156.012C266.013 155.76 266.355 155.618 266.711 155.618C266.878 155.606 267.044 155.634 267.197 155.702C267.349 155.769 267.483 155.873 267.586 156.003V155.667H268.515ZM267.527 156.962C267.535 156.841 267.506 156.719 267.444 156.614C267.382 156.509 267.29 156.425 267.18 156.373C267.07 156.321 266.947 156.303 266.826 156.322C266.706 156.341 266.594 156.395 266.505 156.479C266.416 156.562 266.354 156.67 266.327 156.789C266.3 156.908 266.31 157.032 266.355 157.145C266.399 157.259 266.477 157.356 266.577 157.425C266.678 157.493 266.797 157.53 266.919 157.53C267 157.543 267.083 157.537 267.162 157.514C267.24 157.491 267.313 157.451 267.375 157.397C267.436 157.343 267.485 157.276 267.518 157.201C267.552 157.126 267.568 157.044 267.566 156.962H267.527Z" fill="black"/>
<path d="M271.975 157.308H269.948C269.994 157.45 270.088 157.571 270.213 157.653C270.338 157.734 270.487 157.769 270.635 157.753C270.873 157.759 271.104 157.672 271.278 157.51L271.772 158.044C271.62 158.204 271.434 158.327 271.228 158.406C271.022 158.485 270.801 158.516 270.581 158.499C269.593 158.499 268.945 157.886 268.945 157.051C268.946 156.854 268.987 156.66 269.066 156.479C269.145 156.299 269.26 156.137 269.404 156.002C269.548 155.868 269.718 155.765 269.903 155.699C270.089 155.633 270.286 155.605 270.482 155.618C270.677 155.605 270.873 155.634 271.056 155.702C271.239 155.769 271.406 155.875 271.546 156.011C271.686 156.148 271.795 156.312 271.867 156.494C271.94 156.676 271.973 156.87 271.965 157.066C272.014 157.135 271.979 157.229 271.975 157.308ZM269.934 156.789H271.075C271.053 156.653 270.984 156.53 270.879 156.441C270.775 156.352 270.642 156.303 270.504 156.303C270.367 156.303 270.234 156.352 270.13 156.441C270.025 156.53 269.956 156.653 269.934 156.789Z" fill="black"/>
<path d="M253.917 81.1917H253.092V82.61H251.58V77.2681H254.021C255.479 77.2681 256.398 78.0241 256.398 79.2447C256.411 79.598 256.319 79.9472 256.132 80.2474C255.945 80.5477 255.673 80.7853 255.351 80.9298L256.502 82.61H254.886L253.917 81.1917ZM253.917 78.459H253.077V80.0156H253.917C254.54 80.0156 254.856 79.729 254.856 79.2398C254.856 78.7506 254.555 78.459 253.932 78.459H253.917Z" fill="#263238"/>
<path d="M261.364 80.91H258.359C258.424 81.1165 258.557 81.2948 258.737 81.4152C258.917 81.5357 259.132 81.5911 259.348 81.5722C259.523 81.5786 259.697 81.55 259.861 81.4881C260.025 81.4261 260.175 81.3321 260.302 81.2115L261.063 82.0071C260.836 82.241 260.562 82.4224 260.258 82.5385C259.954 82.6546 259.628 82.7026 259.303 82.6791C257.821 82.6791 256.877 81.7699 256.877 80.5345C256.877 80.2425 256.937 79.9536 257.053 79.6858C257.169 79.4179 257.339 79.1767 257.552 78.9771C257.765 78.7775 258.017 78.6237 258.292 78.5252C258.567 78.4267 258.859 78.3857 259.15 78.4046C259.44 78.3851 259.731 78.4266 260.004 78.5265C260.276 78.6264 260.525 78.7825 260.734 78.9847C260.943 79.1869 261.107 79.4306 261.215 79.7001C261.324 79.9696 261.374 80.2589 261.364 80.5493C261.389 80.658 261.374 80.7914 261.364 80.91ZM258.335 80.1441H260.03C259.995 79.9441 259.892 79.7627 259.737 79.632C259.581 79.5012 259.385 79.4295 259.182 79.4295C258.979 79.4295 258.783 79.5012 258.628 79.632C258.473 79.7627 258.369 79.9441 258.335 80.1441Z" fill="#263238"/>
<path d="M261.73 82.2493L262.165 81.261C262.606 81.5088 263.103 81.6398 263.608 81.6415C264.102 81.6415 264.256 81.5328 264.256 81.3598C264.256 80.8014 261.814 81.434 261.814 79.7785C261.814 79.0027 262.531 78.4047 263.831 78.4047C264.394 78.3939 264.952 78.514 265.461 78.7556L265.027 79.7439C264.662 79.5427 264.252 79.4389 263.836 79.4425C263.341 79.4425 263.173 79.5759 263.173 79.7291C263.173 80.3023 265.61 79.6846 265.61 81.3252C265.61 82.0862 264.908 82.6842 263.564 82.6842C262.926 82.6952 262.295 82.5457 261.73 82.2493Z" fill="#263238"/>
<path d="M270.438 80.91H267.434C267.499 81.1161 267.632 81.2938 267.812 81.4141C267.992 81.5344 268.207 81.5901 268.422 81.5722C268.597 81.5786 268.772 81.55 268.935 81.4881C269.099 81.4261 269.249 81.3321 269.376 81.2115L270.142 82.0071C269.914 82.2408 269.639 82.4221 269.334 82.5382C269.029 82.6543 268.703 82.7024 268.378 82.6791C266.895 82.6791 265.951 81.7699 265.951 80.5345C265.951 80.2425 266.011 79.9536 266.127 79.6858C266.243 79.4179 266.413 79.1767 266.626 78.9771C266.839 78.7775 267.091 78.6237 267.366 78.5252C267.641 78.4267 267.933 78.3857 268.224 78.4046C268.514 78.3851 268.805 78.4266 269.078 78.5265C269.351 78.6264 269.599 78.7825 269.808 78.9847C270.017 79.1869 270.181 79.4306 270.289 79.7001C270.398 79.9696 270.449 80.2589 270.438 80.5493C270.463 80.658 270.448 80.7914 270.438 80.91ZM267.409 80.1441H269.104C269.078 79.9415 268.977 79.7561 268.82 79.6251C268.663 79.4941 268.463 79.427 268.259 79.4374C268.055 79.4292 267.855 79.4969 267.698 79.6274C267.541 79.7579 267.438 79.942 267.409 80.1441Z" fill="#263238"/>
<path d="M273.99 82.4419C273.687 82.607 273.346 82.6889 273.002 82.6791C271.939 82.6791 271.322 82.1849 271.322 81.0977V79.7091H270.719V78.6269H271.322V77.5447H272.77V78.622H273.718V79.7042H272.77V81.078C272.758 81.1402 272.761 81.2043 272.778 81.2653C272.795 81.3262 272.826 81.3826 272.868 81.4301C272.909 81.4776 272.961 81.5151 273.02 81.5397C273.078 81.5643 273.141 81.5754 273.204 81.5721C273.362 81.5743 273.517 81.5296 273.649 81.4436L273.99 82.4419Z" fill="#263238"/>
<path d="M235.89 89.2615V91.1788H234.378V89.2368L232.342 85.8369H233.933L235.203 87.9569L236.468 85.8369H237.951L235.89 89.2615Z" fill="#263238"/>
<path d="M237.531 89.1032C237.531 87.8579 238.52 86.9734 239.864 86.9734C241.208 86.9734 242.201 87.8579 242.201 89.1032C242.201 90.3485 241.213 91.2479 239.864 91.2479C238.515 91.2479 237.531 90.3535 237.531 89.1032ZM240.733 89.1032C240.746 88.9812 240.734 88.8579 240.696 88.7411C240.658 88.6244 240.596 88.5169 240.514 88.4257C240.432 88.3344 240.332 88.2614 240.22 88.2115C240.108 88.1615 239.986 88.1357 239.864 88.1357C239.741 88.1357 239.62 88.1615 239.508 88.2115C239.396 88.2614 239.295 88.3344 239.213 88.4257C239.131 88.5169 239.069 88.6244 239.032 88.7411C238.994 88.8579 238.981 88.9812 238.994 89.1032C238.981 89.2252 238.994 89.3486 239.032 89.4654C239.069 89.5821 239.131 89.6896 239.213 89.7808C239.295 89.8721 239.396 89.945 239.508 89.995C239.62 90.0449 239.741 90.0708 239.864 90.0708C239.986 90.0708 240.108 90.0449 240.22 89.995C240.332 89.945 240.432 89.8721 240.514 89.7808C240.596 89.6896 240.658 89.5821 240.696 89.4654C240.734 89.3486 240.746 89.2252 240.733 89.1032Z" fill="#263238"/>
<path d="M247.221 87.0425V91.1786H245.823V90.7339C245.664 90.8978 245.472 91.0266 245.26 91.1117C245.048 91.1968 244.82 91.2365 244.592 91.2281C243.604 91.2281 242.838 90.6449 242.838 89.3354V87.0227H244.286V89.0982C244.286 89.7406 244.538 89.9877 244.973 89.9877C245.408 89.9877 245.753 89.706 245.753 88.9994V87.0227L247.221 87.0425Z" fill="#263238"/>
<path d="M250.923 86.9735V88.2781C250.814 88.2634 250.705 88.2552 250.596 88.2534C250.46 88.2394 250.322 88.2565 250.194 88.3035C250.065 88.3505 249.949 88.4261 249.854 88.5246C249.758 88.6231 249.687 88.742 249.644 88.8722C249.602 89.0024 249.589 89.1406 249.608 89.2763V91.1789H248.16V87.0427H249.539V87.5369C249.711 87.3432 249.925 87.1917 250.165 87.094C250.405 86.9963 250.664 86.9551 250.923 86.9735Z" fill="#263238"/>
<path d="M258.642 87.8136C258.642 89.0243 257.723 89.7902 256.265 89.7902H255.336V91.1887H253.824V85.8369H256.265C257.723 85.8369 258.642 86.593 258.642 87.8136ZM257.115 87.8136C257.115 87.3194 256.799 87.0279 256.176 87.0279H255.336V88.5894H256.201C256.799 88.5894 257.115 88.3028 257.115 87.8136Z" fill="#263238"/>
<path d="M263.144 88.881V91.1789H261.795V90.6452C261.67 90.8524 261.488 91.0193 261.27 91.1262C261.053 91.2331 260.81 91.2754 260.569 91.2481C259.581 91.2481 259.027 90.6896 259.027 89.9731C259.027 89.2566 259.586 88.7377 260.871 88.7377H261.691C261.691 88.3177 261.389 88.0805 260.816 88.0805C260.415 88.0802 260.023 88.2045 259.694 88.4363L259.2 87.4479C259.751 87.1189 260.382 86.9479 261.024 86.9538C262.373 86.9735 263.144 87.5665 263.144 88.881ZM261.691 89.8693V89.5086H261.068C260.604 89.5086 260.436 89.6766 260.436 89.9286C260.436 90.1807 260.633 90.3487 260.974 90.3487C261.132 90.3569 261.288 90.3123 261.418 90.222C261.548 90.1316 261.644 90.0005 261.691 89.8496V89.8693Z" fill="#263238"/>
<path d="M263.732 90.8179L264.167 89.8296C264.606 90.0821 265.104 90.215 265.61 90.2151C266.104 90.2151 266.258 90.1063 266.258 89.9334C266.258 89.375 263.816 90.0075 263.816 88.3521C263.816 87.5713 264.533 86.9783 265.828 86.9783C266.393 86.9669 266.953 87.087 267.463 87.3291L267.028 88.3175C266.664 88.1154 266.254 88.0099 265.838 88.0111C265.343 88.0111 265.175 88.1495 265.175 88.3026C265.175 88.8759 267.607 88.2582 267.607 89.8988C267.607 90.6598 266.905 91.2577 265.561 91.2577C264.924 91.2675 264.295 91.1162 263.732 90.8179Z" fill="#263238"/>
<path d="M267.908 90.8181L268.343 89.8298C268.781 90.0816 269.276 90.2145 269.781 90.2152C270.275 90.2152 270.433 90.1065 270.433 89.9336C270.433 89.3752 267.992 90.0077 267.992 88.3522C267.992 87.5715 268.709 86.9785 270.003 86.9785C270.568 86.9676 271.128 87.0877 271.639 87.3293L271.204 88.3176C270.839 88.1168 270.43 88.0114 270.013 88.0113C269.519 88.0113 269.346 88.1496 269.346 88.3028C269.346 88.8761 271.782 88.2583 271.782 89.899C271.782 90.66 271.081 91.2579 269.737 91.2579C269.1 91.2681 268.471 91.1168 267.908 90.8181Z" fill="#263238"/>
<path d="M279.184 87.0427L277.702 91.1788H276.298L275.527 88.9106L274.722 91.164H273.318L271.836 87.0278H273.21L274.055 89.5283L274.929 87.0278H276.17L277.025 89.553L277.899 87.0278L279.184 87.0427Z" fill="#263238"/>
<path d="M279.254 89.1032C279.254 87.8579 280.242 86.9734 281.591 86.9734C282.94 86.9734 283.924 87.8579 283.924 89.1032C283.924 90.3485 282.935 91.2479 281.591 91.2479C280.247 91.2479 279.254 90.3535 279.254 89.1032ZM282.461 89.1032C282.439 88.9366 282.37 88.7798 282.261 88.6516C282.153 88.5234 282.009 88.4291 281.849 88.3802C281.688 88.3312 281.516 88.3296 281.355 88.3755C281.193 88.4214 281.048 88.5129 280.937 88.6391C280.826 88.7652 280.754 88.9207 280.729 89.0868C280.704 89.253 280.727 89.4229 280.796 89.5761C280.865 89.7293 280.977 89.8594 281.118 89.9508C281.259 90.0422 281.423 90.0911 281.591 90.0916C281.716 90.0927 281.84 90.067 281.954 90.0161C282.068 89.9651 282.17 89.8902 282.252 89.7964C282.335 89.7027 282.396 89.5922 282.432 89.4726C282.468 89.353 282.478 89.227 282.461 89.1032Z" fill="#263238"/>
<path d="M287.368 86.9735V88.2781C287.258 88.2632 287.148 88.2549 287.037 88.2533C286.9 88.2384 286.762 88.2548 286.633 88.3014C286.504 88.3481 286.387 88.4237 286.292 88.5224C286.196 88.6212 286.125 88.7404 286.083 88.8711C286.041 89.0018 286.029 89.1404 286.049 89.2763V91.1788H284.596V87.0426H285.979V87.5368C286.151 87.3419 286.366 87.1895 286.607 87.0917C286.848 86.994 287.109 86.9535 287.368 86.9735Z" fill="#263238"/>
<path d="M292.319 85.5156V91.1788H290.94V90.7637C290.789 90.9338 290.601 91.0669 290.39 91.1526C290.179 91.2383 289.951 91.2743 289.724 91.2578C289.175 91.2314 288.658 90.9947 288.278 90.5968C287.899 90.1989 287.687 89.6703 287.688 89.1206C287.687 88.5709 287.899 88.0423 288.278 87.6443C288.658 87.2464 289.175 87.0097 289.724 86.9833C289.935 86.9713 290.145 87.0029 290.342 87.076C290.539 87.1492 290.719 87.2623 290.871 87.4083V85.5255L292.319 85.5156ZM290.891 89.1033C290.869 88.9362 290.799 88.7791 290.69 88.6507C290.581 88.5223 290.437 88.4281 290.276 88.3795C290.115 88.3309 289.943 88.3299 289.781 88.3766C289.619 88.4233 289.474 88.5158 289.364 88.6428C289.253 88.7699 289.181 88.9263 289.158 89.093C289.134 89.2598 289.158 89.4299 289.229 89.5829C289.299 89.7359 289.413 89.8653 289.555 89.9555C289.697 90.0458 289.862 90.093 290.031 90.0916C290.155 90.0922 290.278 90.0659 290.391 90.0146C290.505 89.9633 290.606 89.8882 290.687 89.7944C290.769 89.7006 290.829 89.5903 290.864 89.471C290.899 89.3518 290.908 89.2263 290.891 89.1033Z" fill="#263238"/>
<path d="M277.533 53.7408L273.629 52.9304L278.571 29.1561C278.755 27.9095 278.481 26.6386 277.8 25.5783C271.578 16.965 261.458 20.4637 259.906 27.9059L255.459 49.155L251.555 48.3396L256.541 24.4121C256.798 23.1743 257.327 22.0092 258.09 21.0014C258.854 19.9937 259.832 19.1685 260.954 18.5859C273.525 12.1074 284.076 22.1785 281.926 32.5016L277.533 53.7408Z" fill="#E0E0E0"/>
<path d="M277.533 53.7408C277.533 53.7408 277.557 53.5926 277.617 53.3158C277.676 53.0391 277.755 52.6191 277.864 52.0804L278.852 47.3513C279.277 45.3005 279.791 42.7951 280.389 39.8844L281.377 35.2294C281.684 33.5789 282.193 31.8493 282.212 29.9814C282.242 28.0259 281.826 26.0892 280.997 24.3182C280.888 24.0909 280.784 23.8537 280.671 23.6264L280.275 22.9593C280.006 22.5123 279.711 22.0816 279.391 21.6695C279.233 21.4521 279.045 21.2643 278.872 21.0617C278.699 20.8591 278.531 20.6515 278.328 20.4736C277.944 20.0907 277.535 19.7341 277.103 19.4062C276.226 18.7201 275.266 18.1473 274.247 17.7014L273.451 17.4049L273.001 17.2566L272.586 17.1479L271.751 16.9305C271.464 16.8662 271.178 16.8366 270.891 16.7871C268.507 16.4322 266.072 16.7435 263.854 17.6865C262.094 18.4346 260.518 19.5587 259.237 20.98C257.957 22.4013 257.003 24.0855 256.442 25.9144C256.081 27.1745 255.849 28.4939 255.567 29.8084C254.47 35.0811 253.329 40.5417 252.167 46.1158C252.009 46.862 251.856 47.5983 251.703 48.3445L251.629 48.2309L255.532 49.0462L255.424 49.1204C256.303 44.8953 257.168 40.7591 258.003 36.7662C258.422 34.7599 258.835 32.7833 259.244 30.8363L259.847 27.9405C260.058 26.984 260.404 26.0622 260.874 25.2028C261.827 23.5441 263.261 22.2138 264.986 21.3878C265.198 21.2939 265.401 21.1803 265.623 21.1061L266.276 20.8788C266.713 20.7474 267.159 20.6467 267.61 20.5774C268.058 20.5093 268.511 20.473 268.964 20.4687C269.186 20.4687 269.414 20.4687 269.636 20.4983H269.967L270.298 20.5527C271.168 20.6712 272.016 20.9125 272.818 21.2692C273.593 21.6261 274.319 22.0812 274.978 22.6232C276.238 23.6867 277.197 25.0617 277.76 26.6111C278.304 28.0613 278.462 29.6278 278.22 31.1575L278.131 31.706C278.096 31.8839 278.057 32.0618 278.022 32.2397L277.8 33.2972C277.651 33.994 277.508 34.6759 277.37 35.348C276.806 38.0264 276.287 40.4922 275.823 42.711C274.884 47.1585 274.153 50.6177 273.668 52.9353L273.644 52.9007L276.609 53.5283L277.33 53.6865L277.567 53.7408L277.335 53.6963L276.619 53.558L273.654 52.9551V52.9254L275.759 42.6962C276.218 40.4725 276.747 38.0066 277.286 35.3233C277.424 34.6562 277.567 33.9693 277.711 33.2725C277.78 32.9266 277.854 32.5708 277.928 32.2199C277.968 32.042 278.002 31.8641 278.042 31.6813C278.081 31.4984 278.096 31.3205 278.126 31.1426C278.362 29.6356 278.204 28.093 277.666 26.6655C277.109 25.1415 276.161 23.7903 274.919 22.7468C274.267 22.2139 273.549 21.7671 272.784 21.4175C271.997 21.0705 271.165 20.8344 270.313 20.7158L269.987 20.6663H269.656C269.438 20.6663 269.221 20.6367 268.998 20.6663C268.104 20.6764 267.216 20.8129 266.36 21.0716L265.717 21.2989C265.504 21.3789 265.297 21.4713 265.095 21.5756C263.4 22.3859 261.993 23.6945 261.062 25.3263C260.605 26.1683 260.272 27.0722 260.074 28.0096C259.876 28.9683 259.675 29.9336 259.471 30.9054C259.066 32.8525 258.654 34.8291 258.236 36.8354L255.661 49.1896V49.2834H255.567L251.663 48.4681H251.574V48.3742C251.727 47.6379 251.881 46.8917 252.039 46.1455C253.205 40.5565 254.342 35.096 255.444 29.838C255.725 28.5186 255.938 27.2091 256.323 25.9243C256.725 24.6684 257.298 23.4743 258.028 22.3762C259.474 20.2526 261.502 18.5915 263.869 17.5926C266.116 16.6403 268.582 16.3273 270.995 16.6883C271.286 16.7377 271.578 16.7723 271.865 16.8316L272.853 17.0886L273.382 17.2566L274.172 17.5531L274.538 17.7063C275.505 18.1444 276.416 18.6969 277.251 19.3519C277.684 19.6874 278.097 20.0488 278.486 20.4341C278.642 20.6037 278.791 20.7802 278.931 20.9628C279.104 21.1704 279.297 21.3582 279.45 21.5756C279.776 21.9939 280.076 22.4312 280.349 22.8851L280.745 23.5572C280.863 23.7895 280.962 24.0514 281.076 24.2589C281.909 26.0513 282.323 28.01 282.287 29.9863C282.287 31.874 281.748 33.6085 281.437 35.264C281.125 36.9194 280.76 38.4761 280.448 39.9338C279.836 42.8445 279.302 45.3697 278.872 47.4007C278.442 49.4317 278.101 51.0328 277.884 52.1101L277.622 53.3307C277.567 53.6074 277.533 53.7408 277.533 53.7408Z" fill="#263238"/>
<path d="M249.871 33.5381L284.746 40.8049C285.226 40.9049 285.647 41.1914 285.915 41.6014C286.184 42.0114 286.279 42.5113 286.179 42.9912L280.669 69.4343C280.578 69.8706 280.318 70.2528 279.945 70.497C279.572 70.7412 279.118 70.8273 278.681 70.7364L243.642 63.4354L249.871 33.5381Z" fill="#455A64"/>
<g opacity="0.3">
<path d="M249.889 33.5662L284.58 40.7946C285.109 40.9048 285.572 41.2204 285.868 41.6721C286.164 42.1238 286.268 42.6745 286.158 43.2031L280.725 69.2786C280.624 69.7636 280.334 70.1885 279.92 70.46C279.505 70.7315 279 70.8273 278.515 70.7262L243.659 63.4635L249.889 33.5662Z" fill="black"/>
</g>
<path d="M250.167 33.6011L280.249 39.869C280.769 39.9775 281.226 40.2886 281.518 40.7336C281.809 41.1787 281.912 41.7214 281.803 42.2424L276.484 67.7712C276.35 68.4127 275.967 68.9748 275.419 69.3339C274.871 69.6931 274.203 69.8197 273.561 69.686L244.022 63.5311C243.755 63.4755 243.502 63.3679 243.277 63.2144C243.051 63.0609 242.859 62.8646 242.709 62.6366C242.56 62.4086 242.457 62.1535 242.406 61.8857C242.355 61.6179 242.358 61.3427 242.413 61.0759L247.813 35.16C247.921 34.6425 248.229 34.1884 248.67 33.8964C249.111 33.6045 249.649 33.4984 250.167 33.6011Z" fill="#455A64"/>
<g opacity="0.3">
<path d="M267.374 50.0494C267.49 49.4906 267.494 48.9141 267.383 48.354C267.273 47.7939 267.051 47.2617 266.732 46.7889C266.412 46.3161 266 45.9123 265.521 45.6014C265.043 45.2906 264.506 45.079 263.944 44.9792C262.86 44.8005 261.748 45.042 260.835 45.6544C259.923 46.2668 259.278 47.2041 259.032 48.2753C258.838 49.1864 258.947 50.1362 259.345 50.9789C259.742 51.8217 260.405 52.5107 261.231 52.9403L257.303 58.1339L264.473 59.7647L263.485 53.4146C264.412 53.3558 265.294 52.9948 265.996 52.3871C266.698 51.7793 267.182 50.9582 267.374 50.0494Z" fill="black"/>
</g>
<path d="M276.603 67.3896C276.554 67.3896 277.621 62.1712 278.985 55.7569C280.349 49.3427 281.5 44.1441 281.55 44.1539C281.599 44.1638 280.532 49.3773 279.168 55.8014C277.804 62.2256 276.653 67.3995 276.603 67.3896Z" fill="#263238"/>
<path d="M274.172 39.5631C274.172 39.6126 269.562 38.7577 263.898 37.6557C258.235 36.5537 253.644 35.6197 253.654 35.5703C253.664 35.5209 258.265 36.3708 263.933 37.4728C269.601 38.5748 274.182 39.494 274.172 39.5631Z" fill="white"/>
<path d="M258.423 50.5287C258.423 50.5287 258.364 50.4298 258.305 50.2322C258.22 49.9541 258.167 49.6673 258.147 49.3773C258.068 48.4089 258.284 47.4395 258.764 46.5951C259.253 45.7561 259.981 45.0817 260.855 44.658C261.117 44.5321 261.392 44.4328 261.675 44.3615C261.777 44.3296 261.884 44.3146 261.991 44.317C261.991 44.3516 261.551 44.4406 260.914 44.7766C260.085 45.2133 259.397 45.8768 258.93 46.6896C258.464 47.5025 258.239 48.4312 258.28 49.3674C258.305 50.0889 258.458 50.5188 258.423 50.5287Z" fill="white"/>
<path d="M259.659 52.8365C259.625 52.8761 259.397 52.7229 259.165 52.4956C258.933 52.2683 258.755 52.0558 258.789 52.0014C258.824 51.9471 259.051 52.12 259.284 52.3424C259.516 52.5648 259.694 52.8365 259.659 52.8365Z" fill="white"/>
<path d="M270.21 17.6223C270.21 17.6223 269.953 17.6223 269.488 17.5729C268.829 17.5317 268.168 17.5433 267.511 17.6075C265.349 17.803 263.286 18.6085 261.564 19.9304C259.841 21.2522 258.53 23.0361 257.781 25.0743C257.552 25.6883 257.372 26.3195 257.243 26.962C257.154 27.4167 257.114 27.6736 257.099 27.6736C257.092 27.6113 257.092 27.5482 257.099 27.4859C257.099 27.3623 257.099 27.1795 257.164 26.9472C257.269 26.2943 257.434 25.6524 257.658 25.0299C258.384 22.9467 259.704 21.1215 261.455 19.779C263.206 18.4365 265.311 17.6353 267.511 17.4741C268.17 17.421 268.832 17.431 269.488 17.5037C269.72 17.5037 269.898 17.563 270.022 17.5778C270.086 17.5836 270.149 17.5986 270.21 17.6223Z" fill="white"/>
<path d="M256.273 30.8659C256.261 30.4913 256.311 30.1172 256.422 29.759C256.471 29.3892 256.581 29.0302 256.748 28.6965C256.763 29.0693 256.715 29.442 256.604 29.7985C256.556 30.1705 256.444 30.5315 256.273 30.8659Z" fill="white"/>
<path d="M130.935 76.3884C131.276 76.3884 145.305 74.9059 145.305 74.9059C145.305 74.9059 146.496 69.2032 146.432 67.7207C146.368 66.2383 145.37 56.4291 145.37 56.4291L150.622 53.9583C150.622 53.9583 157.645 77.6386 156.113 79.6054C154.581 81.5722 151.7 83.3364 151.453 83.3463C151.206 83.3561 137.858 89.2762 128.573 86.1976C119.287 83.1189 130.935 76.3884 130.935 76.3884Z" fill="#FFBF9D"/>
<path d="M118.639 89.1725C120.704 91.2233 124.262 92.9281 130.202 91.4456C141.943 88.5103 150.745 86.0098 154.243 84.132C157.742 82.2542 156.378 73.8632 156.675 73.4827C157.559 72.3363 156.586 69.8753 155.325 69.4899C151.733 68.4027 145.482 68.8326 145.165 69.1588C143.322 71.0959 145.002 73.4481 145.002 73.4481L129.52 75.4792C127.617 75.3899 125.709 75.5109 123.832 75.8399" fill="#455A64"/>
<path d="M123.833 75.8399L124.204 75.7608C124.451 75.7164 124.817 75.6521 125.301 75.5928C126.702 75.4164 128.115 75.3569 129.526 75.4149L145.003 73.3394L144.929 73.5124C144.421 72.7644 144.171 71.8707 144.218 70.9674C144.26 70.5003 144.412 70.0498 144.662 69.653C144.788 69.4536 144.93 69.2651 145.087 69.0896C145.149 69.0438 145.218 69.0072 145.29 68.9809L145.468 68.9364C145.587 68.9068 145.7 68.8969 145.814 68.8722C147.731 68.6511 149.666 68.6114 151.591 68.7536C152.601 68.8152 153.606 68.9539 154.595 69.1687C154.842 69.223 155.089 69.2972 155.346 69.3614C155.61 69.4454 155.851 69.5873 156.053 69.7765C156.446 70.1498 156.745 70.6102 156.928 71.1206C157.124 71.6318 157.193 72.1828 157.13 72.7267C157.085 73.0097 156.979 73.2795 156.819 73.5173C156.774 73.5667 156.779 73.7002 156.774 73.8286V74.224C156.809 75.2864 156.858 76.3687 156.829 77.4558C156.837 78.9991 156.584 80.5328 156.083 81.9923C155.825 82.7234 155.382 83.3755 154.798 83.8849C154.495 84.1215 154.163 84.3175 153.809 84.468C153.483 84.641 153.137 84.7744 152.821 84.9325C151.467 85.5107 150.108 85.9851 148.769 86.415C147.43 86.845 146.115 87.2601 144.816 87.6406C139.647 89.1231 134.932 90.3239 131.009 91.3073C130.071 91.5551 129.121 91.7514 128.162 91.8953C127.303 92.0151 126.435 92.0614 125.568 92.0337C124.175 92.0039 122.801 91.7052 121.521 91.1541C120.718 90.7999 119.969 90.3341 119.297 89.7704C119.06 89.579 118.839 89.3691 118.635 89.1428C118.635 89.1428 118.862 89.3603 119.332 89.7309C120.013 90.2741 120.764 90.7229 121.565 91.0651C122.837 91.5901 124.197 91.8701 125.573 91.8904C126.431 91.911 127.289 91.8581 128.138 91.7323C129.09 91.582 130.033 91.3807 130.964 91.1294C134.918 90.141 139.592 88.9254 144.746 87.4132C146.036 87.0327 147.351 86.6275 148.7 86.1828C150.049 85.738 151.388 85.2686 152.727 84.7003C153.053 84.5471 153.394 84.4137 153.716 84.2407C154.045 84.0955 154.356 83.9095 154.64 83.6872C155.191 83.2079 155.609 82.5931 155.85 81.9033C156.337 80.463 156.579 78.9514 156.567 77.4311C156.597 76.3489 156.567 75.2766 156.513 74.2092V73.8039C156.513 73.7348 156.513 73.6656 156.513 73.5914C156.509 73.552 156.509 73.5123 156.513 73.4728C156.524 73.4423 156.537 73.4126 156.552 73.3839L156.577 73.3444C156.716 73.1418 156.807 72.9103 156.844 72.6674C156.902 72.1649 156.835 71.6558 156.651 71.1849C156.485 70.7129 156.211 70.2864 155.85 69.9396C155.675 69.7754 155.466 69.6522 155.238 69.5788C154.99 69.5146 154.743 69.4454 154.501 69.3861C153.525 69.1744 152.534 69.0373 151.536 68.9759C149.631 68.8303 147.717 68.8667 145.819 69.0847C145.705 69.0847 145.591 69.1143 145.483 69.144L145.325 69.1786C145.29 69.192 145.257 69.2086 145.226 69.228C145.077 69.3902 144.943 69.5655 144.826 69.7518C144.59 70.1154 144.448 70.5311 144.41 70.9625C144.368 71.8118 144.6 72.6523 145.073 73.3592L145.171 73.5124H144.998L129.511 75.489C128.109 75.4178 126.702 75.4575 125.306 75.6076C124.812 75.6571 124.451 75.7114 124.204 75.746C123.957 75.7806 123.833 75.8399 123.833 75.8399Z" fill="#263238"/>
<path d="M81.9136 91.9339L75.6074 80.6038L194.884 14.215C196.259 13.4502 197.88 13.2625 199.393 13.6934C200.905 14.1243 202.185 15.1383 202.95 16.5125L203.491 17.4841C204.255 18.8583 204.443 20.48 204.012 21.9926C203.581 23.5052 202.567 24.7846 201.193 25.5495L81.916 91.9382L81.9136 91.9339Z" fill="url(#paint1_linear_1_6003)"/>
<path d="M181.934 32.0135L167.329 5.7738C167.258 5.64678 167.213 5.50709 167.196 5.36269C167.18 5.21829 167.192 5.07201 167.231 4.9322C167.271 4.7924 167.338 4.66181 167.428 4.54789C167.519 4.43397 167.631 4.33895 167.758 4.26826L174.459 0.538339C174.586 0.467643 174.726 0.422654 174.87 0.405946C175.014 0.389237 175.161 0.401133 175.301 0.440956C175.44 0.480781 175.571 0.547755 175.685 0.638047C175.799 0.728341 175.894 0.840184 175.964 0.967199L190.569 27.2069L181.934 32.0135Z" fill="url(#paint2_linear_1_6003)"/>
<path d="M153.202 19.7949L163.846 38.9187C164.276 39.6914 165.251 39.9691 166.024 39.5391L171.862 36.2898C172.634 35.8598 172.912 34.8848 172.482 34.1121L161.838 14.9883C161.408 14.2156 160.433 13.9379 159.66 14.3679L153.822 17.6172C153.05 18.0473 152.772 19.0222 153.202 19.7949Z" fill="url(#paint3_linear_1_6003)"/>
<path d="M162.6 18.6781L169.189 30.5177L182.601 23.0531L176.011 11.2134L162.6 18.6781Z" fill="url(#paint4_linear_1_6003)"/>
<path d="M193.139 15.2108C193.173 15.2701 169.765 28.3655 140.866 44.4555C111.967 60.5455 88.4844 73.5421 88.4844 73.4778C88.4844 73.4136 111.853 60.3231 140.762 44.2282C169.671 28.1332 193.104 15.1466 193.139 15.2108Z" fill="#263238"/>
<path d="M33.6074 113.821C42.4035 129.635 60.9495 136.059 75.0333 128.226C89.117 120.394 93.4162 101.22 84.6201 85.4267C75.8239 69.6332 57.2828 63.1893 43.1942 71.0218C29.1055 78.8543 24.8162 98.0279 33.6074 113.821ZM76.9902 89.6765C83.1524 100.746 80.1429 114.172 70.2695 119.662C60.3961 125.153 47.4045 120.651 41.2422 109.572C35.08 98.4924 38.0895 85.0758 47.958 79.5807C57.8264 74.0856 70.8279 78.6072 76.9902 89.6765Z" fill="url(#paint5_linear_1_6003)"/>
<path d="M95.6866 69.2917L102.195 80.9845C103.06 82.5394 105.022 83.0983 106.577 82.2329L107.104 81.9396C108.659 81.0742 109.217 79.1123 108.352 77.5574L101.844 65.8646C100.979 64.3098 99.0165 63.7509 97.4617 64.6163L96.9349 64.9095C95.3801 65.7749 94.8212 67.7369 95.6866 69.2917Z" fill="url(#paint6_linear_1_6003)"/>
<path d="M108.185 62.3345L114.693 74.0273C115.558 75.5821 117.52 76.141 119.075 75.2756L119.602 74.9824C121.157 74.117 121.716 72.155 120.85 70.6002L114.342 58.9074C113.477 57.3525 111.515 56.7936 109.96 57.659L109.433 57.9522C107.878 58.8177 107.319 60.7796 108.185 62.3345Z" fill="url(#paint7_linear_1_6003)"/>
<path d="M101.703 65.6849C101.768 65.6503 103.275 68.304 105.078 71.6149C106.882 74.9258 108.291 77.6239 108.226 77.6585C108.162 77.6931 106.655 75.0444 104.851 71.7285C103.047 68.4127 101.639 65.6849 101.703 65.6849Z" fill="#263238"/>
<path d="M95.9667 69.7618C96.0309 69.7272 97.5035 72.2623 99.2627 75.4151C101.022 78.5678 102.391 81.1622 102.331 81.1968C102.272 81.2314 100.795 78.6963 99.0552 75.5683C97.3157 72.4402 95.9074 69.7964 95.9667 69.7618Z" fill="#263238"/>
<path d="M114.281 58.8011C114.345 58.7665 115.882 61.4054 117.716 64.6965C119.549 67.9876 120.982 70.6907 120.918 70.7253C120.853 70.7599 119.322 68.1161 117.488 64.825C115.655 61.5338 114.222 58.8357 114.281 58.8011Z" fill="#263238"/>
<path d="M108.246 62.4432C108.306 62.4086 109.813 65.0326 111.602 68.304C113.391 71.5754 114.799 74.234 114.735 74.2883C114.67 74.3427 113.173 71.6989 111.379 68.4275C109.585 65.1562 108.182 62.4778 108.246 62.4432Z" fill="#263238"/>
<path d="M144.088 44.6186C144.664 44.6863 145.244 44.5375 145.715 44.2011C146.187 43.8647 146.517 43.3647 146.64 42.7986C146.763 42.2325 146.672 41.6408 146.383 41.1387C146.094 40.6365 145.628 40.2599 145.077 40.0822C145.433 39.7172 145.666 39.2493 145.742 38.7449C145.817 38.2404 145.733 37.7248 145.499 37.2712C145.266 36.8176 144.896 36.4488 144.441 36.2172C143.987 35.9856 143.471 35.9028 142.967 35.9806C142.946 35.4788 142.796 34.991 142.531 34.5645C142.265 34.138 141.895 33.7873 141.454 33.5465C141.013 33.3058 140.518 33.1831 140.015 33.1906C139.513 33.198 139.022 33.3352 138.588 33.5888C138.023 33.1268 137.32 32.867 136.59 32.8509C135.86 32.8348 135.146 33.0632 134.561 33.4999C134.069 33.406 133.561 33.4731 133.11 33.6911C132.66 33.9092 132.292 34.2665 132.06 34.7103C131.829 35.154 131.747 35.6604 131.826 36.1545C131.905 36.6486 132.142 37.104 132.5 37.4532" fill="#263238"/>
<path d="M134.062 35.8026H134.557C137.048 35.8047 139.448 36.745 141.277 38.4364C143.107 40.1277 144.233 42.4461 144.43 44.9298C144.801 49.7183 145.147 55.0108 145.107 57.5805C145.013 62.9175 139.706 63.7081 139.706 63.7081L140.136 70.1026L127.223 69.6826L126.151 46.5062C125.696 40.9765 128.528 36.109 134.062 35.8026Z" fill="#FFBF9D"/>
<path d="M139.75 63.7081C137.28 63.7014 134.863 62.9862 132.787 61.6475C132.787 61.6475 134.497 65.6749 139.804 65.2104L139.75 63.7081Z" fill="#FF9A6C"/>
<path d="M141.509 49.9456C141.511 50.1436 141.434 50.3343 141.297 50.4766C141.159 50.6189 140.971 50.7015 140.773 50.7067C140.676 50.7134 140.58 50.7009 140.488 50.6699C140.396 50.6389 140.312 50.59 140.239 50.5262C140.167 50.4623 140.107 50.3846 140.065 50.2977C140.023 50.2108 139.998 50.1163 139.992 50.0198C139.992 49.8217 140.069 49.6312 140.206 49.4884C140.343 49.3456 140.531 49.2615 140.728 49.2538C140.825 49.2471 140.923 49.2598 141.015 49.2911C141.106 49.3224 141.191 49.3716 141.264 49.436C141.337 49.5004 141.396 49.5787 141.438 49.6662C141.48 49.7537 141.504 49.8487 141.509 49.9456Z" fill="#263238"/>
<path d="M143.278 47.544C143.184 47.6428 142.606 47.2179 141.795 47.2179C140.985 47.2179 140.377 47.6231 140.288 47.5242C140.199 47.4254 140.342 47.3019 140.604 47.1092C140.959 46.8656 141.38 46.7378 141.81 46.7435C142.235 46.7417 142.649 46.8768 142.991 47.1289C143.238 47.3216 143.322 47.5045 143.278 47.544Z" fill="#263238"/>
<path d="M134.141 49.5899C134.145 49.7909 134.069 49.9854 133.931 50.1307C133.792 50.2761 133.601 50.3606 133.4 50.3658C133.303 50.3725 133.207 50.36 133.115 50.329C133.023 50.298 132.939 50.2492 132.866 50.1853C132.794 50.1214 132.734 50.0438 132.692 49.9568C132.65 49.8699 132.625 49.7754 132.619 49.6789C132.618 49.4804 132.694 49.2892 132.832 49.1462C132.969 49.0031 133.157 48.9194 133.355 48.9129C133.452 48.9055 133.548 48.9172 133.64 48.9472C133.731 48.9773 133.816 49.0252 133.889 49.0881C133.962 49.151 134.022 49.2277 134.065 49.3138C134.108 49.4 134.134 49.4938 134.141 49.5899Z" fill="#263238"/>
<path d="M135.243 47.6726C135.149 47.7714 134.571 47.3464 133.76 47.3464C132.95 47.3464 132.342 47.7516 132.253 47.6528C132.164 47.554 132.307 47.4304 132.569 47.2377C132.924 46.9941 133.345 46.8663 133.775 46.872C134.2 46.8702 134.614 47.0054 134.956 47.2575C135.203 47.4502 135.287 47.6281 135.243 47.6726Z" fill="#263238"/>
<path d="M138.189 53.7459C138.62 53.6103 139.067 53.5306 139.519 53.5087C139.726 53.5087 139.924 53.4494 139.963 53.3061C139.981 53.0909 139.932 52.8755 139.825 52.6884L139.212 51.0971C138.362 48.8289 137.73 46.9659 137.838 46.9363C137.947 46.9066 138.693 48.7103 139.543 50.9736C139.746 51.532 139.943 52.0657 140.131 52.5747C140.259 52.828 140.296 53.1178 140.235 53.395C140.204 53.4682 140.157 53.5334 140.097 53.5856C140.037 53.6378 139.966 53.6758 139.889 53.6965C139.775 53.7303 139.657 53.7469 139.538 53.7459C139.09 53.8019 138.637 53.8019 138.189 53.7459Z" fill="#263238"/>
<path d="M135.96 44.5296C135.851 44.7372 135.154 44.5296 134.289 44.4802C133.424 44.4308 132.703 44.5939 132.624 44.3764C132.589 44.2727 132.743 44.0898 133.054 43.9218C133.455 43.7234 133.901 43.6315 134.349 43.6549C134.792 43.6707 135.223 43.8037 135.599 44.0404C135.881 44.2331 136.009 44.4357 135.96 44.5296Z" fill="#263238"/>
<path d="M143.328 44.1787C143.155 44.3616 142.478 44.1787 141.668 44.1787C140.857 44.1787 140.185 44.3023 140.012 44.1046C139.943 44.0107 140.052 43.8229 140.353 43.65C140.768 43.4323 141.234 43.3283 141.702 43.3485C142.168 43.3548 142.624 43.4862 143.022 43.7291C143.308 43.8971 143.402 44.0849 143.328 44.1787Z" fill="#263238"/>
<path d="M143.925 42.5085C143.925 42.5085 142.532 39.1729 140.926 38.3921C138.983 37.4433 138.143 39.5732 136.29 39.0494C134.437 38.5255 132.584 37.6212 130.686 39.0494C128.611 40.6109 129.58 41.7129 129.441 44.075C128.898 53.642 127.138 56.3402 126.659 51.8334C126.605 51.3392 125.236 50.9439 125.038 48.8684C124.781 46.1653 124.687 42.8791 125.3 40.9618C125.794 39.3459 126.738 38.229 128.394 37.0085C131.013 35.0713 134.6 35.0318 137.036 35.2937C139.473 35.5556 144.157 38.3378 143.925 42.5085Z" fill="#263238"/>
<path d="M126.995 51.6851C126.99 51.4899 126.945 51.2978 126.863 51.1205C126.781 50.9432 126.664 50.7843 126.519 50.6536C126.374 50.5228 126.204 50.4229 126.019 50.3598C125.834 50.2967 125.638 50.2718 125.444 50.2866C124.455 50.3805 123.343 50.9389 123.403 52.9897C123.506 56.6268 127.139 55.7719 127.143 55.6631C127.148 55.5544 127.055 53.2071 126.995 51.6851Z" fill="#FFBF9D"/>
<path d="M126.309 54.319C126.309 54.319 126.249 54.3685 126.14 54.4179C125.993 54.4856 125.825 54.4945 125.671 54.4426C125.431 54.3006 125.233 54.0969 125.099 53.8527C124.964 53.6086 124.897 53.3327 124.905 53.054C124.886 52.7436 124.937 52.433 125.053 52.1447C125.085 52.0308 125.143 51.9262 125.224 51.8401C125.305 51.754 125.406 51.6889 125.518 51.6506C125.59 51.6285 125.668 51.6328 125.738 51.6626C125.807 51.6924 125.864 51.7459 125.898 51.8136C125.948 51.9125 125.928 51.9866 125.948 51.9915C125.968 51.9965 126.022 51.9273 125.987 51.779C125.968 51.6889 125.915 51.6094 125.839 51.5567C125.789 51.52 125.732 51.4936 125.672 51.4792C125.612 51.4648 125.549 51.4625 125.488 51.4727C125.339 51.5062 125.202 51.5774 125.088 51.6795C124.975 51.7816 124.89 51.9112 124.841 52.0558C124.694 52.3741 124.628 52.7237 124.648 53.0737C124.693 53.8051 125.088 54.4821 125.636 54.6205C125.734 54.6463 125.837 54.6494 125.936 54.6298C126.035 54.6101 126.129 54.568 126.21 54.5068C126.309 54.408 126.323 54.319 126.309 54.319Z" fill="#FF9A6C"/>
<path d="M127.09 44.6384C127.534 45.001 128.063 45.2473 128.626 45.3549C128.91 45.3993 129.199 45.3396 129.442 45.187C129.684 45.0344 129.863 44.7991 129.946 44.5247C129.99 44.2727 129.946 43.9762 130.094 43.7835C130.242 43.5907 130.662 43.6253 130.964 43.6599C132.021 43.7736 133.262 42.6073 133.533 41.5795C133.671 41.7766 133.878 41.9139 134.113 41.9635C134.348 42.0131 134.593 41.9712 134.799 41.8463C135.135 41.6409 135.432 41.3784 135.678 41.0705C135.821 40.8744 136.01 40.7159 136.228 40.6083C136.445 40.5008 136.686 40.4474 136.928 40.4528C137.184 40.5412 137.45 40.5992 137.719 40.6257C138.213 40.5862 138.431 40.0278 138.505 39.5534C138.579 39.079 138.638 38.5305 139.043 38.2735C139.459 38.1106 139.919 38.0983 140.343 38.2389C140.783 38.3081 141.331 38.2043 141.465 37.7744C141.483 37.6595 141.478 37.5422 141.45 37.4293C141.422 37.3164 141.371 37.2102 141.302 37.1172C141.008 36.6764 140.574 36.3478 140.07 36.1845C139.565 36.0213 139.021 36.033 138.525 36.2178C138.35 35.6096 137.998 35.0673 137.514 34.6598C137.029 34.2524 136.435 33.9983 135.806 33.9299C135.177 33.8615 134.541 33.982 133.981 34.2759C133.42 34.5698 132.96 35.0239 132.659 35.5803C132.274 35.2278 131.81 34.9736 131.305 34.8394C130.801 34.7052 130.271 34.6949 129.762 34.8095C129.253 34.924 128.779 35.16 128.381 35.4973C127.983 35.8346 127.672 36.2632 127.475 36.7465C127.03 36.6279 126.56 36.6427 126.124 36.7891C125.687 36.9355 125.303 37.207 125.02 37.5699C124.737 37.9328 124.566 38.371 124.53 38.83C124.494 39.289 124.593 39.7485 124.816 40.1513C124.478 40.3186 124.187 40.5691 123.972 40.8794C123.757 41.1897 123.624 41.5497 123.586 41.9254C123.586 42.6765 124.302 43.4079 125.029 43.23C124.878 43.526 124.847 43.8684 124.941 44.187C125.034 44.5055 125.247 44.7761 125.534 44.943C125.821 45.11 126.161 45.1607 126.484 45.0847C126.808 45.0088 127.09 44.8119 127.272 44.5346" fill="#263238"/>
<path d="M138.79 37.2852C138.79 37.2852 138.79 37.2852 138.79 37.3543C138.79 37.4235 138.79 37.4631 138.766 37.5471C138.715 37.7937 138.625 38.0306 138.499 38.2488C138.298 38.5907 138.023 38.883 137.693 39.1037C137.258 39.4007 136.737 39.5481 136.211 39.5237L136.27 39.4447C136.377 39.771 136.35 40.1263 136.196 40.433C136.033 40.7581 135.823 41.0578 135.573 41.3225C135.452 41.4768 135.315 41.6177 135.163 41.7425C134.894 41.9194 134.571 41.9951 134.252 41.9562C133.933 41.9173 133.637 41.7663 133.419 41.53L133.552 41.4905C133.501 41.8681 133.371 42.2308 133.171 42.5551C132.971 42.8795 132.705 43.1582 132.391 43.3733C132.045 43.6302 131.626 43.7672 131.195 43.7637C130.791 43.7416 130.394 43.6531 130.019 43.5018L130.118 43.4573C129.927 43.8973 129.63 44.2829 129.253 44.579C129.081 44.7265 128.878 44.8336 128.659 44.8926C128.44 44.9516 128.211 44.961 127.988 44.92C127.606 44.8369 127.256 44.6438 126.982 44.3646C126.708 44.0854 126.522 43.7323 126.446 43.3486L126.53 43.3881C126.146 43.5872 125.705 43.65 125.28 43.566C124.963 43.5056 124.666 43.3719 124.41 43.1756C124.251 43.0509 124.114 42.9006 124.005 42.7309C123.965 42.6719 123.935 42.6068 123.916 42.5381C124.054 42.7654 124.233 42.9648 124.445 43.1262C124.697 43.3083 124.988 43.4285 125.295 43.477C125.698 43.5534 126.116 43.4871 126.476 43.2893L126.545 43.2497V43.3288C126.62 43.6859 126.797 44.0135 127.055 44.2715C127.313 44.5296 127.641 44.7068 127.998 44.7816C128.202 44.8172 128.411 44.8068 128.61 44.7513C128.809 44.6957 128.993 44.5963 129.149 44.4604C129.503 44.179 129.782 43.8138 129.96 43.398L129.989 43.3337H130.058C130.416 43.4776 130.795 43.5611 131.18 43.5808C131.579 43.584 131.967 43.4574 132.287 43.2201C132.583 43.0168 132.834 42.7541 133.023 42.4486C133.212 42.1432 133.335 41.8017 133.384 41.446V41.2731L133.498 41.4065C133.626 41.5485 133.788 41.6569 133.968 41.7223C134.148 41.7878 134.341 41.8083 134.531 41.7821C134.708 41.7585 134.877 41.6942 135.025 41.5943C135.168 41.4793 135.297 41.3483 135.41 41.2039C135.655 40.9518 135.861 40.6654 136.023 40.3539C136.096 40.2152 136.14 40.0633 136.154 39.9072C136.168 39.7511 136.15 39.5939 136.102 39.4447L136.072 39.3557H136.166C136.671 39.387 137.172 39.2535 137.595 38.9752C137.919 38.7664 138.192 38.4878 138.395 38.1598C138.577 37.8939 138.711 37.5978 138.79 37.2852Z" fill="#455A64"/>
<path d="M138.179 56.4588C138.149 56.3254 137.265 56.5428 136.444 55.9399C135.624 55.337 135.491 54.3685 135.367 54.3932C135.244 54.4179 135.243 54.6501 135.332 55.0504C135.454 55.5727 135.757 56.0349 136.187 56.355C136.598 56.6612 137.112 56.7959 137.62 56.7306C138.001 56.6713 138.199 56.5181 138.179 56.4588Z" fill="#263238"/>
<path d="M165.585 194.721L169.094 206.675C169.094 206.675 182.436 207.12 183.291 209.269L160.332 216.899L154.096 198.492L165.585 194.721Z" fill="#455A64"/>
<path d="M161.671 208.044C161.473 208.185 161.334 208.394 161.28 208.631C161.227 208.868 161.262 209.116 161.38 209.329C161.513 209.532 161.719 209.677 161.955 209.733C162.191 209.789 162.44 209.752 162.65 209.63C162.86 209.48 163.007 209.258 163.063 209.006C163.118 208.754 163.079 208.491 162.951 208.266C162.79 208.068 162.559 207.94 162.306 207.909C162.052 207.878 161.797 207.945 161.592 208.098" fill="#E0E0E0"/>
<path d="M181.997 208.405C181.997 208.405 183.168 208.508 183.292 209.269L160.333 216.899L159.779 215.017L181.977 208.395" fill="#263238"/>
<path d="M169.424 206.433C169.459 206.547 168.93 206.784 168.485 207.327C168.041 207.871 167.917 208.439 167.798 208.429C167.68 208.42 167.635 207.718 168.169 207.07C168.703 206.423 169.414 206.324 169.424 206.433Z" fill="white"/>
<path d="M172.162 206.626C172.226 206.73 171.806 207.08 171.579 207.678C171.352 208.276 171.416 208.82 171.302 208.85C171.189 208.879 170.907 208.271 171.198 207.53C171.49 206.789 172.127 206.522 172.162 206.626Z" fill="white"/>
<path d="M174.489 209.052C174.395 209.111 174.054 208.602 174.138 207.896C174.222 207.189 174.662 206.764 174.741 206.843C174.82 206.922 174.603 207.337 174.543 207.94C174.484 208.543 174.598 208.993 174.489 209.052Z" fill="white"/>
<path d="M168.323 203.799C168.323 203.918 167.745 203.933 167.127 204.185C166.509 204.437 166.079 204.802 165.99 204.728C165.901 204.654 166.242 204.096 166.979 203.804C167.715 203.512 168.353 203.69 168.323 203.799Z" fill="white"/>
<path d="M112.047 194.825L107.051 206.24C107.051 206.24 116.978 215.135 116.262 217.349L93.7773 208.454L100.829 190.348L112.047 194.825Z" fill="#455A64"/>
<path d="M100.484 202.519C100.242 202.5 100.001 202.571 99.8081 202.717C99.6149 202.864 99.4824 203.077 99.4359 203.315C99.4083 203.556 99.4736 203.799 99.6187 203.993C99.7638 204.188 99.9776 204.32 100.217 204.362C100.473 204.381 100.728 204.305 100.932 204.149C101.136 203.992 101.276 203.765 101.324 203.512C101.324 203.018 100.874 202.455 100.39 202.524" fill="#E0E0E0"/>
<path d="M115.822 215.857C115.822 215.857 116.652 216.692 116.262 217.339L93.7773 208.444L94.5631 206.65L115.812 215.842" fill="#263238"/>
<path d="M107.457 206.27C107.412 206.379 106.844 206.211 106.162 206.349C105.48 206.487 105.011 206.843 104.927 206.754C104.843 206.665 105.258 206.102 106.083 205.949C106.908 205.796 107.526 206.176 107.457 206.27Z" fill="white"/>
<path d="M109.434 208.177C109.434 208.291 108.87 208.291 108.312 208.607C107.754 208.924 107.457 209.373 107.324 209.329C107.19 209.284 107.393 208.632 108.09 208.251C108.786 207.871 109.473 208.074 109.434 208.177Z" fill="white"/>
<path d="M109.66 211.528C109.551 211.528 109.615 210.905 110.154 210.416C110.692 209.927 111.281 209.887 111.29 209.996C111.3 210.105 110.856 210.302 110.436 210.712C110.015 211.123 109.773 211.562 109.66 211.528Z" fill="white"/>
<path d="M108.312 203.557C108.228 203.636 107.783 203.29 107.146 203.063C106.508 202.836 105.95 202.865 105.93 202.752C105.91 202.638 106.528 202.425 107.274 202.672C108.02 202.92 108.401 203.478 108.312 203.557Z" fill="white"/>
<path d="M120.463 132.115L112.586 164.068C112.586 164.068 98.3792 187.986 95.9727 199.954L108.969 205.064C108.969 205.064 118.423 182.011 121.195 177.781C122.442 175.886 123.876 174.119 125.474 172.509C126.514 171.478 127.259 170.188 127.634 168.773L133.598 145.977L120.463 132.115Z" fill="#263238"/>
<path d="M117.107 127.006C117.107 127.006 118.204 135.565 126.442 139.36L143.797 167.626C143.797 167.626 145.156 176.818 147.751 184.561C150.345 192.305 155.588 207.229 155.588 207.229L169.864 201.892L160.767 170.789L159.284 160.001L145.122 123.927L132.955 116.633L117.107 127.006Z" fill="#263238"/>
<path d="M117.107 127.006L117.369 126.828L118.155 126.304L121.239 124.268L132.931 116.584L132.97 116.559L133.01 116.584L145.186 123.863V123.892L159.378 159.932V159.957C159.848 163.366 160.367 167.018 160.861 170.744C163.332 179.145 165.951 188.134 168.659 197.395C169.097 198.887 169.532 200.369 169.963 201.842L169.998 201.956L169.884 201.995L155.608 207.332L155.484 207.377L155.445 207.253C152.974 200.083 150.582 193.179 148.324 186.632C147.756 184.996 147.197 183.375 146.733 181.754C146.268 180.133 145.848 178.522 145.468 176.931C144.716 173.749 144.114 170.641 143.639 167.626V167.666L126.383 139.39L126.413 139.414C124.325 138.438 122.472 137.026 120.977 135.273C119.881 133.986 118.982 132.544 118.308 130.994C117.892 130.037 117.561 129.044 117.32 128.029C117.236 127.693 117.186 127.431 117.157 127.253C117.127 127.075 117.122 126.986 117.122 126.986C117.122 126.986 117.122 127.075 117.177 127.248C117.231 127.421 117.261 127.683 117.355 128.024C117.61 129.026 117.95 130.005 118.372 130.949C119.054 132.484 119.957 133.91 121.051 135.184C122.551 136.919 124.405 138.314 126.487 139.276L143.876 167.522V167.547C144.371 170.552 144.964 173.655 145.715 176.832C146.095 178.419 146.51 180.025 146.98 181.641C147.449 183.257 148.003 184.868 148.571 186.503C150.839 193.051 153.226 199.954 155.707 207.12L155.544 207.046L169.82 201.709L169.741 201.862C169.313 200.389 168.878 198.907 168.436 197.414L160.648 170.759C160.154 167.033 159.63 163.381 159.166 159.971V160.001L145.028 123.927L145.067 123.972L132.911 116.663H132.985L121.293 124.313L118.18 126.319L117.379 126.838L117.107 127.006Z" fill="#455A64"/>
<path d="M124.752 65.9417C124.752 65.9417 120.591 69.1439 118.57 72.7217C116.148 77.0061 115.886 83.3561 115.812 93.2196C115.738 102.342 117.102 104.877 116.578 108.316C115.545 115.032 114.779 137.571 114.779 137.571C114.779 137.571 128.122 132.446 130.711 130.158L133.315 127.895L150.013 133.415L146.643 112.897L144.33 87.3242L141.365 73.7594L140.871 68.4373L126.531 62.6753L124.752 65.9417Z" fill="#455A64"/>
<path d="M140.333 68.1557C140.506 68.1903 139.923 69.3615 138.895 71.0812L138.85 71.1504L138.771 71.1207C137.323 70.5574 135.406 69.8507 133.311 69.0847C130.949 68.2249 128.814 67.4243 127.287 66.8017C126.521 66.4904 125.908 66.2285 125.488 66.0357C125.265 65.9495 125.05 65.8436 124.846 65.7195C125.08 65.7718 125.309 65.8479 125.528 65.9468L127.351 66.6337L133.4 68.8426C135.495 69.6086 137.407 70.3251 138.836 70.9379L138.717 70.9774C139.794 69.2923 140.432 68.1804 140.333 68.1557Z" fill="#263238"/>
<path d="M157.589 57.5015C157.589 57.5015 156.531 55.8559 155.533 54.3388C154.535 52.8217 153.023 52.0756 152.781 51.2849C152.538 50.4942 151.209 46.9708 150.997 46.0962C150.812 45.2491 150.726 44.3835 150.74 43.5166C150.74 43.5166 151.832 43.0521 152.356 44.6137C152.672 45.5526 153.68 48.7399 153.897 48.8981C154.115 49.0562 154.392 48.8239 154.392 48.8239C153.943 47.6305 153.555 46.4149 153.23 45.182C153.181 44.6038 153.384 40.7691 153.384 40.7691C153.654 40.7144 153.936 40.7587 154.177 40.8937C154.418 41.0288 154.603 41.2458 154.698 41.5054C155.217 42.4937 155.237 44.9645 155.237 44.9645L156.022 47.722L155.746 44.9942L156.141 39.9784C156.525 40.0331 156.883 40.2048 157.166 40.4701C157.449 40.7353 157.643 41.0813 157.722 41.4609C158.053 42.8149 157.614 44.7026 157.836 45.1029C158.058 45.5032 158.3 47.9246 158.3 47.9246C158.3 47.9246 158.572 42.044 159.2 41.876C159.827 41.708 160.341 42.3306 160.252 43.5166C160.163 44.7026 160.139 47.213 160.465 48.3199C160.791 49.4268 164.137 53.7557 163.865 55.6533C163.698 56.7998 163.594 57.9546 163.553 59.1125H157.821L157.589 57.5015Z" fill="#FFBF9D"/>
<path d="M137.482 72.3117C137.803 72.4352 151.496 75.8252 151.496 75.8252C151.496 75.8252 154.555 70.8835 155.005 69.4504C155.454 68.0174 157.861 58.4701 157.861 58.4701L163.648 57.9265C163.648 57.9265 162.165 82.5804 160.07 83.9097C157.975 85.239 154.634 85.9111 154.417 85.837C154.199 85.7628 139.616 86.7759 131.932 80.7223C124.248 74.6688 137.482 72.3117 137.482 72.3117Z" fill="#FFBF9D"/>
<g opacity="0.3">
<path d="M127.668 85.3626C129.137 87.0261 131.098 88.1787 133.266 88.6537C136.899 89.4543 144.632 90.8725 144.632 90.8725L144.257 87.0773L127.455 85.2786" fill="black"/>
</g>
<path d="M121.57 80.1443C122.816 82.7732 125.583 85.5801 131.666 86.2176C143.709 87.4629 152.826 88.125 156.765 87.532C160.703 86.939 162.27 78.6025 162.695 78.3455C163.92 77.5746 163.841 74.9259 162.784 74.1352C159.779 71.8868 153.755 70.1819 153.35 70.3647C150.953 71.5557 151.734 74.3428 151.734 74.3428L136.464 70.9726C134.706 70.241 132.871 69.7073 130.994 69.3813" fill="#455A64"/>
<path d="M130.993 69.3812C130.993 69.3812 131.121 69.3812 131.368 69.4307C131.615 69.4801 131.986 69.5394 132.46 69.6431C133.837 69.9555 135.186 70.382 136.493 70.9181L151.753 74.2389L151.624 74.3772C151.398 73.5015 151.468 72.5756 151.822 71.7433C152.017 71.3172 152.312 70.9443 152.682 70.6562C152.869 70.5101 153.069 70.3811 153.28 70.2707C153.352 70.2492 153.427 70.2376 153.502 70.2362H153.685C153.808 70.2362 153.917 70.2757 154.036 70.2954C155.913 70.7395 157.745 71.36 159.506 72.1486C160.434 72.5528 161.331 73.0252 162.189 73.5619C162.402 73.7002 162.614 73.8534 162.827 74.0017C163.046 74.1687 163.226 74.3832 163.351 74.6293C163.592 75.1145 163.717 75.649 163.716 76.1908C163.729 76.7391 163.607 77.2821 163.36 77.7722C163.224 78.025 163.031 78.243 162.797 78.4096C162.738 78.4393 162.698 78.5678 162.649 78.6864L162.52 79.057C162.194 80.0453 161.868 81.1028 161.473 82.1208C160.955 83.5806 160.197 84.9436 159.229 86.1532C158.879 86.6129 158.431 86.9901 157.919 87.2582C157.407 87.5263 156.842 87.6788 156.264 87.7049C155.894 87.7592 155.523 87.7691 155.157 87.7988C153.675 87.8877 152.252 87.868 150.843 87.8284C149.435 87.7889 148.056 87.7148 146.717 87.6308C141.345 87.2848 136.527 86.7956 132.485 86.3756C131.519 86.291 130.559 86.1524 129.609 85.9605C128.766 85.7801 127.939 85.5288 127.138 85.2093C125.84 84.7052 124.651 83.957 123.635 83.0054C123 82.3981 122.454 81.7044 122.014 80.9447C121.856 80.684 121.719 80.4114 121.604 80.1293C121.604 80.1293 121.742 80.411 122.058 80.92C122.515 81.6606 123.068 82.337 123.704 82.9312C124.719 83.8623 125.903 84.5903 127.193 85.0759C127.995 85.3854 128.821 85.6284 129.663 85.8024C130.611 85.984 131.568 86.1143 132.53 86.1927C136.572 86.593 141.39 87.0625 146.752 87.3985C148.096 87.4776 149.469 87.5468 150.873 87.5813C152.276 87.6159 153.714 87.6357 155.167 87.5517C155.528 87.5171 155.899 87.5072 156.259 87.4529C156.619 87.4339 156.975 87.3657 157.317 87.2503C158 86.987 158.602 86.5511 159.066 85.9852C160.013 84.7989 160.754 83.4627 161.26 82.0319C161.656 81.0435 161.977 80.0009 162.303 78.9829L162.441 78.5974C162.441 78.5381 162.491 78.4739 162.52 78.4047C162.538 78.3666 162.56 78.3302 162.585 78.296C162.604 78.2722 162.625 78.2506 162.649 78.2317L162.683 78.2021C162.889 78.0601 163.058 77.8723 163.178 77.6536C163.409 77.1944 163.521 76.6847 163.504 76.1711C163.505 75.6711 163.392 75.1775 163.173 74.7281C163.065 74.5159 162.911 74.3303 162.723 74.1845C162.511 74.0412 162.308 73.888 162.095 73.7546C161.249 73.2219 160.364 72.7543 159.447 72.3561C157.705 71.571 155.893 70.9522 154.036 70.5079C153.922 70.5079 153.808 70.4585 153.7 70.4486H153.536H153.428C153.233 70.5526 153.048 70.6733 152.874 70.8094C152.53 71.069 152.254 71.4081 152.069 71.7977C151.741 72.5794 151.674 73.4456 151.876 74.2685L151.921 74.4415L151.748 74.402L136.512 70.9922C135.218 70.4476 133.883 70.0048 132.52 69.6679C132.025 69.5542 131.684 69.4751 131.437 69.4257C131.19 69.3763 130.993 69.3812 130.993 69.3812Z" fill="#263238"/>
<path d="M156.764 79.1112C156.412 79.0242 156.078 78.8789 155.775 78.6813C155.017 78.2586 154.32 77.7368 153.7 77.1296C153.077 76.5248 152.532 75.8441 152.079 75.1036C151.873 74.8001 151.714 74.4668 151.609 74.1152C152.287 75.1134 153.045 76.0539 153.878 76.927C154.772 77.7399 155.738 78.4709 156.764 79.1112Z" fill="#263238"/>
<defs>
<linearGradient id="paint0_linear_1_6003" x1="262.299" y1="148.749" x2="262.299" y2="164.315" gradientUnits="userSpaceOnUse">
<stop stop-color="#6CF102"/>
<stop offset="1" stop-color="#3E8B01"/>
</linearGradient>
<linearGradient id="paint1_linear_1_6003" x1="78.7617" y1="86.271" x2="203.22" y2="16.9983" gradientUnits="userSpaceOnUse">
<stop stop-color="#6CF102"/>
<stop offset="1" stop-color="#3E8B01"/>
</linearGradient>
<linearGradient id="paint2_linear_1_6003" x1="174.362" y1="18.4101" x2="182.998" y2="13.6035" gradientUnits="userSpaceOnUse">
<stop stop-color="#6CF102"/>
<stop offset="1" stop-color="#3E8B01"/>
</linearGradient>
<linearGradient id="paint3_linear_1_6003" x1="158.524" y1="29.3568" x2="167.16" y2="24.5502" gradientUnits="userSpaceOnUse">
<stop stop-color="#6CF102"/>
<stop offset="1" stop-color="#3E8B01"/>
</linearGradient>
<linearGradient id="paint4_linear_1_6003" x1="165.895" y1="24.5979" x2="179.306" y2="17.1332" gradientUnits="userSpaceOnUse">
<stop stop-color="#6CF102"/>
<stop offset="1" stop-color="#3E8B01"/>
</linearGradient>
<linearGradient id="paint5_linear_1_6003" x1="59.1142" y1="67.6892" x2="59.1142" y2="131.562" gradientUnits="userSpaceOnUse">
<stop stop-color="#6CF102"/>
<stop offset="1" stop-color="#3E8B01"/>
</linearGradient>
<linearGradient id="paint6_linear_1_6003" x1="98.9407" y1="75.1381" x2="105.098" y2="71.711" gradientUnits="userSpaceOnUse">
<stop stop-color="#6CF102"/>
<stop offset="1" stop-color="#3E8B01"/>
</linearGradient>
<linearGradient id="paint7_linear_1_6003" x1="111.439" y1="68.1809" x2="117.596" y2="64.7538" gradientUnits="userSpaceOnUse">
<stop stop-color="#6CF102"/>
<stop offset="1" stop-color="#3E8B01"/>
</linearGradient>
</defs>
</svg>
